<?xml version="1.0" standalone="no"?>
<!DOCTYPE svg PUBLIC "-//W3C//DTD SVG 1.1//EN" "http://www.w3.org/Graphics/SVG/1.1/DTD/svg11.dtd" >
<svg xmlns="http://www.w3.org/2000/svg">
<metadata></metadata>
<defs>
<font id="italianaregular" horiz-adv-x="1273" >
<font-face units-per-em="2048" ascent="1638" descent="-410" />
<missing-glyph horiz-adv-x="612" />
<glyph horiz-adv-x="0" />
<glyph unicode="&#xd;" horiz-adv-x="681" />
<glyph unicode=" "  horiz-adv-x="612" />
<glyph unicode="&#x09;" horiz-adv-x="612" />
<glyph unicode="&#xa0;" horiz-adv-x="612" />
<glyph unicode="!" horiz-adv-x="577" d="M207 170q0 37 24.5 61.5t61.5 24.5t62.5 -24.5t25.5 -61.5t-25.5 -62.5t-62.5 -25.5t-61.5 25.5t-24.5 62.5zM219 1536h143l-40 -1075h-62z" />
<glyph unicode="&#x22;" horiz-adv-x="663" d="M180 1532l66 4l-31 -375h-27zM426 1532l66 4l-31 -375h-27z" />
<glyph unicode="#" horiz-adv-x="1228" d="M57 520l2 17h191l80 452h-191l2 17h191l76 428h163l-75 -428h249l76 428h164l-76 -428h238l-2 -17h-238l-80 -452h238l-2 -17h-240l-86 -497h-164l86 497h-249l-86 -497h-164l86 497h-189zM414 537h250l79 452h-249z" />
<glyph unicode="$" horiz-adv-x="1193" d="M154 123l10 16q68 -51 175 -86t179 -35t92 2v515q-70 23 -91 30.5t-83.5 31.5t-86 40t-66.5 47t-60 61q-47 84 -47 164q0 135 100.5 229.5t298.5 94.5h35v199h21v-201q178 -8 358 -68l-8 -20q-168 63 -350 71v-540q86 -29 128 -44.5t111.5 -51t104.5 -70.5 q90 -94 90 -230.5t-122 -204t-312 -73.5v-121h-21v119h-26q-252 0 -430 125zM281 958q0 -117 102 -180q80 -49 227 -98v534q-147 -4 -238 -71.5t-91 -184.5zM631 20q145 11 237.5 60t92.5 155.5t-85 171t-245 119.5v-506z" />
<glyph unicode="%" horiz-adv-x="1337" d="M143 819q0 84 78 144.5t189 60.5q266 0 266 -205q0 -84 -79 -144.5t-187 -60.5q-267 0 -267 205zM266 812q0 -85 40 -133t101.5 -48t103.5 55t42 140t-41 133.5t-101.5 48.5t-102.5 -55.5t-42 -140.5zM287 0l717 1024h20l-717 -1024h-20zM645 205q0 84 78 144.5t188 60.5 q266 0 267 -205q0 -84 -79 -144.5t-188 -60.5q-266 0 -266 205zM768 198q0 -85 40 -133.5t101.5 -48.5t103.5 55.5t42 140.5t-41 133t-101.5 48t-102.5 -55t-42 -140z" />
<glyph unicode="&#x26;" horiz-adv-x="1843" d="M47 547q0 252 154.5 425t351.5 173q356 0 369 -318l340 269l14 -13l-1016 -798q51 -123 146.5 -194t240 -71t288.5 73t251 190q215 238 303 520h-229v20h505v-20h-112q-111 -301 -367 -541q-125 -117 -293 -189.5t-346 -72.5q-170 0 -311 66q-82 37 -144.5 95 t-103.5 157.5t-41 228.5zM211 557l4 -90q10 -92 37 -168l508 399q-2 234 -46 330t-147.5 96t-174 -54t-109.5 -142q-72 -170 -72 -371z" />
<glyph unicode="'" horiz-adv-x="204" d="M57 1532l66 4l-31 -375h-26z" />
<glyph unicode="(" horiz-adv-x="614" d="M141 492q0 225 28 395t60.5 264t70.5 168t75 113q78 82 117 96l18 8l12 -27q-8 -4 -21.5 -15t-49 -70.5t-63.5 -149.5t-52 -270q-31 -218 -31 -521q0 -715 205 -878l-8 -15q-96 37 -164 119q-33 39 -76 119q-121 231 -121 664z" />
<glyph unicode=")" horiz-adv-x="614" d="M78 1509l12 27q14 -4 37 -15.5t83 -74t107.5 -154.5t94.5 -298t47 -539q0 -86 -13.5 -218.5t-40 -230.5t-68.5 -178t-75 -120t-78 -70q-43 -31 -86 -48l-8 15q205 164 205 878q0 303 -26.5 502t-57.5 289q-61 186 -113 221z" />
<glyph unicode="*" horiz-adv-x="1138" d="M211 1065v16h342l-242 242l11 10l241 -241v342h17v-342l241 241l10 -10l-241 -242h342v-16h-342l241 -242l-10 -10l-241 242v-342h-17v342l-241 -242l-11 10l242 242h-342z" />
<glyph unicode="+" horiz-adv-x="1339" d="M217 526v17h338v399h164v-399h358v-17h-358v-444h-164v444h-338z" />
<glyph unicode="," horiz-adv-x="188" d="M25 -205l53 371l65 4l-92 -375h-26z" />
<glyph unicode="-" horiz-adv-x="819" d="M94 584v16h619v-16h-619z" />
<glyph unicode="." horiz-adv-x="225" d="M57 58.5q0 27.5 18.5 46t46.5 18.5t47 -19.5t19 -46t-19 -46t-46 -19.5t-46.5 19.5t-19.5 47z" />
<glyph unicode="/" horiz-adv-x="1005" d="M205 0l514 1534h20l-514 -1534h-20z" />
<glyph unicode="0" horiz-adv-x="1323" d="M102 512q0 215 163 367.5t404.5 152.5t394.5 -126t153 -394q0 -215 -163 -367.5t-404.5 -152.5t-394.5 126t-153 394zM266 512q0 -258 108.5 -381t278.5 -123t285 147.5t115 356.5q0 258 -108.5 381t-278.5 123t-285 -147.5t-115 -356.5z" />
<glyph unicode="1" horiz-adv-x="817" d="M205 0v16h123v992h-97v16h357v-16h-96v-992h122v-16h-409z" />
<glyph unicode="2" horiz-adv-x="899" d="M82 0q193 145 347.5 397t154.5 385q-1 226 -148 226q-156 0 -272 -117l-10 12q137 121 287.5 121t228.5 -61.5t78 -185.5t-145.5 -370.5t-323.5 -390.5h395q141 0 170 82l12 -6q0 -8 -14.5 -27.5t-32.5 -31.5q-49 -33 -135 -33h-592z" />
<glyph unicode="3" horiz-adv-x="768" d="M80 -188q154 41 283 175t129 300q0 113 -48.5 169t-111.5 64q-37 -14 -62 -16l-8 14q106 33 177 115.5t71 193.5q0 180 -133 181q-121 0 -256 -58l-8 15q135 59 270 59q70 0 143 -20q147 -41 148 -177q0 -106 -87 -179t-212 -113q117 -12 198.5 -73t81.5 -167.5 t-56 -193.5t-144 -146q-182 -125 -373 -160z" />
<glyph unicode="4" horiz-adv-x="909" d="M61 0l734 1024l14 -8q-303 -422 -715 -1000h455l67 566h164l-67 -566h96v-16h-98l-25 -205h-162l23 205h-486z" />
<glyph unicode="5" horiz-adv-x="712" d="M43 -186l23 12q195 106 301 264q79 121 79 264q0 305 -299 305l37 365h361v-160h-357l-20 -188q442 -10 442 -314q0 -104 -55 -199t-145 -167q-170 -133 -367 -201v19z" />
<glyph unicode="6" horiz-adv-x="1024" d="M82 473q0 225 115 412q135 215 397 299q147 45 330 45l-2 -15q-362 0 -529 -233q-90 -127 -121 -315q25 49 90.5 93t191.5 44t246 -92.5t120 -274.5t-115 -313t-330 -131q-393 0 -393 481zM244 381q0 -180 68.5 -276.5t179 -96.5t187.5 123t77 306.5t-71 266t-171 82.5 q-68 0 -130 -38.5t-92 -79t-30 -54.5q-18 -127 -18 -233z" />
<glyph unicode="7" horiz-adv-x="847" d="M102 866v160h674q-414 -975 -565 -1231l-16 6q162 279 493 1063z" />
<glyph unicode="8" horiz-adv-x="1105" d="M123 324.5v42.5q14 203 319 340q-219 61 -219 243q0 133 114 206t264.5 73t257 -60.5t106.5 -183.5q0 -221 -248 -352q135 -29 202.5 -88.5t69.5 -177.5q0 -66 -33.5 -138.5t-80 -120t-139.5 -82t-213 -34.5t-200.5 30.5t-119.5 70.5t-58.5 98.5t-20.5 86t-1 47zM285 336 q0 -86 20.5 -153.5t48 -101.5t70.5 -52.5t58.5 -19.5t57.5 -1t92 19.5t81.5 51.5t55.5 69.5t34 76.5q25 96 24.5 161t-18.5 115t-64.5 82.5t-85 49t-106 36t-94.5 29.5q-174 -145 -174 -362zM387 932q0 -143 64 -191q37 -29 72.5 -42t89.5 -28.5t87 -31.5q102 139 103 350 q0 86 -45 154.5t-170 68.5q-92 0 -144 -71q-57 -82 -57 -209z" />
<glyph unicode="9" horiz-adv-x="1024" d="M82 -203l2 15q362 0 528 233q90 127 121 315q-24 -49 -89.5 -93t-191.5 -44t-246 92.5t-120 274.5t114.5 313t329.5 131q393 0 394 -481q0 -225 -117 -412q-133 -215 -397 -297q-145 -47 -328 -47zM250 589q0 -183 70.5 -266t171.5 -83q68 0 130 38.5t91.5 79t29.5 54.5 q18 127 19 233q0 180 -68.5 276.5t-179.5 96.5t-187.5 -123t-76.5 -306z" />
<glyph unicode=":" horiz-adv-x="512" d="M170 58.5q0 27.5 19.5 46t46 18.5t46 -19.5t19.5 -46t-19.5 -46t-46 -19.5t-46 19.5t-19.5 47zM170 895q0 27 19.5 46.5t46 19.5t46 -19.5t19.5 -46.5t-19.5 -46.5t-46 -19.5t-46 19.5t-19.5 46.5z" />
<glyph unicode=";" horiz-adv-x="512" d="M147 -205l54 371l65 4l-92 -375h-27zM170 895q0 27 19.5 46.5t46 19.5t46 -19.5t19.5 -46.5t-19.5 -46.5t-46 -19.5t-46 19.5t-19.5 46.5z" />
<glyph unicode="&#x3c;" horiz-adv-x="1165" d="M205 614l721 410l14 -14l-600 -398l600 -391l-14 -16z" />
<glyph unicode="=" horiz-adv-x="1513" d="M299 262v17h930v-17h-930zM299 717v16h930v-16h-930z" />
<glyph unicode="&#x3e;" horiz-adv-x="1165" d="M205 221l600 391l-600 398l14 14l721 -410l-721 -409z" />
<glyph unicode="?" horiz-adv-x="882" d="M74 1393q166 51 332.5 51t273 -83t106.5 -249q0 -162 -184 -334q-78 -70 -154.5 -143.5t-131 -169.5t-54.5 -203h-20q0 197 135 381q55 76 110 148q137 174 137.5 318t-67.5 231t-192 87q-94 0 -234 -34l-49 -13zM190 58.5q0 27.5 19.5 46t46.5 18.5t46.5 -19.5t19.5 -46 t-19.5 -46t-46.5 -19.5t-46.5 19.5t-19.5 47z" />
<glyph unicode="@" horiz-adv-x="2191" d="M164 512q0 381 269 651.5t650 270.5q397 0 650 -213q129 -106 199.5 -286.5t70.5 -422.5q0 -131 -32 -227.5t-77 -149.5t-112.5 -85t-120.5 -40t-120.5 -9t-118 14.5t-70.5 37.5q-43 41 -43 78v43q-37 -72 -115 -127t-186 -55q-289 0 -314 233q-2 25 -2 49.5t6.5 53 t42.5 67.5q68 74 346 94q66 6 121.5 6.5t100.5 -3.5v360q0 12 -10.5 44t-28 56.5t-58.5 44t-96 19.5q-201 0 -358 -82l-8 14q27 12 42 19.5t38.5 16.5t54 17.5t65.5 14.5q74 16 166 16q336 0 336 -201v-686q0 -84 43 -112q20 -12 35 -13h14q94 0 185 95q49 51 79.5 153.5 t30.5 243.5q0 238 -58.5 416t-162.5 282q-209 207 -527.5 207t-540.5 -265t-222 -640q0 -240 58 -419t163.5 -282.5t239 -153.5t295 -50t343.5 80l13 -13q-53 -31 -152.5 -57.5t-204.5 -26.5q-399 0 -649 205q-129 104 -199.5 286.5t-70.5 430.5zM836 268q0 -20 2 -43 q25 -217 172 -217q119 0 206 74t93 145v248q-55 4 -111.5 4t-112.5 -6q-158 -18 -203.5 -69.5t-45.5 -135.5z" />
<glyph unicode="A" d="M61 0l613 1434l22 10l516 -1444h-174l-159 451h-598l-195 -451h-25zM289 471h583l-262 741z" />
<glyph unicode="B" horiz-adv-x="1167" d="M143 0v1417q238 16 420 17q506 0 506 -338q0 -127 -73.5 -218.5t-235.5 -123.5q156 -18 246 -94t90 -265q0 -395 -506 -395h-447zM313 20h277q182 0 259 95.5t77 292t-78 262t-232 69.5h-303v-719zM313 760h303q289 12 289 332q0 156 -86 238.5t-256 82.5 q-119 0 -250 -14v-639z" />
<glyph unicode="C" horiz-adv-x="1263" d="M102 729q0 184 60.5 330.5t165.5 226.5q203 150 489 150q82 0 160 -13.5t117 -27.5l36 -15l-6 -20q-139 55 -307 55q-217 0 -362 -141q-111 -104 -156 -307q-27 -115 -27 -281t47.5 -306t107.5 -208t146 -107.5t137.5 -46t124 -6.5t165 14.5t139.5 26.5l47 15l6 -21 q-156 -55 -375 -55q-383 0 -567 217q-66 78 -107 207t-41 313z" />
<glyph unicode="D" d="M143 0v1432h164q90 4 177 4t184.5 -18.5t192.5 -69t162 -129t107.5 -207.5t40.5 -313.5t-60 -331t-165 -224.5q-202 -151 -485 -151h-4q-100 0 -211 8h-103zM313 16q43 -4 108.5 -4t98.5 2t90.5 17.5t106.5 42t103 79t93 123.5q88 168 88 439q0 193 -47 333t-107.5 207.5 t-146.5 107.5t-137 46t-118.5 6t-131.5 -6v-1393z" />
<glyph unicode="E" horiz-adv-x="1075" d="M143 0v1434h815v-21h-645v-614h598v-21h-598v-758h691v-20h-861z" />
<glyph unicode="F" horiz-adv-x="1030" d="M143 0v1434h815v-21h-645v-655h598v-21h-598v-737h-170z" />
<glyph unicode="G" horiz-adv-x="1329" d="M102 729q0 184 60.5 330.5t165.5 226.5q203 150 489 150q92 0 180 -13.5t131 -27.5l43 -15l-6 -20q-160 55 -348 55q-217 0 -362 -141q-111 -104 -156 -307q-27 -115 -27 -281t47.5 -306t107.5 -208t146 -107.5t137.5 -46t122 -6.5t189.5 17v422h-248v20h506v-20h-88 v-404q-156 -55 -375 -55q-383 0 -567 217q-66 78 -107 207t-41 313z" />
<glyph unicode="H" horiz-adv-x="1210" d="M102 0v1434h170v-660h666v660h170v-1434h-170v754h-666v-754h-170z" />
<glyph unicode="I" horiz-adv-x="651" d="M143 0v20h95v1393h-95v21h365v-21h-100v-1393h100v-20h-365z" />
<glyph unicode="J" horiz-adv-x="600" d="M-41 39l6 16q98 -39 203 -39q70 0 93.5 59.5t23.5 192.5v1145h-193v21h365v-1164q0 -162 -65.5 -216t-198 -54t-234.5 39z" />
<glyph unicode="K" horiz-adv-x="1230" d="M143 0v1434h170v-906l662 906l16 -15l-366 -499l544 -920h-190l-459 776l-207 -284v-492h-170z" />
<glyph unicode="L" horiz-adv-x="983" d="M143 0v1434h170v-1414h609v-20h-779z" />
<glyph unicode="M" horiz-adv-x="1626" d="M133 0l178 1434h68l430 -1325l428 1325h68l178 -1434h-170l-142 1147l-370 -1147h-129l-375 1133l-137 -1133h-27z" />
<glyph unicode="N" horiz-adv-x="1214" d="M133 0v1434h70l852 -1325v1325h26v-1434h-149l-772 1188v-1188h-27z" />
<glyph unicode="O" horiz-adv-x="1474" d="M102 682q0 373 181.5 566.5t466 193.5t453.5 -168t169 -536.5t-180 -557t-481 -188.5q-260 0 -426 149q-86 78 -134.5 216.5t-48.5 324.5zM272 696.5q0 -356.5 125 -520.5t333 -164t340 185.5t132 539t-126 519t-332.5 165.5t-339 -184t-132.5 -540.5z" />
<glyph unicode="P" horiz-adv-x="1171" d="M143 0v1417q238 16 418 17q508 0 508 -359q0 -166 -86 -291q-45 -68 -139 -107.5t-228 -39.5h-303v-637h-170zM313 657h303q289 12 289 414q0 164 -86 253t-256 89q-119 0 -250 -14v-742z" />
<glyph unicode="Q" horiz-adv-x="1474" d="M102 713q0 334 180.5 531.5t454.5 197.5q283 0 451 -148q184 -166 184 -581q0 -299 -146.5 -487.5t-381.5 -225.5q129 -29 311 -172q70 -55 152 -111q184 -123 448 -123v-20q-373 0 -579 82q-174 72 -252 172q-35 45 -62.5 81t-56.5 59.5t-68 23.5q-143 0 -251.5 32.5 t-198.5 110.5q-185 162 -185 578zM272 717q0 -705 465 -705q201 0 333 188.5t132 516.5q0 704 -464 704h-1q-201 0 -333 -188t-132 -516z" />
<glyph unicode="R" horiz-adv-x="1230" d="M143 0v1417q238 16 420 17q506 0 506 -338q0 -143 -69.5 -256t-239.5 -150l409 -690h-190l-401 678h-265v-678h-170zM313 698h303q289 12 289 394q0 156 -86 238.5t-256 82.5q-119 0 -250 -14v-701z" />
<glyph unicode="S" horiz-adv-x="1054" d="M72 123l10 16q68 -53 175.5 -87t219.5 -34q166 0 284 77t118 227q0 164 -156 256q-70 41 -153 75.5t-167 72.5t-153 85q-156 102 -156 291q0 150 100.5 243t302 93t410.5 -70l-8 -20q-185 72 -349 72h-2q-165 0 -257 -70t-92 -193q0 -150 155 -231q70 -35 153 -65 t167 -66.5t153.5 -83.5t112.5 -130t43 -211t-71.5 -218.5t-173 -122t-236.5 -31.5q-252 0 -430 125z" />
<glyph unicode="T" horiz-adv-x="1003" d="M61 1413v21h881v-21h-356v-1413h-170v1413h-355z" />
<glyph unicode="U" horiz-adv-x="1288" d="M143 614v820h170v-818q0 -373 113 -497q57 -61 119.5 -84t150.5 -23q197 0 314.5 144.5t117.5 459.5v818h27v-820q0 -322 -127 -472t-332 -150q-129 0 -219 23.5t-170 86.5q-164 127 -164 512z" />
<glyph unicode="V" horiz-adv-x="1208" d="M61 1434h175l428 -1213l436 1008q23 50 23 104q0 58 -31 88l16 13q39 -39 39 -101q0 -51 -23 -104l-524 -1229l-22 -10z" />
<glyph unicode="W" horiz-adv-x="1732" d="M61 1434h175l366 -1213l260 660l-174 553h174l367 -1213l395 1008q23 51 23 106.5t-31 85.5l16 13q39 -39 39 -101q0 -51 -22 -104l-484 -1229l-22 -10l-271 858l-333 -848l-23 -10z" />
<glyph unicode="X" horiz-adv-x="1128" d="M61 1434h172l353 -607l307 607h25l-318 -631l467 -803h-172l-414 711l-358 -711h-27l371 733z" />
<glyph unicode="Y" horiz-adv-x="1091" d="M61 1434h175l391 -924l356 719q23 51 23 106.5t-31 85.5l16 13q39 -39 39 -101q0 -51 -22 -104l-367 -744v-485h-170v440z" />
<glyph unicode="Z" horiz-adv-x="1116" d="M72 0v20l719 1393h-666v21h836v-21l-723 -1393h616q59 0 108.5 20.5t65.5 59.5l16 -8q-4 -10 -13 -25.5t-56 -41t-115 -25.5h-788z" />
<glyph unicode="[" horiz-adv-x="880" d="M178 -410v1946h436v-16h-272v-1913h272v-17h-436z" />
<glyph unicode="\" horiz-adv-x="1228" d="M281 1534h20l514 -1534h-20z" />
<glyph unicode="]" horiz-adv-x="880" d="M281 -393h272v1913h-272v16h436v-1946h-436v17z" />
<glyph unicode="^" horiz-adv-x="1146" d="M299 625l281 297l262 -277l-43 -41l-248 266l-238 -256z" />
<glyph unicode="_" horiz-adv-x="894" d="M162 0v16h553v-16h-553z" />
<glyph unicode="`" horiz-adv-x="612" d="M209 1454l147 -4l95 -289h-27z" />
<glyph unicode="a" horiz-adv-x="1062" d="M72 275.5q0 25.5 8 56t47 67.5q78 74 342 90q66 7 121 7h12q48 0 88 -4v339q-4 2 0 19.5t-7 45.5t-29.5 54.5t-65.5 46t-123 19.5t-177.5 -27.5t-148.5 -54.5l-8 14q182 84 371 84q211 0 278 -76q53 -59 54 -125v-686q0 -59 23.5 -90.5t47.5 -34.5l23 -4h63v-16h-63 q-139 0 -191 53q-47 45 -47 78v43q-100 -182 -321 -182q-258 0 -293 233q-4 25 -4 50.5zM217 262q0 -16 2 -37q18 -217 182 -217q109 0 196 75t93 144v248q-55 4 -111.5 4t-111.5 -6q-156 -18 -203 -69.5t-47 -141.5z" />
<glyph unicode="b" horiz-adv-x="1064" d="M82 43v1491h143v-764q35 94 129.5 178t212.5 84q416 0 416 -487q0 -553 -537 -553q-158 0 -364 51zM225 55q125 -47 219 -47q395 0 396 539q-1 469 -275 469q-127 0 -229.5 -109.5t-110.5 -197.5v-654z" />
<glyph unicode="c" horiz-adv-x="985" d="M82 494q0 256 135 397t344 141q117 0 216.5 -53t146.5 -162h-131q-31 100 -93.5 149.5t-138.5 49.5q-145 0 -242.5 -139.5t-97.5 -385t89 -364.5t235 -119q182 0 323 62l6 -15q-145 -63 -339.5 -63t-323.5 123t-129 379z" />
<glyph unicode="d" horiz-adv-x="1224" d="M82 475q0 266 129 411.5t387 145.5q121 0 244 -61v563h143v-1389q0 -59 23.5 -90.5t48.5 -34.5l22 -4h64v-16h-125q-84 0 -128 37t-46 74l-2 34v33q-39 -72 -129 -127t-213 -55q-418 10 -418 479zM225 475q1 -463 277 -463q137 0 235.5 74t104.5 145v721q-145 63 -250 64 q-182 0 -274.5 -142.5t-92.5 -398.5z" />
<glyph unicode="e" horiz-adv-x="1021" d="M82 494q0 256 135 397t344 141q168 0 282.5 -100.5t114.5 -296.5v-21h-731q-6 -55 -6 -114q0 -254 89 -373t235 -119q205 0 364 62l6 -15q-164 -63 -369.5 -63t-334.5 123t-129 379zM229 631h590q-2 196 -75.5 290.5t-190.5 94.5t-208 -102.5t-116 -282.5z" />
<glyph unicode="f" horiz-adv-x="522" d="M72 1008v16h43v96q0 223 96 318.5t311 97.5v-16q-141 -2 -202.5 -95.5t-61.5 -304.5v-96h162v-16h-162v-1008h-143v1008h-43z" />
<glyph unicode="g" horiz-adv-x="1046" d="M72 475q0 266 129 411.5t387 145.5q190 0 387 -67v-990q-2 -487 -426 -487q-233 0 -399 152l14 12q176 -147 385 -148q283 0 282 471v203q-39 -72 -129 -127t-213 -55q-417 10 -417 479zM215 475q1 -463 277 -463q137 0 235 74t104 145v723q-147 61 -249 62 q-182 0 -274.5 -142.5t-92.5 -398.5z" />
<glyph unicode="h" horiz-adv-x="1138" d="M102 0v1534h144v-743q33 88 125 164.5t207 76.5q199 0 265 -68.5t66 -177.5v-641q0 -59 23.5 -90.5t46.5 -34.5l25 -4h63v-16h-125q-84 0 -128 37t-46 74l-2 34v643q0 162 -86 207q-41 20 -105 21q-127 0 -228 -103.5t-101 -185.5v-727h-144z" />
<glyph unicode="i" horiz-adv-x="497" d="M102 1315q0 37 25 62.5t61.5 25.5t62 -25.5t25.5 -62.5t-25.5 -61.5t-62 -24.5t-61.5 24.5t-25 61.5zM115 145v879h143v-879q0 -59 23.5 -90.5t46.5 -34.5l24 -4h64v-16h-125q-84 0 -128 37t-46 74z" />
<glyph unicode="j" horiz-adv-x="473" d="M-123 -473l6 16q98 -39 193.5 -39t125 59.5t29.5 192.5v1268h144v-1266q0 -162 -65.5 -216t-198 -54t-234.5 39zM217 1315q0 37 24.5 62.5t61.5 25.5t62.5 -25.5t25.5 -62.5t-25.5 -61.5t-62.5 -24.5t-61.5 24.5t-24.5 61.5z" />
<glyph unicode="k" horiz-adv-x="894" d="M102 0v1536h144v-1020l450 508h21l-334 -377l440 -647h-143l-379 557l-55 -63v-494h-144z" />
<glyph unicode="l" horiz-adv-x="477" d="M104 131v1403h144v-1389q0 -59 23.5 -90.5t47.5 -34.5l23 -4h64v-16h-64q-180 0 -227 94q-10 20 -11 37z" />
<glyph unicode="m" horiz-adv-x="1638" d="M82 0v1024h143v-231q33 88 121 163.5t196.5 75.5t173 -19.5t91.5 -60.5t33 -71.5t6 -85.5q33 88 119 162.5t184 74.5t157.5 -16.5t89 -37t45 -59t17.5 -63.5t2 -70v-641q0 -59 23.5 -90.5t48.5 -34.5l22 -4h64v-16h-125q-84 0 -128 37t-46 74l-2 34v643q0 125 -33 176.5 t-125 51.5q-123 0 -218 -102.5t-95 -184.5v-729h-144v788q0 125 -32.5 176.5t-139 51.5t-202 -98.5t-103.5 -182.5v-735h-143z" />
<glyph unicode="n" horiz-adv-x="1077" d="M82 0v1024h143v-233q35 88 129.5 164.5t207 76.5t183 -21.5t103.5 -60.5q51 -63 51 -164v-641q0 -59 23.5 -90.5t48.5 -34.5l22 -4h64v-16h-125q-84 0 -128 37t-46 74l-2 34v643q0 162 -84 207q-43 20 -107 21q-131 0 -235.5 -103.5t-104.5 -185.5v-727h-143z" />
<glyph unicode="o" horiz-adv-x="1146" d="M82 494q0 256 140 397t356.5 141t351.5 -123t135 -379t-140.5 -397t-356.5 -141t-351 123t-135 379zM221 492.5q0 -246.5 94.5 -365.5t250 -119t258 138.5t102.5 385t-94.5 365.5t-250 119t-258 -138.5t-102.5 -385z" />
<glyph unicode="p" horiz-adv-x="1085" d="M102 -512v1536h144v-254q35 94 129 178t213 84q416 0 416 -487q0 -553 -537 -553q-96 0 -221 45v-549h-144zM246 55q125 -47 219 -47q395 0 395 539q0 469 -274 469q-127 0 -229.5 -109.5t-110.5 -197.5v-654z" />
<glyph unicode="q" horiz-adv-x="1067" d="M82 475q0 266 129 411.5t387 145.5q121 0 244 -61v53h143v-1536h-143v690q-39 -72 -129 -127t-213 -55q-418 10 -418 479zM225 475q1 -463 277 -463q137 0 235.5 74t104.5 145v721q-145 63 -250 64q-182 0 -274.5 -142.5t-92.5 -398.5z" />
<glyph unicode="r" horiz-adv-x="735" d="M82 0v1024h143v-326q33 119 125 224.5t209 109.5h8q41 0 69 -27.5t28 -68.5t-28 -67.5t-69 -26.5t-67.5 26.5t-26.5 67.5v43q-92 -37 -168 -148.5t-80 -209.5v-621h-143z" />
<glyph unicode="s" horiz-adv-x="864" d="M72 797q0 80 36.5 130t98.5 70q104 35 209 35q176 0 274 -65l-10 -15q-33 27 -105.5 45.5t-109.5 18.5h-43q-111 -2 -160 -56.5t-49 -122t43 -113.5t107.5 -71.5t139.5 -58.5t139.5 -66.5t107.5 -98t43 -161t-68 -164t-150.5 -90t-179.5 -22.5q-209 0 -313 92l12 12 q41 -39 122 -63.5t157 -24.5q121 0 199.5 66.5t78.5 166t-59.5 160t-144.5 94t-171 67.5t-145 94.5t-59 140.5z" />
<glyph unicode="t" horiz-adv-x="684" d="M72 1008v16h43v205h143v-205h313v-16h-313v-746q0 -133 29.5 -192.5t125 -59.5t193.5 39l6 -16q-102 -39 -234 -39t-197.5 54t-65.5 216v744h-43z" />
<glyph unicode="u" horiz-adv-x="1077" d="M82 238v786h143v-788q0 -162 86 -207q41 -20 105 -21q129 0 230.5 98.5t109.5 182.5v735h143v-879q0 -59 23.5 -90.5t48.5 -34.5l22 -4h64v-16h-125q-84 0 -128 37t-46 74l-2 34v88q-37 -88 -131.5 -164.5t-206 -76.5t-182 21.5t-101.5 60.5q-53 63 -53 164z" />
<glyph unicode="v" horiz-adv-x="962" d="M72 1024h143l313 -848l318 643q25 43 25 102.5t-33 90.5l12 12q8 -4 21.5 -24.5t16.5 -37t3 -30.5q0 -55 -25 -113l-393 -819h-20z" />
<glyph unicode="w" horiz-adv-x="1617" d="M72 1024h143l313 -848l295 641l-75 207h143l313 -848l297 643q25 43 25 102.5t-33 90.5l12 12q8 -4 21.5 -24.5t16.5 -37t3 -30.5q0 -55 -24 -113l-373 -819h-21l-294 793l-361 -793h-20z" />
<glyph unicode="x" horiz-adv-x="1040" d="M72 0v16q43 0 87 33t66 66l256 377l-364 532h149l314 -457l303 457h20l-315 -471l381 -553h-150l-330 479l-221 -332q-4 -6 -10 -16t-26.5 -34.5t-43.5 -43.5q-61 -53 -116 -53z" />
<glyph unicode="y" horiz-adv-x="995" d="M72 -481q47 -12 84 -13q104 0 159 127l172 367h-2l-381 1024h144l317 -854l314 649q25 42 25 100q-1 62 -34 93l13 12q8 -4 21.5 -24.5t16.5 -37t3 -30.5q0 -55 -25 -113l-393 -819l-172 -367q-66 -145 -162 -145q-43 0 -100 14v17z" />
<glyph unicode="z" horiz-adv-x="958" d="M72 0v16l618 992h-567v16h711v-16l-619 -992h490q141 0 169 82l13 -6q0 -8 -14.5 -27.5t-32.5 -31.5q-49 -33 -135 -33h-633z" />
<glyph unicode="{" horiz-adv-x="819" d="M205 520v17q106 30 106 249v521q0 147 131 194q68 25 172 35v-18q-109 -31 -129 -109q-10 -39 -10 -96v-520q0 -221 -225 -265q225 -47 225 -264v-520q0 -117 45 -156q37 -33 94 -49v-18q-182 20 -241 73q-61 57 -62 156v520q0 219 -106 250z" />
<glyph unicode="|" horiz-adv-x="581" d="M178 -336v1872h164v-1872h-164z" />
<glyph unicode="}" horiz-adv-x="817" d="M205 -461q109 31 129 109q10 39 10 96v520q0 217 225 264q-225 43 -225 265v520q0 117 -45 155q-37 33 -94 50v18q182 -20 241 -74q61 -57 62 -155v-521q0 -219 106 -249v-17q-106 -31 -106 -250v-520q0 -147 -131 -194q-68 -25 -172 -35v18z" />
<glyph unicode="~" horiz-adv-x="1204" d="M295 618q23 96 125 97q82 0 215 -39q150 -33 206 -33t78.5 15.5t32.5 64.5l19 -4q-18 -88 -99 -96q-14 -2 -56 -2t-138 30q-31 6 -105 23q-88 20 -144 20t-79.5 -16t-34.5 -64z" />
<glyph unicode="&#xa1;" horiz-adv-x="577" d="M207 936q0 37 24.5 62.5t61.5 25.5t62.5 -25.5t25.5 -62.5t-25.5 -61.5t-62.5 -24.5t-61.5 24.5t-24.5 61.5zM219 -430l41 1075h62l40 -1075h-143z" />
<glyph unicode="&#xa2;" horiz-adv-x="985" d="M82 490.5q0 248.5 126 390t324 151.5v148h21v-148h8q117 0 216.5 -53t146.5 -162h-131q-31 100 -93.5 149.5t-138.5 49.5h-8v-1008q176 0 315 62l6 -15q-135 -59 -321 -63v-160h-21v160q-201 4 -325.5 127t-124.5 371.5zM221 488.5q0 -236.5 86 -356.5t225 -124v1006 q-137 -15 -224 -152t-87 -373.5z" />
<glyph unicode="&#xa3;" horiz-adv-x="1028" d="M86 598v16h82q-66 121 -66 265.5t96.5 244t325.5 99.5q76 0 132.5 -21.5t80.5 -52.5q55 -66 60 -113l2 -20l-19 -6q0 25 -16 63.5t-41 64t-77 47t-124 21.5q-256 0 -256 -348q0 -123 47 -244h301v-16h-295q18 -51 60 -133q84 -168 84 -252q0 -119 -96 -197h452v-16h-684 v16h162q102 86 102 199q0 53 -33.5 110.5t-94 136.5t-93.5 136h-92z" />
<glyph unicode="&#xa4;" horiz-adv-x="1024" d="M199 1227l12 12l90 -92q88 82 219 82t217 -80l90 90l13 -12l-90 -90q72 -82 71.5 -212t-82.5 -216l99 -97l-13 -12l-98 96q-88 -82 -219 -82t-211 72l-84 -86l-12 12l86 86q-80 80 -80 215.5t82 221.5zM227 915q0 -127 82 -205.5t203 -78.5t205 85t84 212t-82 205.5 t-203 78.5t-205 -85t-84 -212z" />
<glyph unicode="&#xa5;" horiz-adv-x="1392" d="M231 174v16h385v252l-18 43h-367v17h361l-295 727h174l301 -719l254 514q23 51 23 106.5t-31 86.5l16 12q47 -47 37 -131q-4 -35 -20 -74l-256 -522h366v-17h-375v-295h375v-16h-375v-174h-170v174h-385z" />
<glyph unicode="&#xa6;" horiz-adv-x="512" d="M178 410h164v-820h-164v820zM178 819v715h164v-715h-164z" />
<glyph unicode="&#xa7;" horiz-adv-x="1024" d="M72 -287l10 17q68 -53 175.5 -87t219.5 -34q166 0 284 76.5t118 226.5q0 164 -156 256q-70 41 -153 76t-167 72.5t-153 84.5q-156 102 -156 285.5t127 269.5l45 -38q-68 -68 -67.5 -159t43.5 -148.5t112.5 -93.5t152.5 -65.5t167 -66.5t153.5 -84t112.5 -130t43 -211 t-71.5 -218t-173 -122t-236.5 -32q-252 0 -430 125zM94 1102q0 -188 156 -291q70 -47 153.5 -85t166.5 -73t153 -75.5t113 -105t43 -154t-45 -152.5l43 -55q106 96 106 274q0 113 -43 196t-112.5 130t-153.5 83.5t-167 66.5t-153 65q-156 82 -155 231q0 123 92 192.5 t257 69.5t351 -71l8 20q-209 70 -410.5 70t-302 -93.5t-100.5 -242.5z" />
<glyph unicode="&#xa8;" horiz-adv-x="1024" d="M227 1315q0 37 24.5 62.5t61.5 25.5t62.5 -25.5t25.5 -62.5t-25.5 -61.5t-62.5 -24.5t-61.5 24.5t-24.5 61.5zM674 1315q0 37 24.5 62.5t61.5 25.5t62.5 -25.5t25.5 -62.5t-25.5 -61.5t-62.5 -24.5t-61.5 24.5t-24.5 61.5z" />
<glyph unicode="&#xa9;" horiz-adv-x="1705" d="M102 601q0 286 202 457t498 171t482 -159t186 -443.5t-190 -455.5t-486 -171t-494 157.5t-198 443.5zM266 607.5q0 -269.5 154.5 -430.5t384 -161t386.5 168t157 437.5t-155 430t-384 160.5t-386 -167.5t-157 -437zM451 612q0 219 116.5 315.5t290.5 96.5q90 0 154 -25 l22 -8l-2 -10q-80 31 -140.5 31t-90 -3t-78.5 -25.5t-85 -61.5t-63.5 -120t-27.5 -189.5t26.5 -187.5t61.5 -118t84 -61q68 -31 127 -31q111 0 194 25l27 8l2 -12q-88 -31 -211 -31q-408 0 -407 407z" />
<glyph unicode="&#xaa;" horiz-adv-x="821" d="M78 1157q0 45 37 74q49 43 221 43q29 0 47 -4v168q-2 0 0 9t-4 22.5t-14 25.5q-20 33 -99.5 33t-154.5 -41l-5 8q96 41 183 41q164 0 164 -98v-338q0 -29 11 -45.5t36 -18.5h30v-8h-30q-55 0 -84 18.5t-31 34.5l-2 19v14q-49 -90 -168 -90t-135 115q-2 10 -2 18z M152 1155q0 -123 88 -123q53 0 96 37t47 72v121q-23 4 -51 4q-125 0 -160 -41q-20 -23 -20 -70z" />
<glyph unicode="&#xab;" horiz-adv-x="1421" d="M205 530l702 406v-16l-569 -390l569 -387v-16zM733 530l500 289v-16l-367 -273l367 -272v-16z" />
<glyph unicode="&#xac;" horiz-adv-x="1228" d="M205 526v17h860v-195h-164v178h-696z" />
<glyph unicode="&#xad;" horiz-adv-x="819" d="M94 584v16h619v-16h-619z" />
<glyph unicode="&#xae;" horiz-adv-x="1226" d="M102 1013.5q0 190.5 144.5 305.5t363.5 115t360.5 -106.5t141.5 -297t-144.5 -304.5t-364.5 -114t-360.5 105.5t-140.5 296zM266 1017q0 -183 96.5 -285.5t243 -102.5t244.5 107.5t98 290.5t-96 286.5t-242.5 103.5t-245 -108.5t-98.5 -291.5zM459 770v498q92 6 143 6 q180 0 180 -119t-108 -143l145 -242h-67l-142 238h-92v-238h-59zM518 1016h107q100 4 100 137q0 113 -119 113q-55 0 -88 -4v-246z" />
<glyph unicode="&#xaf;" horiz-adv-x="1024" d="M205 1229v16h614v-16h-614z" />
<glyph unicode="&#xb0;" horiz-adv-x="774" d="M143 1247q0 84 71 135.5t175.5 51.5t172 -46.5t67.5 -131.5t-70 -135t-174 -50t-173 46t-69 130zM266 1248.5q0 -72.5 34 -117t84 -44.5t86 48.5t36 121t-35 116.5t-85 44t-85 -48t-35 -120.5z" />
<glyph unicode="&#xb1;" horiz-adv-x="1384" d="M279 205v16h860v-16h-860zM279 854v16h337v400h164v-400h359v-16h-359v-444h-164v444h-337z" />
<glyph unicode="&#xb2;" horiz-adv-x="679" d="M215 1024q96 74 173 198.5t77 192.5q0 113 -74 113q-66 0 -135 -60l-6 7q68 61 141 61q156 0 156 -117q0 -70 -73 -192.5t-161 -194.5h197q72 0 86 41l6 -4q-10 -45 -92 -45h-295z" />
<glyph unicode="&#xb3;" horiz-adv-x="614" d="M109 1032q66 16 120 72.5t54 115t-20.5 82t-47.5 25.5l-25 -6l-4 6q45 12 75 47t30 82q0 76 -58 76q-49 0 -106 -25l-4 6q57 25 115 25q121 0 120.5 -83t-125.5 -122q119 -12 119 -104q0 -76 -77.5 -132.5t-163.5 -72.5z" />
<glyph unicode="&#xb4;" horiz-adv-x="614" d="M209 1161l94 289l148 4l-215 -293h-27z" />
<glyph unicode="&#xb5;" horiz-adv-x="1015" d="M20 -512v1536h144v-788q0 -162 86 -207q41 -20 104 -21q129 0 230.5 98.5t109.5 182.5v735h144v-879q0 -59 23.5 -90.5t47.5 -34.5l23 -4h63v-16h-125q-84 0 -128 37t-46 74l-2 34v88q-37 -88 -131 -164.5t-213 -76.5t-186 24v-528h-144z" />
<glyph unicode="&#xb6;" horiz-adv-x="1173" d="M104 868q0 359 508 359q182 0 420 -17v-1349q0 -162 -65.5 -216.5t-197.5 -54.5t-234 39l6 17q98 -39 202 -39q70 0 93.5 59.5t23.5 192.5v571h-303q-133 0 -227 40t-142 108q-84 125 -84 290zM268 864q0 -401 289 -413h303v741q-131 14 -250 14q-170 0 -256 -89 t-86 -253z" />
<glyph unicode="&#xb7;" horiz-adv-x="241" d="M57 816q0 28 18.5 46.5t46.5 18.5t47 -19.5t19 -46.5t-19 -46t-46 -19t-46.5 19t-19.5 47z" />
<glyph unicode="&#xb8;" horiz-adv-x="532" d="M43 -373h58.5t38 7.5t28.5 17.5q33 31 33 104v244h143v-258q0 -10 -8 -35.5t-25 -46.5q-43 -49 -143 -49h-125v16z" />
<glyph unicode="&#xb9;" horiz-adv-x="493" d="M150 1024v8h63v498h-49v8h180v-8h-49v-498h61v-8h-206z" />
<glyph unicode="&#xba;" horiz-adv-x="768" d="M127 1271q0 126 68.5 195.5t175 69.5t173 -60.5t66.5 -186.5t-68.5 -195.5t-176 -69.5t-173 60.5t-65.5 186.5zM195 1271q0 -122 47 -180.5t122.5 -58.5t126 67.5t50.5 189.5t-46 180.5t-123 58.5t-127 -67.5t-50 -189.5z" />
<glyph unicode="&#xbb;" horiz-adv-x="1421" d="M205 242v16l366 272l-366 273v16l500 -289zM530 127v16l570 387l-570 390v16l703 -406z" />
<glyph unicode="&#xbc;" horiz-adv-x="1433" d="M172 819v12h64v695h-50v12h185v-12h-49v-695h63v-12h-213zM410 0l514 1534h20l-514 -1534h-20zM731 119l426 598l10 -6q-178 -244 -417 -582h264l41 330h94l-39 -330h57v-10h-59l-14 -119h-95l15 119h-283z" />
<glyph unicode="&#xbd;" horiz-adv-x="1538" d="M172 819v12h64v695h-50v12h185v-12h-49v-695h63v-12h-213zM410 0l514 1534h20l-514 -1534h-20zM858 0q133 102 241.5 278.5t108.5 268.5q0 155 -102 155q-111 0 -191 -79l-8 8q98 84 202.5 84t159 -43t54.5 -130t-101.5 -258t-226.5 -272h277q98 0 119 58l8 -7 q-2 -6 -7.5 -17t-37 -28.5t-82.5 -17.5h-414z" />
<glyph unicode="&#xbe;" horiz-adv-x="1576" d="M43 821v8q88 25 164 103t76 174q0 123 -95 137q-10 -6 -34 -10l-4 8q61 20 102 68.5t41 111.5q0 104 -78 105q-68 0 -149 -33l-5 8q80 35 158 35q35 0 80 -12q90 -25 90 -103q0 -113 -174 -170q68 -6 115 -41.5t47 -103.5q0 -106 -106.5 -184t-227.5 -101zM410 0 l514 1534h20l-514 -1534h-20zM731 119l426 598l10 -6q-178 -244 -417 -582h264l41 330h94l-39 -330h57v-10h-59l-14 -119h-95l15 119h-283z" />
<glyph unicode="&#xbf;" horiz-adv-x="1024" d="M238 -98q0 162 184 331q78 72 154.5 146t131 170t54.5 203h20q0 -199 -135 -381q-57 -76 -112 -148q-135 -176 -135.5 -319.5t67.5 -230.5t192 -87q78 0 234 37l49 10l8 -12q-166 -51 -332.5 -51t-273 83t-106.5 249zM702 956.5q0 26.5 19.5 46t46.5 19.5t46.5 -19.5 t19.5 -46t-19.5 -46t-46.5 -19.5t-46.5 19.5t-19.5 46z" />
<glyph unicode="&#xc0;" d="M61 0l613 1434l22 10l516 -1444h-174l-159 451h-598l-195 -451h-25zM289 471h583l-262 741zM455 1831l147 -4l94 -289h-26z" />
<glyph unicode="&#xc1;" d="M61 0l613 1434l22 10l516 -1444h-174l-159 451h-598l-195 -451h-25zM289 471h583l-262 741zM692 1536l94 289l148 4l-215 -293h-27z" />
<glyph unicode="&#xc2;" d="M61 0l613 1434l22 10l516 -1444h-174l-159 451h-598l-195 -451h-25zM289 471h583l-262 741zM422 1559l280 296l263 -276l-43 -41l-248 266l-238 -256z" />
<glyph unicode="&#xc3;" d="M61 0l613 1434l22 10l516 -1444h-174l-159 451h-598l-195 -451h-25zM289 471h583l-262 741zM344 1544q10 61 53 111q14 16 47 22l50 11q35 6 127 -15.5t165 -38.5q80 -18 145.5 -18t86 17.5t33.5 64.5l18 -4q-23 -111 -84 -144q-25 -14 -45 -14t-41 2q-47 0 -105.5 17.5 t-62.5 18.5t-9 2t-81 17.5t-154 16.5q-109 0 -127 -72z" />
<glyph unicode="&#xc4;" d="M61 0l613 1434l22 10l516 -1444h-174l-159 451h-598l-195 -451h-25zM289 471h583l-262 741zM371 1622q0 37 24.5 62.5t61.5 25.5t62.5 -25.5t25.5 -62.5t-25.5 -61.5t-62.5 -24.5t-61.5 24.5t-24.5 61.5zM817 1622q0 37 24.5 62.5t61.5 25.5t62.5 -25.5t25.5 -62.5 t-25.5 -61.5t-62.5 -24.5t-61.5 24.5t-24.5 61.5z" />
<glyph unicode="&#xc5;" d="M61 0l613 1434l22 10l516 -1444h-174l-159 451h-598l-195 -451h-25zM289 471h583l-262 741zM453 1714q0 84 70.5 135.5t175 51.5t172 -46.5t67.5 -131.5t-69.5 -135t-174 -50t-173 46t-68.5 130zM575 1715q0 -73 34 -117t84 -44t86 48.5t36 121t-35 116.5t-85 44t-85 -48 t-35 -121z" />
<glyph unicode="&#xc6;" horiz-adv-x="1421" d="M61 0l613 1434h631v-21h-461v-614h413v-21h-413v-758h506v-20h-676v451h-393l-195 -451h-25zM289 471h385v889z" />
<glyph unicode="&#xc7;" horiz-adv-x="1263" d="M102 729q0 -184 41 -313t107 -207q184 -217 567 -217q219 0 375 55l-6 21l-47 -15q-47 -12 -139.5 -26.5t-165 -14.5t-124 6.5t-137.5 46t-146 107.5t-107.5 208t-47.5 306t27 281q45 203 156 307q145 141 362 141q168 0 307 -55l6 20l-36 15q-39 14 -117 27.5t-160 13.5 q-287 0 -489 -150q-104 -80 -165 -226.5t-61 -330.5zM575 -373h58.5t38 7.5t28.5 17.5q33 31 33 104v244h144v-258q0 -10 -8.5 -35.5t-24.5 -46.5q-43 -49 -144 -49h-125v16z" />
<glyph unicode="&#xc8;" horiz-adv-x="983" d="M61 0v1434h816v-21h-646v-614h598v-21h-598v-758h691v-20h-861zM311 1829l148 -4l94 -289h-27z" />
<glyph unicode="&#xc9;" horiz-adv-x="983" d="M61 0v1434h816v-21h-646v-614h598v-21h-598v-758h691v-20h-861zM496 1536l94 289l147 4l-215 -293h-26z" />
<glyph unicode="&#xca;" horiz-adv-x="983" d="M61 0v1434h816v-21h-646v-614h598v-21h-598v-758h691v-20h-861zM258 1556l281 297l262 -276l-43 -41l-248 266l-238 -256z" />
<glyph unicode="&#xcb;" horiz-adv-x="983" d="M61 0v1434h816v-21h-646v-614h598v-21h-598v-758h691v-20h-861zM207 1622q0 37 24.5 62.5t61.5 25.5t62.5 -25.5t25.5 -62.5t-25.5 -61.5t-62.5 -24.5t-61.5 24.5t-24.5 61.5zM653 1622q0 37 24.5 62.5t61.5 25.5t62.5 -25.5t25.5 -62.5t-25.5 -61.5t-62.5 -24.5 t-61.5 24.5t-24.5 61.5z" />
<glyph unicode="&#xcc;" horiz-adv-x="651" d="M106 1827l148 -4l94 -289h-26zM143 0v20h95v1393h-95v21h365v-21h-100v-1393h100v-20h-365z" />
<glyph unicode="&#xcd;" horiz-adv-x="651" d="M143 0v20h95v1393h-95v21h365v-21h-100v-1393h100v-20h-365zM270 1534l95 289l147 4l-215 -293h-27z" />
<glyph unicode="&#xce;" horiz-adv-x="651" d="M53 1554l281 297l262 -276l-43 -41l-248 266l-237 -256zM143 0v20h95v1393h-95v21h365v-21h-100v-1393h100v-20h-365z" />
<glyph unicode="&#xcf;" horiz-adv-x="651" d="M18 1622q0 37 25 62.5t61.5 25.5t62.5 -25.5t26 -62.5t-26 -61.5t-62.5 -24.5t-61.5 24.5t-25 61.5zM143 0v20h95v1393h-95v21h365v-21h-100v-1393h100v-20h-365zM465 1622q0 37 24.5 62.5t61.5 25.5t62.5 -25.5t25.5 -62.5t-25.5 -61.5t-62.5 -24.5t-61.5 24.5 t-24.5 61.5z" />
<glyph unicode="&#xd0;" horiz-adv-x="1339" d="M143 754v16h66v662h164q90 4 177 4t184 -18.5t192.5 -69t162 -129t107.5 -207.5t41 -313.5t-60.5 -331t-164.5 -224.5q-203 -152 -490 -151q-100 0 -211 8h-102v754h-66zM379 16q43 -4 108.5 -4t98 2t90 17.5t106.5 42t103.5 79t93.5 123.5q88 168 88 439q0 193 -47 333 t-107.5 207.5t-146.5 107.5t-137 46t-119 6t-131 -6v-639h371v-16h-371v-738z" />
<glyph unicode="&#xd1;" horiz-adv-x="1214" d="M133 0v1434h70l852 -1325v1325h26v-1434h-149l-772 1188v-1188h-27zM303 1546q10 61 53 111q14 16 47 22l50 9q35 8 127 -13.5t165 -38.5q80 -18 145.5 -18t86 17.5t33.5 64.5l18 -4q-23 -111 -84 -144q-25 -14 -45 -14t-41 2q-47 0 -105.5 17.5t-62.5 18.5t-9 2 t-81 17.5t-154 16.5q-109 0 -127 -72z" />
<glyph unicode="&#xd2;" horiz-adv-x="1474" d="M102 682q0 373 181.5 566.5t466 193.5t453.5 -168t169 -536.5t-180 -557t-481 -188.5q-260 0 -426 149q-86 78 -134.5 216.5t-48.5 324.5zM272 696.5q0 -356.5 125 -520.5t333 -164t340 185.5t132 539t-126 519t-332.5 165.5t-339 -184t-132.5 -540.5zM510 1829l147 -4 l95 -289h-27z" />
<glyph unicode="&#xd3;" horiz-adv-x="1474" d="M102 682q0 373 181.5 566.5t466 193.5t453.5 -168t169 -536.5t-180 -557t-481 -188.5q-260 0 -426 149q-86 78 -134.5 216.5t-48.5 324.5zM272 696.5q0 -356.5 125 -520.5t333 -164t340 185.5t132 539t-126 519t-332.5 165.5t-339 -184t-132.5 -540.5zM756 1536l94 289 l147 4l-215 -293h-26z" />
<glyph unicode="&#xd4;" horiz-adv-x="1474" d="M102 682q0 373 181.5 566.5t466 193.5t453.5 -168t169 -536.5t-180 -557t-481 -188.5q-260 0 -426 149q-86 78 -134.5 216.5t-48.5 324.5zM272 696.5q0 -356.5 125 -520.5t333 -164t340 185.5t132 539t-126 519t-332.5 165.5t-339 -184t-132.5 -540.5zM498 1556l280 297 l262 -276l-43 -41l-247 266l-238 -256z" />
<glyph unicode="&#xd5;" horiz-adv-x="1474" d="M102 682q0 373 181.5 566.5t466 193.5t453.5 -168t169 -536.5t-180 -557t-481 -188.5q-260 0 -426 149q-86 78 -134.5 216.5t-48.5 324.5zM272 696.5q0 -356.5 125 -520.5t333 -164t340 185.5t132 539t-126 519t-332.5 165.5t-339 -184t-132.5 -540.5zM399 1544 q10 61 54 111q14 16 47 22l49 11q35 6 127 -15.5t168 -38.5q78 -18 143.5 -18t86 17.5t32.5 64.5l18 -4q-23 -111 -84 -144q-25 -14 -45 -14t-41 2q-47 0 -105 17.5t-62.5 18.5t-9.5 2t-80.5 17.5t-153.5 16.5q-109 0 -127 -72z" />
<glyph unicode="&#xd6;" horiz-adv-x="1474" d="M102 682q0 373 181.5 566.5t466 193.5t453.5 -168t169 -536.5t-180 -557t-481 -188.5q-260 0 -426 149q-86 78 -134.5 216.5t-48.5 324.5zM272 696.5q0 -356.5 125 -520.5t333 -164t340 185.5t132 539t-126 519t-332.5 165.5t-339 -184t-132.5 -540.5zM426 1622 q0 37 24.5 62.5t61.5 25.5t62.5 -25.5t25.5 -62.5t-25.5 -61.5t-62.5 -24.5t-61.5 24.5t-24.5 61.5zM872 1622q0 37 25 62.5t61.5 25.5t62.5 -25.5t26 -62.5t-26 -61.5t-62.5 -24.5t-61.5 24.5t-25 61.5z" />
<glyph unicode="&#xd7;" horiz-adv-x="1294" d="M279 12l299 299l-295 295l127 127l295 -295l299 299l12 -12l-299 -299l301 -299l-127 -127l-301 299l-299 -299z" />
<glyph unicode="&#xd8;" horiz-adv-x="1474" d="M102 682q0 373 181.5 566.5t466 193.5t453.5 -168t169 -536.5t-180 -557t-481 -188.5q-260 0 -426 149q-86 78 -134.5 216.5t-48.5 324.5zM184 10l1039 1424l14 -11l-1038 -1423zM272 696.5q0 -356.5 125 -520.5t333 -164t340 185.5t132 539t-126 519t-332.5 165.5 t-339 -184t-132.5 -540.5z" />
<glyph unicode="&#xd9;" horiz-adv-x="1134" d="M61 614v820h170v-818q0 -373 113 -497q57 -61 119.5 -84t150.5 -23q197 0 315 144.5t118 459.5v818h26v-820q0 -322 -127 -472t-332 -150q-129 0 -219 23.5t-170 86.5q-164 127 -164 512zM414 1829l147 -4l94 -289h-26z" />
<glyph unicode="&#xda;" horiz-adv-x="1134" d="M61 614v820h170v-818q0 -373 113 -497q57 -61 119.5 -84t150.5 -23q197 0 315 144.5t118 459.5v818h26v-820q0 -322 -127 -472t-332 -150q-129 0 -219 23.5t-170 86.5q-164 127 -164 512zM618 1536l95 289l147 4l-215 -293h-27z" />
<glyph unicode="&#xdb;" horiz-adv-x="1134" d="M61 614v820h170v-818q0 -373 113 -497q57 -61 119.5 -84t150.5 -23q197 0 315 144.5t118 459.5v818h26v-820q0 -322 -127 -472t-332 -150q-129 0 -219 23.5t-170 86.5q-164 127 -164 512zM360 1559l281 296l262 -276l-43 -41l-248 266l-237 -256z" />
<glyph unicode="&#xdc;" horiz-adv-x="1134" d="M61 614v820h170v-818q0 -373 113 -497q57 -61 119.5 -84t150.5 -23q197 0 315 144.5t118 459.5v818h26v-820q0 -322 -127 -472t-332 -150q-129 0 -219 23.5t-170 86.5q-164 127 -164 512zM330 1622q0 37 24.5 62.5t61.5 25.5t62.5 -25.5t25.5 -62.5t-25.5 -61.5 t-62.5 -24.5t-61.5 24.5t-24.5 61.5zM776 1622q0 37 24.5 62.5t61.5 25.5t62.5 -25.5t25.5 -62.5t-25.5 -61.5t-62.5 -24.5t-61.5 24.5t-24.5 61.5z" />
<glyph unicode="&#xdd;" horiz-adv-x="1091" d="M61 1434h175l391 -924l356 719q23 51 23 106.5t-31 85.5l16 13q39 -39 39 -101q0 -51 -22 -104l-367 -744v-485h-170v440zM578 1536l94 289l147 4l-215 -293h-26z" />
<glyph unicode="&#xde;" horiz-adv-x="1171" d="M143 0v1434h170v-293l226 6h22q508 0 508 -359q0 -166 -86 -290q-45 -68 -139 -108t-228 -40h-303v-350h-170zM313 371h303q289 12 289 413q0 164 -86 253t-256 89q-119 0 -250 -14v-741z" />
<glyph unicode="&#xdf;" horiz-adv-x="1196" d="M61 1008v16h105v242q0 170 100 229q86 49 207 49t208 -68.5t87 -203.5q0 -238 -2 -443q0 -121 94 -184q115 -76 166 -119q106 -86 106.5 -243.5t-102 -224t-252.5 -66.5q-59 0 -148 20.5t-147 71.5l13 12q41 -39 122.5 -63.5t164.5 -24.5t145.5 63.5t62.5 209.5 q0 80 -40 134t-96 83.5t-114 58.5q-135 70 -135 197v520q0 256 -149 256q-51 0 -89 -59.5t-38 -198.5v-1272h-164v1008h-105z" />
<glyph unicode="&#xe0;" horiz-adv-x="1062" d="M72 275.5q0 25.5 8 56t47 67.5q78 74 342 90q66 6 121 6.5t100 -3.5v339q-4 2 0 19.5t-7 45.5t-29.5 54.5t-65.5 46t-123 19.5t-177.5 -27.5t-148.5 -54.5l-8 14q182 84 371 84q211 0 278 -76q53 -59 54 -125v-686q0 -59 23.5 -90.5t47.5 -34.5l23 -4h63v-16h-63 q-139 0 -191 53q-47 45 -47 78v43q-100 -182 -321 -182q-258 0 -293 233q-4 25 -4 50.5zM217 262q0 -16 2 -37q18 -217 182 -217q109 0 196 75t93 144v248q-55 4 -111.5 4t-111.5 -6q-156 -18 -203 -69.5t-47 -141.5zM283 1454l147 -4l94 -289h-26z" />
<glyph unicode="&#xe1;" horiz-adv-x="1062" d="M72 275.5q0 25.5 8 56t47 67.5q78 74 342 90q66 6 121 6.5t100 -3.5v339q-4 2 0 19.5t-7 45.5t-29.5 54.5t-65.5 46t-123 19.5t-177.5 -27.5t-148.5 -54.5l-8 14q182 84 371 84q211 0 278 -76q53 -59 54 -125v-686q0 -59 23.5 -90.5t47.5 -34.5l23 -4h63v-16h-63 q-139 0 -191 53q-47 45 -47 78v43q-100 -182 -321 -182q-258 0 -293 233q-4 25 -4 50.5zM217 262q0 -16 2 -37q18 -217 182 -217q109 0 196 75t93 144v248q-55 4 -111.5 4t-111.5 -6q-156 -18 -203 -69.5t-47 -141.5zM487 1161l95 289l147 4l-215 -293h-27z" />
<glyph unicode="&#xe2;" horiz-adv-x="1062" d="M72 275.5q0 25.5 8 56t47 67.5q78 74 342 90q66 6 121 6.5t100 -3.5v339q-4 2 0 19.5t-7 45.5t-29.5 54.5t-65.5 46t-123 19.5t-177.5 -27.5t-148.5 -54.5l-8 14q182 84 371 84q211 0 278 -76q53 -59 54 -125v-686q0 -59 23.5 -90.5t47.5 -34.5l23 -4h63v-16h-63 q-139 0 -191 53q-47 45 -47 78v43q-100 -182 -321 -182q-258 0 -293 233q-4 25 -4 50.5zM217 262q0 -16 2 -37q18 -217 182 -217q109 0 196 75t93 144v248q-55 4 -111.5 4t-111.5 -6q-156 -18 -203 -69.5t-47 -141.5zM229 1239l281 297l262 -276l-43 -41l-248 266l-237 -256 z" />
<glyph unicode="&#xe3;" horiz-adv-x="1112" d="M72 275.5q0 25.5 8 56t47 67.5q78 74 342 90q66 6 121 6.5t100 -3.5v339q-4 2 0 19.5t-7 45.5t-29.5 54.5t-65.5 46t-123 19.5t-177.5 -27.5t-148.5 -54.5l-8 14q182 84 371 84q211 0 278 -76q53 -59 54 -125v-686q0 -59 23.5 -90.5t47.5 -34.5l23 -4h63v-16h-63 q-139 0 -191 53q-47 45 -47 78v43q-100 -182 -321 -182q-258 0 -293 233q-4 25 -4 50.5zM131 1198q10 61 53 111q14 16 47 22l50 8q35 8 127 -13t165 -38q80 -18 145.5 -18t86 17.5t33.5 64.5l18 -4q-23 -111 -84 -144q-25 -14 -45 -14t-41 2q-47 0 -111 20 q-178 51 -294 51.5t-134 -71.5zM217 262q0 -16 2 -37q18 -217 182 -217q109 0 196 75t93 144v248q-55 4 -111.5 4t-111.5 -6q-156 -18 -203 -69.5t-47 -141.5z" />
<glyph unicode="&#xe4;" horiz-adv-x="1062" d="M72 275.5q0 25.5 8 56t47 67.5q78 74 342 90q66 6 121 6.5t100 -3.5v339q-4 2 0 19.5t-7 45.5t-29.5 54.5t-65.5 46t-123 19.5t-177.5 -27.5t-148.5 -54.5l-8 14q182 84 371 84q211 0 278 -76q53 -59 54 -125v-686q0 -59 23.5 -90.5t47.5 -34.5l23 -4h63v-16h-63 q-139 0 -191 53q-47 45 -47 78v43q-100 -182 -321 -182q-258 0 -293 233q-4 25 -4 50.5zM158 1315q0 37 24.5 62.5t61.5 25.5t62.5 -25.5t25.5 -62.5t-25.5 -61.5t-62.5 -24.5t-61.5 24.5t-24.5 61.5zM217 262q0 -16 2 -37q18 -217 182 -217q109 0 196 75t93 144v248 q-55 4 -111.5 4t-111.5 -6q-156 -18 -203 -69.5t-47 -141.5zM604 1315q0 37 24.5 62.5t61.5 25.5t62.5 -25.5t25.5 -62.5t-25.5 -61.5t-62.5 -24.5t-61.5 24.5t-24.5 61.5z" />
<glyph unicode="&#xe5;" horiz-adv-x="1062" d="M72 275.5q0 25.5 8 56t47 67.5q78 74 342 90q66 6 121 6.5t100 -3.5v339q-4 2 0 19.5t-7 45.5t-29.5 54.5t-65.5 46t-123 19.5t-177.5 -27.5t-148.5 -54.5l-8 14q182 84 371 84q211 0 278 -76q53 -59 54 -125v-686q0 -59 23.5 -90.5t47.5 -34.5l23 -4h63v-16h-63 q-139 0 -191 53q-47 45 -47 78v43q-100 -182 -321 -182q-258 0 -293 233q-4 25 -4 50.5zM217 262q0 -16 2 -37q18 -217 182 -217q109 0 196 75t93 144v248q-55 4 -111.5 4t-111.5 -6q-156 -18 -203 -69.5t-47 -141.5zM248 1350q0 84 70.5 135t175 51t172 -46t67.5 -131 t-69.5 -135t-174 -50t-173 46t-68.5 130zM371 1350.5q0 -72.5 33.5 -116.5t84 -44t86 48t35.5 121t-34.5 117t-85 44t-85 -48.5t-34.5 -121z" />
<glyph unicode="&#xe6;" horiz-adv-x="1527" d="M74 274.5q0 24.5 6 53t43 67.5q68 74 346 94q78 4 119 5v6q0 213 100 352q-4 47 -29 88q-47 76 -161 76q-201 0 -359 -82l-8 14q27 12 42 19.5t39 16.5t54.5 17.5t65.5 14.5q74 16 166 16q215 0 290 -84q119 84 283 84t278.5 -100.5t114.5 -296.5v-21h-731 q-6 -55 -6 -114q0 -254 89 -373t235 -119q205 0 364 62l6 -15q-164 -63 -370 -63q-250 0 -371 164q-39 -68 -115 -116t-176 -48q-289 0 -313 233q-2 25 -2 49.5zM217 268q0 -20 2 -43q25 -217 172 -217q96 0 171 49t110 113q-82 121 -84 309q-256 0 -330 -82 q-41 -45 -41 -129zM735 631h590q-2 196 -75.5 290.5t-190.5 94.5t-208 -102.5t-116 -282.5z" />
<glyph unicode="&#xe7;" horiz-adv-x="985" d="M82 494q0 256 135 397t344 141q117 0 216.5 -53t146.5 -162h-131q-31 100 -93.5 149.5t-138.5 49.5q-145 0 -242.5 -139.5t-97.5 -385t89 -364.5t235 -119q182 0 323 62l6 -15q-145 -63 -339.5 -63t-323.5 123t-129 379zM371 -373h58.5t37.5 7.5t29 17.5q33 31 32 104 v244h144v-258q0 -10 -8.5 -35.5t-24.5 -46.5q-43 -49 -143 -49h-125v16z" />
<glyph unicode="&#xe8;" horiz-adv-x="1021" d="M82 494q0 256 135 397t344 141q168 0 282.5 -100.5t114.5 -296.5v-21h-731q-6 -55 -6 -114q0 -254 89 -373t235 -119q205 0 364 62l6 -15q-164 -63 -369.5 -63t-334.5 123t-129 379zM229 631h590q-2 196 -75.5 290.5t-190.5 94.5t-208 -102.5t-116 -282.5zM311 1454 l148 -4l94 -289h-27z" />
<glyph unicode="&#xe9;" horiz-adv-x="1021" d="M82 494q0 256 135 397t344 141q168 0 282.5 -100.5t114.5 -296.5v-21h-731q-6 -55 -6 -114q0 -254 89 -373t235 -119q205 0 364 62l6 -15q-164 -63 -369.5 -63t-334.5 123t-129 379zM229 631h590q-2 196 -75.5 290.5t-190.5 94.5t-208 -102.5t-116 -282.5zM537 1161 l94 289l147 4l-215 -293h-26z" />
<glyph unicode="&#xea;" horiz-adv-x="1021" d="M82 494q0 256 135 397t344 141q168 0 282.5 -100.5t114.5 -296.5v-21h-731q-6 -55 -6 -114q0 -254 89 -373t235 -119q205 0 364 62l6 -15q-164 -63 -369.5 -63t-334.5 123t-129 379zM229 631h590q-2 196 -75.5 290.5t-190.5 94.5t-208 -102.5t-116 -282.5zM279 1239 l280 297l262 -276l-43 -41l-248 266l-237 -256z" />
<glyph unicode="&#xeb;" horiz-adv-x="1021" d="M82 494q0 256 135 397t344 141q168 0 282.5 -100.5t114.5 -296.5v-21h-731q-6 -55 -6 -114q0 -254 89 -373t235 -119q205 0 364 62l6 -15q-164 -63 -369.5 -63t-334.5 123t-129 379zM229 631h590q-2 196 -75.5 290.5t-190.5 94.5t-208 -102.5t-116 -282.5zM248 1315 q0 37 24.5 62.5t61.5 25.5t62.5 -25.5t25.5 -62.5t-25.5 -61.5t-62.5 -24.5t-61.5 24.5t-24.5 61.5zM694 1315q0 37 24.5 62.5t61.5 25.5t62.5 -25.5t25.5 -62.5t-25.5 -61.5t-62.5 -24.5t-61.5 24.5t-24.5 61.5z" />
<glyph unicode="&#xec;" horiz-adv-x="440" d="M0 1454l147 -4l95 -289h-27zM104 145v879h144v-879q0 -59 23.5 -90.5t47.5 -34.5l23 -4h64v-16h-125q-84 0 -128 37t-47 74z" />
<glyph unicode="&#xed;" horiz-adv-x="440" d="M104 145v879h144v-879q0 -59 23.5 -90.5t47.5 -34.5l23 -4h64v-16h-125q-84 0 -128 37t-47 74zM156 1161l94 289l147 4l-215 -293h-26z" />
<glyph unicode="&#xee;" horiz-adv-x="542" d="M0 1239l281 297l262 -276l-43 -41l-248 266l-238 -256zM186 145v879h144v-879q0 -59 23.5 -90.5t47.5 -34.5l23 -4h63v-16h-125q-84 0 -128 37t-46 74z" />
<glyph unicode="&#xef;" horiz-adv-x="708" d="M41 1315q0 37 24.5 62.5t61.5 25.5t62.5 -25.5t25.5 -62.5t-25.5 -61.5t-62.5 -24.5t-61.5 24.5t-24.5 61.5zM281 145v879h143v-879q0 -59 23.5 -90.5t48.5 -34.5l22 -4h64v-16h-125q-84 0 -128 37t-46 74zM487 1315q0 37 25 62.5t61.5 25.5t62.5 -25.5t26 -62.5 t-26 -61.5t-62.5 -24.5t-61.5 24.5t-25 61.5z" />
<glyph unicode="&#xf0;" horiz-adv-x="1140" d="M78 494q0 256 140 397t347 141t305 -162q-139 291 -366 506l-215 -110l-10 12l213 108q-74 68 -164 134l6 18q117 -57 209 -125l225 117l8 -14l-219 -113q246 -180 375 -426t129 -453q0 -250 -140.5 -391t-356.5 -141t-351 123t-135 379zM238 491.5q0 -245.5 89 -364.5 t234.5 -119t242.5 139.5t97 361.5t-79 364.5t-234.5 142.5t-252.5 -139.5t-97 -385z" />
<glyph unicode="&#xf1;" horiz-adv-x="1077" d="M82 0v1024h143v-233q35 88 129.5 164.5t207 76.5t183 -21.5t103.5 -60.5q51 -63 51 -164v-641q0 -59 23.5 -90.5t48.5 -34.5l22 -4h64v-16h-125q-84 0 -128 37t-46 74l-2 34v643q0 162 -84 207q-43 20 -107 21q-131 0 -235.5 -103.5t-104.5 -185.5v-727h-143zM180 1198 q10 61 53 111q14 16 48 22l49 8q35 8 127 -13t166 -38q80 -18 145.5 -18t85.5 17.5t33 64.5l18 -4q-23 -111 -84 -144q-25 -14 -45 -14t-41 2q-47 0 -105.5 17.5t-62.5 18.5t-9 2t-80.5 17.5t-153.5 16.5q-109 0 -127 -72z" />
<glyph unicode="&#xf2;" horiz-adv-x="1146" d="M82 494q0 256 140 397t356.5 141t351.5 -123t135 -379t-140.5 -397t-356.5 -141t-351 123t-135 379zM221 492.5q0 -246.5 94.5 -365.5t250 -119t258 138.5t102.5 385t-94.5 365.5t-250 119t-258 -138.5t-102.5 -385zM373 1454l147 -4l94 -289h-26z" />
<glyph unicode="&#xf3;" horiz-adv-x="1146" d="M82 494q0 256 140 397t356.5 141t351.5 -123t135 -379t-140.5 -397t-356.5 -141t-351 123t-135 379zM221 492.5q0 -246.5 94.5 -365.5t250 -119t258 138.5t102.5 385t-94.5 365.5t-250 119t-258 -138.5t-102.5 -385zM598 1161l94 289l148 4l-215 -293h-27z" />
<glyph unicode="&#xf4;" horiz-adv-x="1146" d="M82 494q0 256 140 397t356.5 141t351.5 -123t135 -379t-140.5 -397t-356.5 -141t-351 123t-135 379zM221 492.5q0 -246.5 94.5 -365.5t250 -119t258 138.5t102.5 385t-94.5 365.5t-250 119t-258 -138.5t-102.5 -385zM342 1239l281 297l262 -276l-43 -41l-248 266 l-238 -256z" />
<glyph unicode="&#xf5;" horiz-adv-x="1146" d="M82 494q0 256 140 397t356.5 141t351.5 -123t135 -379t-140.5 -397t-356.5 -141t-351 123t-135 379zM221 492.5q0 -246.5 94.5 -365.5t250 -119t258 138.5t102.5 385t-94.5 365.5t-250 119t-258 -138.5t-102.5 -385zM221 1198q10 61 53 111q14 16 48 22l49 8 q35 8 127 -13t166 -38q80 -18 145 -18t85.5 17.5t33.5 64.5l18 -4q-23 -111 -84 -144q-25 -14 -45 -14t-41 2q-47 0 -105.5 17.5t-62.5 18.5t-9 2t-80.5 17.5t-153.5 16.5q-109 0 -127 -72z" />
<glyph unicode="&#xf6;" horiz-adv-x="1146" d="M82 494q0 256 140 397t356.5 141t351.5 -123t135 -379t-140.5 -397t-356.5 -141t-351 123t-135 379zM221 492.5q0 -246.5 94.5 -365.5t250 -119t258 138.5t102.5 385t-94.5 365.5t-250 119t-258 -138.5t-102.5 -385zM268 1315q0 37 24.5 62.5t61.5 25.5t62.5 -25.5 t25.5 -62.5t-25.5 -61.5t-62.5 -24.5t-61.5 24.5t-24.5 61.5zM715 1315q0 37 24.5 62.5t61.5 25.5t62.5 -25.5t25.5 -62.5t-25.5 -61.5t-62.5 -24.5t-61.5 24.5t-24.5 61.5z" />
<glyph unicode="&#xf7;" horiz-adv-x="1572" d="M299 526v17h930v-17h-930zM684 215q0 37 24.5 62.5t61.5 25.5t62.5 -25.5t25.5 -62.5t-25.5 -61.5t-62.5 -24.5t-61.5 24.5t-24.5 61.5zM684 835.5q0 36.5 24.5 62.5t61.5 26t62.5 -26t25.5 -62.5t-25.5 -61t-62.5 -24.5t-61.5 24.5t-24.5 61z" />
<glyph unicode="&#xf8;" horiz-adv-x="1146" d="M82 494q0 256 140 397t356.5 141t351.5 -123t135 -379t-140.5 -397t-356.5 -141t-351 123t-135 379zM164 16l840 1008l14 -10l-840 -1010zM221 492.5q0 -246.5 94.5 -365.5t250 -119t258 138.5t102.5 385t-94.5 365.5t-250 119t-258 -138.5t-102.5 -385z" />
<glyph unicode="&#xf9;" horiz-adv-x="1077" d="M82 238v786h143v-788q0 -162 86 -207q41 -20 105 -21q129 0 230.5 98.5t109.5 182.5v735h143v-879q0 -59 23.5 -90.5t48.5 -34.5l22 -4h64v-16h-125q-84 0 -128 37t-46 74l-2 34v88q-37 -88 -131.5 -164.5t-206 -76.5t-182 21.5t-101.5 60.5q-53 63 -53 164zM270 1454 l148 -4l94 -289h-27z" />
<glyph unicode="&#xfa;" horiz-adv-x="1077" d="M82 238v786h143v-788q0 -162 86 -207q41 -20 105 -21q129 0 230.5 98.5t109.5 182.5v735h143v-879q0 -59 23.5 -90.5t48.5 -34.5l22 -4h64v-16h-125q-84 0 -128 37t-46 74l-2 34v88q-37 -88 -131.5 -164.5t-206 -76.5t-182 21.5t-101.5 60.5q-53 63 -53 164zM496 1161 l94 289l147 4l-215 -293h-26z" />
<glyph unicode="&#xfb;" horiz-adv-x="1077" d="M82 238v786h143v-788q0 -162 86 -207q41 -20 105 -21q129 0 230.5 98.5t109.5 182.5v735h143v-879q0 -59 23.5 -90.5t48.5 -34.5l22 -4h64v-16h-125q-84 0 -128 37t-46 74l-2 34v88q-37 -88 -131.5 -164.5t-206 -76.5t-182 21.5t-101.5 60.5q-53 63 -53 164zM238 1239 l280 297l262 -276l-43 -41l-248 266l-237 -256z" />
<glyph unicode="&#xfc;" horiz-adv-x="1077" d="M82 238v786h143v-788q0 -162 86 -207q41 -20 105 -21q129 0 230.5 98.5t109.5 182.5v735h143v-879q0 -59 23.5 -90.5t48.5 -34.5l22 -4h64v-16h-125q-84 0 -128 37t-46 74l-2 34v88q-37 -88 -131.5 -164.5t-206 -76.5t-182 21.5t-101.5 60.5q-53 63 -53 164zM186 1315 q0 37 25 62.5t61.5 25.5t62 -25.5t25.5 -62.5t-25.5 -61.5t-62 -24.5t-61.5 24.5t-25 61.5zM633 1315q0 37 24.5 62.5t61.5 25.5t62.5 -25.5t25.5 -62.5t-25.5 -61.5t-62.5 -24.5t-61.5 24.5t-24.5 61.5z" />
<glyph unicode="&#xfd;" horiz-adv-x="995" d="M72 -481q47 -12 84 -13q104 0 159 127l172 367h-2l-381 1024h144l317 -854l314 649q25 43 24.5 102.5t-33.5 90.5l13 12q8 -4 21.5 -24.5t16.5 -37t3 -30.5q0 -55 -25 -113l-393 -819l-172 -367q-66 -145 -162 -145q-43 0 -100 14v17zM557 1161l94 289l148 4l-215 -293 h-27z" />
<glyph unicode="&#xfe;" horiz-adv-x="1064" d="M82 -512v2048h143v-766q35 94 129.5 178t212.5 84q416 0 416 -487q0 -553 -537 -553q-96 0 -221 45v-549h-143zM225 55q125 -47 219 -47q395 0 396 539q-1 469 -275 469q-127 0 -229.5 -109.5t-110.5 -197.5v-654z" />
<glyph unicode="&#xff;" horiz-adv-x="995" d="M72 -481q47 -12 84 -13q104 0 159 127l172 367h-2l-381 1024h144l317 -854l314 649q25 43 24.5 102.5t-33.5 90.5l13 12q8 -4 21.5 -24.5t16.5 -37t3 -30.5q0 -55 -25 -113l-393 -819l-172 -367q-66 -145 -162 -145q-43 0 -100 14v17zM227 1315q0 37 24.5 62.5t61.5 25.5 t62.5 -25.5t25.5 -62.5t-25.5 -61.5t-62.5 -24.5t-61.5 24.5t-24.5 61.5zM674 1315q0 37 24.5 62.5t61.5 25.5t62.5 -25.5t25.5 -62.5t-25.5 -61.5t-62.5 -24.5t-61.5 24.5t-24.5 61.5z" />
<glyph unicode="&#x152;" horiz-adv-x="1570" d="M102 713q0 334 180.5 531.5t454.5 197.5q74 0 131 -8h586v-21h-461v-614h414v-21h-414v-758h506v-20h-657q-70 -8 -105 -8q-143 0 -251.5 32.5t-198.5 110.5q-184 162 -185 578zM272 717q0 -705 465 -705q39 0 86 11v1390q-39 8 -86 8q-201 0 -333 -188.5t-132 -515.5z " />
<glyph unicode="&#x153;" horiz-adv-x="61" />
<glyph unicode="&#x178;" horiz-adv-x="1107" d="M61 1434h175l391 -924l356 719q23 51 23 106.5t-31 85.5l16 13q47 -47 37 -131q-4 -35 -20 -74l-367 -744v-485h-170v440zM426 1724.5q0 36.5 24.5 62t61.5 25.5t62.5 -25.5t25.5 -62t-25.5 -61.5t-62.5 -25t-61.5 25t-24.5 61.5zM872 1724.5q0 36.5 25 62t61.5 25.5 t62.5 -25.5t26 -62t-26 -61.5t-62.5 -25t-61.5 25t-25 61.5z" />
<glyph unicode="&#x2c6;" horiz-adv-x="821" d="M135 1239l281 297l262 -276l-43 -41l-248 266l-237 -256z" />
<glyph unicode="&#x2dc;" horiz-adv-x="1228" d="M262 1198q10 61 53 111q14 16 47 22l50 8q35 8 127 -13t166 -38q80 -18 145 -18t85.5 17.5t33.5 64.5l18 -4q-23 -111 -84 -144q-25 -14 -45 -14t-41 2q-47 0 -105.5 17.5t-62.5 18.5t-9 2t-80.5 17.5t-153.5 16.5q-109 0 -127 -72z" />
<glyph unicode="&#x2000;" horiz-adv-x="950" />
<glyph unicode="&#x2001;" horiz-adv-x="1901" />
<glyph unicode="&#x2002;" horiz-adv-x="950" />
<glyph unicode="&#x2003;" horiz-adv-x="1901" />
<glyph unicode="&#x2004;" horiz-adv-x="633" />
<glyph unicode="&#x2005;" horiz-adv-x="475" />
<glyph unicode="&#x2006;" horiz-adv-x="316" />
<glyph unicode="&#x2007;" horiz-adv-x="316" />
<glyph unicode="&#x2008;" horiz-adv-x="237" />
<glyph unicode="&#x2009;" horiz-adv-x="380" />
<glyph unicode="&#x200a;" horiz-adv-x="105" />
<glyph unicode="&#x2010;" horiz-adv-x="819" d="M94 584v16h619v-16h-619z" />
<glyph unicode="&#x2011;" horiz-adv-x="819" d="M94 584v16h619v-16h-619z" />
<glyph unicode="&#x2012;" horiz-adv-x="819" d="M94 584v16h619v-16h-619z" />
<glyph unicode="&#x2013;" horiz-adv-x="1230" d="M164 526v17h930v-17h-930z" />
<glyph unicode="&#x2014;" horiz-adv-x="1435" d="M164 526v17h1134v-17h-1134z" />
<glyph unicode="&#x2018;" horiz-adv-x="532" d="M168 1460q0 27 23.5 51.5t58.5 24.5t59.5 -24.5t24.5 -58.5t-25.5 -58.5t-58.5 -24.5h-6l43 -293h-27q-92 356 -92 383z" />
<glyph unicode="&#x2019;" horiz-adv-x="532" d="M168 1453q0 34 24.5 58.5t59.5 24.5t58.5 -24.5t23.5 -51t-92 -383.5h-27l43 293h-6q-33 0 -58.5 24.5t-25.5 58.5z" />
<glyph unicode="&#x201a;" horiz-adv-x="532" d="M190 122q0 34 25 58.5t59.5 24.5t58 -24.5t23.5 -51.5t-92 -383h-26l43 293h-7q-33 0 -58.5 24.5t-25.5 58.5z" />
<glyph unicode="&#x201c;" horiz-adv-x="722" d="M168 1460q0 27 23.5 51.5t58.5 24.5t59.5 -24.5t24.5 -58.5t-25.5 -58.5t-58.5 -24.5h-6l43 -293h-27q-92 356 -92 383zM393 1460q0 27 23.5 51.5t58.5 24.5t59.5 -24.5t24.5 -58.5t-25.5 -58.5t-58.5 -24.5h-6l43 -293h-27q-92 356 -92 383z" />
<glyph unicode="&#x201d;" horiz-adv-x="722" d="M168 1453q0 34 24.5 58.5t59.5 24.5t58.5 -24.5t23.5 -51t-92 -383.5h-27l43 293h-6q-33 0 -58.5 24.5t-25.5 58.5zM393 1453q0 34 24.5 58.5t59.5 24.5t58.5 -24.5t23.5 -51t-92 -383.5h-27l43 293h-6q-33 0 -58.5 24.5t-25.5 58.5z" />
<glyph unicode="&#x201e;" horiz-adv-x="819" d="M168 122q0 34 24.5 58.5t59.5 24.5t58.5 -24.5t23.5 -51.5t-92 -383h-27l43 293h-6q-33 0 -58.5 24.5t-25.5 58.5zM393 122q0 34 24.5 58.5t59.5 24.5t58.5 -24.5t23.5 -51.5t-92 -383h-27l43 293h-6q-33 0 -58.5 24.5t-25.5 58.5z" />
<glyph unicode="&#x2022;" horiz-adv-x="970" d="M205 874.5q0 98.5 90 189.5t180 91t181.5 -92t91.5 -189.5t-91.5 -188.5t-181.5 -91t-180 91t-90 189.5z" />
<glyph unicode="&#x2026;" horiz-adv-x="675" d="M57 58.5q0 27.5 18.5 46t46.5 18.5t47 -19.5t19 -46t-19 -46t-46 -19.5t-46.5 19.5t-19.5 47zM283 58.5q0 27.5 18 46t46 18.5t47.5 -19.5t19.5 -46t-19.5 -46t-46 -19.5t-46 19.5t-19.5 47zM508 58.5q0 27.5 18.5 46t46 18.5t47 -19.5t19.5 -46t-19.5 -46t-46 -19.5 t-46 19.5t-19.5 47z" />
<glyph unicode="&#x202f;" horiz-adv-x="380" />
<glyph unicode="&#x2039;" horiz-adv-x="892" d="M205 530l500 289v-16l-367 -273l367 -272v-16z" />
<glyph unicode="&#x203a;" horiz-adv-x="892" d="M205 242v16l366 272l-366 273v16l500 -289z" />
<glyph unicode="&#x205f;" horiz-adv-x="475" />
<glyph unicode="&#x2122;" horiz-adv-x="1021" d="M143 1427v7h254v-7h-102v-409h-49v409h-103zM500 1018l51 416h18l125 -383l125 383h19l51 -416h-49l-41 332l-107 -332h-37l-108 328l-41 -328h-6z" />
<glyph unicode="&#x25fc;" horiz-adv-x="1024" d="M0 0v1024h1024v-1024h-1024z" />
</font>
</defs>
</svg>
