<?xml version="1.0" standalone="no"?>
<!DOCTYPE svg PUBLIC "-//W3C//DTD SVG 1.1//EN" "http://www.w3.org/Graphics/SVG/1.1/DTD/svg11.dtd" >
<svg xmlns="http://www.w3.org/2000/svg">
<metadata></metadata>
<defs>
<font id="sirinstencilregular" horiz-adv-x="1044" >
<font-face units-per-em="2048" ascent="1638" descent="-410" />
<missing-glyph horiz-adv-x="426" />
<glyph horiz-adv-x="0" />
<glyph unicode="&#xd;" horiz-adv-x="0" />
<glyph unicode=" "  horiz-adv-x="426" />
<glyph unicode="&#x09;" horiz-adv-x="426" />
<glyph unicode="&#xa0;" horiz-adv-x="426" />
<glyph unicode="!" horiz-adv-x="471" d="M143 32v159q0 43 21 68q27 31 66.5 56.5t63.5 25.5q34 0 34 -43v-160q0 -49 -21 -74q-27 -31 -64.5 -53t-64.5 -22q-35 0 -35 43zM143 524v750q0 42 21 67q28 33 64.5 57.5t64.5 24.5q35 0 35 -43v-749q0 -49 -21 -74q-27 -31 -64.5 -53.5t-64.5 -22.5q-35 0 -35 43z" />
<glyph unicode="&#x22;" horiz-adv-x="698" d="M133 1407q0 35 22 62q22 29 56.5 48t56.5 19q31 0 31 -37l-9 -291q0 -57 -22 -88q-51 -65 -89 -65q-29 0 -33 43zM399 1407q0 35 22 62q22 29 56.5 48t56.5 19q31 0 31 -37l-9 -291q0 -57 -22 -88q-51 -65 -89 -65q-29 0 -33 43z" />
<glyph unicode="#" horiz-adv-x="1401" d="M-41 502q0 30 59 30h227q26 0 26 -24q0 -39 -19.5 -67.5t-59.5 -28.5h-47q-62 0 -124 25t-62 65zM63 975q0 31 60 31h226q27 0 27 -25q0 -38 -20 -67t-60 -29h-46q-62 0 -124.5 25.5t-62.5 64.5zM221 26q0 6 2 16l62 265q6 28 24 36.5t58 8.5q67 0 67 -32q0 -3 -2 -13 l-39 -160q-13 -52 -56.5 -104.5t-82.5 -52.5q-15 0 -24 9.5t-9 26.5zM316 442q0 7 1 11l74 327q6 28 24.5 36.5t57.5 8.5q36 0 52 -6.5t16 -23.5q0 -3 -25.5 -116.5t-25.5 -117.5q0 -29 36 -29l196 3q27 0 27 -25q0 -39 -19.5 -68.5t-60.5 -29.5h-317q-36 0 -36 30zM423 915 q0 7 1 11l78 340q12 52 56.5 104.5t84.5 52.5q31 0 31 -43q0 -21 -37.5 -178t-37.5 -164q0 -30 36 -30h196q26 0 26 -25q0 -39 -19.5 -68.5t-60.5 -29.5h-318q-36 0 -36 30zM701 25q0 5 2 15l61 267q6 28 24.5 36.5t57.5 8.5q35 0 51 -7t16 -24q0 -4 -2 -14l-39 -160 q-13 -52 -56.5 -104.5t-82.5 -52.5q-14 0 -23 9.5t-9 25.5zM795 439q0 4 2 14l73 327q6 27 24.5 36t57.5 9q36 0 52 -6.5t16 -23.5l-49 -217q-1 -4 -1 -11q0 -30 36 -30h112q60 0 122.5 -26t62.5 -65q0 -34 -64 -34h-412q-32 0 -32 27zM901 912q0 14 80 354 q12 52 56.5 104.5t84.5 52.5q31 0 31 -43q0 -15 -37.5 -167.5t-37.5 -172.5q0 -30 36 -30h103q60 0 122 -26t62 -64q0 -35 -64 -35h-403q-33 0 -33 27z" />
<glyph unicode="$" horiz-adv-x="1009" d="M72 1118q0 19 14 44t33.5 49.5t52.5 57t52.5 47t43.5 30.5q32 22 49 22q19 0 19 -53q0 -21 -0.5 -34.5t-3 -22.5t-7 -14t-12.5 -9q-17 -8 -38.5 -21t-67.5 -45t-64.5 -45t-31.5 -21.5t-16 -8.5q-23 0 -23 24zM89 921q0 43 15.5 75.5t55.5 64.5q52 41 89 41q18 0 27 -7.5 t9 -31.5v-18q0 -72 15.5 -114.5t45.5 -67t74.5 -37t102.5 -23.5q95 -19 163 -47.5t114 -63.5t73 -76t41.5 -84t18.5 -86.5t4 -85.5q0 -74 -23 -132t-58 -101.5t-76.5 -73t-78.5 -45.5q-17 -8 -33.5 -17.5t-30 -24t-22 -34.5t-8.5 -48v-73q0 -27 -14.5 -49.5t-36.5 -39 t-47.5 -26t-46.5 -9.5q-35 0 -35 43v106q0 36 10.5 54t35.5 32l48 24q78 39 125 104q27 36 46 67.5t31 60t17.5 57t5.5 58.5q0 54 -9 105t-39 93t-87 73t-153 46q-84 13 -144 33.5t-101 46.5t-65.5 55.5t-37.5 60t-17 60t-4 55.5zM91 133q0 25 16.5 45t39 34t46 22t37.5 8 q17 0 41 -13.5t48 -30t44.5 -32.5t31.5 -20q30 -13 69 -13q47 0 81 16.5t48 16.5q25 0 25 -31q0 -14 -16.5 -41.5t-49.5 -55.5t-83 -48.5t-118 -20.5q-126 0 -225 99q-35 35 -35 65zM396 1311v214q0 28 14.5 51t36 39.5t47 25.5t47.5 9q35 0 35 -43v-134q0 -24 7 -32.5 t25 -10.5q40 -5 81 -15t74 -24t54 -33t21 -43q0 -17 -13.5 -36t-33.5 -35t-43.5 -26t-44.5 -10q-11 0 -23.5 2.5t-21.5 6.5l-51 20q-42 16 -86.5 23.5t-89.5 7.5q-18 0 -26.5 9.5t-8.5 33.5z" />
<glyph unicode="%" horiz-adv-x="1781" d="M100 1012q0 44 6 76t18.5 55t31 38.5t43.5 27.5q43 20 67 20q18 0 18 -24q0 -6 -4 -16.5t-8.5 -27.5t-9 -45.5t-4.5 -74.5q0 -81 10 -134.5t31.5 -84.5t53 -43.5t74.5 -12.5q16 0 33 2t30.5 4t22.5 4t11 2q16 0 16 -16t-10.5 -36.5t-31 -39t-49.5 -31t-65 -12.5 q-284 0 -284 369zM128 1241q0 16 35 63q58 70 132.5 100t140.5 30q161 0 253.5 -105.5t92.5 -284.5q0 -150 -56 -254q-33 -63 -79.5 -95t-81.5 -32q-15 0 -15 15q0 4 4.5 12t13.5 24.5t17 34.5q18 42 27.5 112t9.5 122q0 328 -231 328q-121 0 -213 -64q-27 -18 -37 -18 q-13 0 -13 12zM310 -8q0 15 29 51l996 1317q26 35 73 54.5t99 19.5q11 0 18 -6t7 -15q0 -12 -15 -33l-1010 -1337q-58 -74 -172 -74q-9 0 -17 5.5t-8 17.5zM1064 338q0 47 11.5 91.5t27.5 64.5q19 23 61 42t66 19q19 0 19 -20q0 -4 -6.5 -27.5t-13.5 -60.5t-7 -76 q0 -65 6.5 -110.5t24 -86.5t52.5 -61.5t87 -20.5q32 0 62.5 6t33.5 6q17 0 17 -16q0 -34 -42.5 -76.5t-113.5 -42.5q-285 0 -285 369zM1093 567q0 17 35 64q58 69 132.5 99t139.5 30q160 0 253 -105t93 -284q0 -152 -55 -254q-33 -63 -80 -95t-82 -32q-14 0 -14 14 q0 4 4.5 12.5t13.5 25t17 34.5q18 41 27.5 112t9.5 121q0 328 -232 328q-122 0 -213 -64q-25 -18 -37 -18t-12 12z" />
<glyph unicode="&#x26;" horiz-adv-x="1514" d="M45 1118q0 16 19 49t36 54q91 110 206.5 161.5t290.5 51.5q55 0 118 -13.5t111.5 -42t48.5 -63.5q0 -39 -51.5 -78t-89.5 -39q-24 0 -65 18t-92.5 36t-100.5 18q-105 0 -181.5 -31t-159.5 -100q-54 -45 -68 -45q-22 0 -22 24zM49 342q0 147 65 252q37 59 88 59 q37 0 76 -16.5t39 -42.5q0 -17 -18 -53q-38 -76 -38 -152q0 -130 72.5 -193t224.5 -63q58 0 118.5 19t89 34t70.5 41q21 12 31 12q21 0 21 -45q0 -60 -32 -90q-61 -58 -152.5 -96.5t-208.5 -38.5q-104 0 -185 23t-129 59t-79 86.5t-42 100t-11 104.5zM67 924q0 30 9 57 q14 43 61 82t84 39q18 0 27.5 -7.5t9.5 -31.5q0 -61 12 -101t37.5 -68t74 -43t113 -21t163.5 -6h205q22 0 22 -33v-57q0 -25 -11 -39t-42 -14h-348q-103 0 -180 14.5t-121.5 37.5t-71.5 56.5t-35.5 65t-8.5 69.5zM937 387v187q0 22 9.5 33.5t24 16.5t30 5h27.5 q18 0 34.5 -1.5t28.5 -7t19 -16.5t7 -30v-150q0 -86 10 -145.5t29.5 -96.5t49 -53t69.5 -16q47 0 78.5 11.5t52.5 25t35 25t28 11.5q13 0 19 -7.5t6 -19.5q0 -17 -13.5 -48.5t-45.5 -63t-84.5 -55t-131.5 -23.5q-77 0 -130.5 22t-87.5 71.5t-49 129t-15 195.5zM937 734v290 q0 55 49 90.5t96 35.5q35 0 35 -43v-230q0 -31 14 -42t39 -11h268q35 0 35 -23q0 -24 -33.5 -60t-66.5 -48q-32 -12 -115 -12h-268q-25 0 -39 11t-14 42z" />
<glyph unicode="'" horiz-adv-x="446" d="M133 1407q0 35 23 62q24 29 61.5 48t61.5 19q34 0 34 -37l-10 -291q0 -58 -24 -88q-55 -65 -97 -65q-31 0 -35 43z" />
<glyph unicode="(" horiz-adv-x="803" d="M195 466q0 148 24.5 285t63.5 256t89.5 216.5t101.5 167t99.5 107.5t84.5 38q22 0 22 -20q0 -10 -10 -28.5t-30 -50.5q-50 -81 -88.5 -190t-64.5 -235.5t-39.5 -265.5t-13.5 -278q0 -140 13.5 -278.5t39.5 -265.5t64.5 -236t88.5 -189q20 -32 30 -51.5t10 -31.5 q0 -20 -22 -20q-34 0 -81 36.5t-98.5 104.5t-102 164t-91 215t-65.5 258t-25 292z" />
<glyph unicode=")" horiz-adv-x="803" d="M123 -584q0 10 10 28.5t30 50.5q49 80 87.5 189t64.5 236t40 266t14 278t-14 278t-40 266t-64.5 236t-87.5 189q-20 32 -30 51.5t-10 31.5q0 20 22 20q33 0 80.5 -37t99 -105t102 -164.5t91 -215t65.5 -257.5t25 -291q0 -148 -24.5 -285t-63.5 -256t-89.5 -216.5 t-101.5 -167t-99.5 -107.5t-84.5 -38q-22 0 -22 20z" />
<glyph unicode="*" horiz-adv-x="1071" d="M165 1229q0 42 19.5 72.5t39.5 30.5q9 0 251 -95l4 4q-16 245 -16 249q0 27 16 36.5t56 9.5q42 0 58.5 -10t16.5 -38l-14 -249l4 -2q246 95 253 95q22 0 37.5 -32.5t15.5 -71.5q0 -33 -36 -42l-235 -60v-6l153 -186q15 -18 15 -36q0 -20 -38 -48.5t-60 -28.5t-37 23 l-131 207h-5l-126 -205q-20 -26 -39 -26q-24 0 -60 29.5t-36 49.5q0 16 14 33l155 188l-2 4l-235 62q-38 10 -38 43z" />
<glyph unicode="+" horiz-adv-x="1434" d="M164 584q0 11 19 38.5t48 53.5q23 20 74 20h231q28 0 38.5 -15.5t10.5 -53.5q0 -41 -10.5 -57.5t-38.5 -16.5h-329q-43 0 -43 31zM645 74v369q0 29 15.5 39.5t54.5 10.5q41 0 57 -10.5t16 -39.5v-271q0 -51 -20 -74q-60 -67 -98 -67q-25 0 -25 43zM645 590v446 q0 52 21 74q26 29 53 48.5t39 19.5q30 0 30 -43v-402q0 -22 9 -29.5t25 -7.5h405q43 0 43 -30q0 -12 -19.5 -39.5t-48.5 -53.5q-22 -20 -74 -20h-449q-10 0 -16.5 2t-12 11t-5.5 24z" />
<glyph unicode="," horiz-adv-x="596" d="M133 -249q0 7 20 79l95 338q14 47 31 68q24 30 72.5 55.5t77.5 25.5q34 0 34 -34q0 -14 -152 -410q-27 -63 -66 -107.5t-77 -44.5q-35 0 -35 30z" />
<glyph unicode="-" d="M164 563q0 13 19.5 45.5t47.5 57.5q23 20 74 20h533q43 0 43 -31q0 -12 -20 -44.5t-48 -57.5q-23 -21 -74 -21h-532q-43 0 -43 31z" />
<glyph unicode="." horiz-adv-x="467" d="M133 33v135q0 42 21 68q26 30 71 55.5t74 25.5q35 0 35 -43v-135q0 -49 -21 -73q-25 -30 -70.5 -53t-74.5 -23q-35 0 -35 43z" />
<glyph unicode="/" horiz-adv-x="796" d="M-100 10q0 14 23 56l750 1370q38 72 118 90q48 10 78 10q27 0 27 -25q0 -15 -15 -41l-776 -1407q-17 -32 -72 -52.5t-108 -20.5q-25 0 -25 20z" />
<glyph unicode="0" horiz-adv-x="1212" d="M102 616q0 115 14 217t36 143q28 52 80 85t87 33q31 0 31 -37q0 -3 -5 -25.5t-12 -62t-14 -91t-12 -125.5t-5 -151q0 -94 13.5 -173t44 -148.5t87 -109t135.5 -39.5q52 0 88 13t54.5 25.5t28.5 12.5q22 0 22 -25q0 -57 -73 -123t-185 -66q-415 0 -415 647zM141 1114 q0 32 43 90q171 230 426 230q107 0 185.5 -27.5t134 -76t90.5 -114.5t55 -142.5t27.5 -160.5t7.5 -168q0 -86 -6.5 -181.5t-27 -186.5t-59.5 -171t-103 -137q-61 -53 -103 -53q-20 0 -20 23q0 10 14 27t29 49q75 163 75 534q0 135 -15.5 248t-57 195t-115.5 128.5t-191 49.5 q-78 0 -153.5 -33t-147.5 -100q-23 -22 -39 -32.5t-28 -10.5q-21 0 -21 20z" />
<glyph unicode="1" horiz-adv-x="665" d="M0 914q0 16 15 31l235 232q30 29 43 29q15 0 20 -17t5 -69q0 -92 -39 -131l-49 -49q-33 -33 -63 -45.5t-76 -12.5q-44 0 -67.5 6t-23.5 26zM378 33v1241q0 42 21 67q28 33 64.5 57.5t64.5 24.5q35 0 35 -43v-1241q0 -49 -21 -73q-27 -31 -64.5 -53.5t-64.5 -22.5 q-35 0 -35 43z" />
<glyph unicode="2" horiz-adv-x="1034" d="M101 55q0 63 14.5 96t57.5 33h716q43 0 43 -30q0 -15 -22.5 -62t-49.5 -72q-22 -20 -74 -20h-643q-42 0 -42 55zM107 1133q0 25 23 71q49 83 119.5 137t136.5 73.5t134 19.5q170 0 270 -94.5t100 -264.5q0 -63 -26.5 -127t-70.5 -120t-97.5 -111t-111 -108.5t-108 -103 t-91.5 -103.5t-58 -103q-14 -41 -35 -53t-67 -12q-83 0 -83 38q0 10 22.5 59t81 127t116.5 136t119 120t107 113t75.5 110.5t29.5 117.5q0 116 -54 165.5t-184 49.5q-57 0 -129 -26t-142 -91q-45 -40 -58 -40q-19 0 -19 20z" />
<glyph unicode="3" horiz-adv-x="1047" d="M101 1249q0 24 24.5 65t54.5 68q23 21 74 21h620q44 0 44 -37q0 -21 -35 -68l-37 -47q-26 -32 -77 -32h-625q-43 0 -43 30zM102 113q0 23 23 47q63 63 113 63q29 0 73 -35q74 -62 144 -62q36 0 74.5 16t45.5 16q25 0 25 -29q0 -12 -7 -30t-26 -41t-46 -42.5t-73 -33 t-102 -13.5q-121 0 -213 82q-31 27 -31 62zM303 760q0 14 20 41l235 317q27 37 131 37q30 0 42 -11t9.5 -23t-10.5 -23l-150 -196q-14 -18 -14 -31q0 -21 48 -33q150 -35 243 -146t93 -284q0 -78 -31.5 -153t-77.5 -126t-97 -82t-91 -31q-22 0 -22 19q0 6 3.5 13t7.5 14 t14 21.5t18 27.5q68 110 68 270q0 354 -406 354q-33 0 -33 25z" />
<glyph unicode="4" horiz-adv-x="976" d="M0 355q0 25 29 66q35 49 67 68.5t69 19.5h368q33 0 44.5 -19t11.5 -68q0 -51 -12 -78t-44 -27h-469q-64 0 -64 38zM156 601q0 20 41 81l333 495q20 29 34 29q25 0 25 -106t-33 -156l-182 -273q-36 -54 -68 -78t-90 -24q-60 0 -60 32zM649 33v170q0 33 22.5 43.5 t69.5 10.5q52 0 72.5 -10.5t20.5 -43.5v-64q0 -49 -21 -73q-27 -31 -64.5 -53.5t-64.5 -22.5q-35 0 -35 43zM649 368v906q0 42 21 67q28 33 64.5 57.5t64.5 24.5q35 0 35 -43v-813q0 -58 58 -58h137q47 0 47 -30q0 -39 -56.5 -100.5t-104.5 -61.5h-219q-47 0 -47 51z" />
<glyph unicode="5" horiz-adv-x="1028" d="M102 113q0 20 25 47q63 63 113 63q33 0 73 -35q75 -61 144 -61q36 0 69.5 15.5t40.5 15.5q25 0 25 -29q0 -12 -6 -30t-23.5 -41.5t-43 -42.5t-70.5 -32.5t-101 -13.5q-118 0 -213 82q-33 32 -33 62zM152 751v347q0 59 81 59q42 0 62 -11.5t20 -47.5v-188q0 -33 14.5 -43 t37.5 -10q17 0 50.5 1t43.5 1q103 0 185.5 -24.5t146.5 -76t98.5 -138.5t34.5 -204q0 -84 -30.5 -161.5t-76 -128t-95 -80.5t-89.5 -30q-10 0 -16.5 5.5t-6.5 13.5q0 7 5.5 16t17 26t20.5 34q70 134 70 270q0 164 -86 247.5t-272 83.5q-34 0 -91.5 -8.5t-72.5 -8.5 q-51 0 -51 56zM152 1247q0 20 23 66t48 69q23 21 74 21h518q43 0 43 -35q0 -28 -24.5 -64.5t-57.5 -64.5q-25 -20 -67 -20h-514q-23 0 -33 6t-10 22z" />
<glyph unicode="6" horiz-adv-x="1100" d="M102 644q0 82 15 176.5t33 129.5q26 51 84 98.5t94 47.5q28 0 28 -31q0 -11 -16.5 -94t-16.5 -115q0 -35 29 -35q16 0 39 10q42 18 102 29.5t95 11.5q210 0 313 -114t103 -330q0 -121 -59 -238q-42 -83 -108.5 -136.5t-113.5 -53.5q-23 0 -23 20q0 8 5.5 17t17 25 t34 60.5t35 107.5t12.5 155q0 64 -15 119t-49 104t-98 77t-153 28q-166 0 -317 -111q-20 -15 -38 -15q-32 0 -32 57zM117 419q0 62 52.5 111.5t102.5 49.5q35 0 35 -45q0 -55 2.5 -98t10 -92t22.5 -84.5t37 -66t57 -46t80 -15.5q48 0 98.5 18.5t61.5 18.5q22 0 22 -23 q0 -24 -17 -53.5t-47.5 -58t-82 -47.5t-113.5 -19q-78 0 -137 30.5t-93 76t-55.5 108.5t-28.5 119t-7 116zM147 1100q0 16 17.5 48t70 98.5t156 127t262.5 60.5q113 0 217 -51q64 -30 64 -66q0 -39 -51.5 -79t-89.5 -40q-27 0 -65 18t-88.5 36t-107.5 18q-45 0 -80 -8 t-73 -31t-57 -38t-78 -66.5t-74 -51.5q-23 0 -23 25z" />
<glyph unicode="7" horiz-adv-x="803" d="M-41 1249q0 15 22.5 61.5t49.5 71.5q22 21 73 21h618q29 0 42 -9.5t13 -33.5q0 -21 -5 -42q-13 -56 -36 -77.5t-65 -21.5h-669q-43 0 -43 30zM226 13q0 7 5 24l310 1081q7 24 22.5 30.5t67.5 6.5q62 0 75 -10t2 -48l-270 -919q-11 -40 -24 -65t-40 -53q-69 -70 -123 -70 q-25 0 -25 23z" />
<glyph unicode="8" horiz-adv-x="1087" d="M102 223q0 48 19.5 103t51 109t71.5 101t82 79q31 23 52 23q13 0 25.5 -7t22.5 -17.5t16.5 -23.5t6.5 -24q0 -18 -26 -53l-50 -62q-33 -41 -51.5 -84.5t-18.5 -94.5q0 -29 11.5 -54t35.5 -44t60.5 -30t87.5 -11q27 0 59.5 6.5t61.5 14.5t48 14.5l19 6.5q23 0 23 -24 q0 -28 -20 -60t-56 -59t-87 -45t-112 -18q-73 0 -126 13.5t-90 35t-60 49t-35.5 56t-16.5 55t-4 45.5zM114 1116q0 29 19 71t45 77q69 93 160 131.5t208 38.5q78 0 144 -16.5t119.5 -51t84 -95t30.5 -141.5q0 -172 -231 -359q-32 -26 -32 -44q1 -17 26 -40q14 -13 61 -54.5 t68.5 -62.5t59 -62t56 -71.5t33.5 -72t15 -81.5q0 -64 -25.5 -119.5t-63 -89t-77 -52.5t-70.5 -19q-21 0 -21 19q0 5 15.5 31.5t31 65.5t15.5 74q0 36 -7.5 70.5t-18 62.5t-32.5 60t-38.5 53.5t-50 55t-53 51.5t-61 55t-61.5 56q-26 23 -26 49q0 25 32 50q111 84 166 138.5 t73.5 97.5t18.5 102q0 88 -72 132t-186 44q-176 0 -271 -111q-10 -12 -23.5 -32.5t-22 -28.5t-19.5 -8q-19 0 -19 26zM177 1000q0 31 28.5 67t55.5 36q16 0 25 -8.5t29.5 -34.5t46.5 -50q30 -28 67.5 -55.5t50 -41t12.5 -32.5q0 -30 -45.5 -66.5t-72.5 -36.5q-33 0 -66 31 q-81 79 -106 119t-25 72z" />
<glyph unicode="9" horiz-adv-x="1108" d="M98 887q0 92 65 147q61 53 94 53q35 0 35 -40q0 -76 9 -131.5t31.5 -102.5t65.5 -71.5t107 -24.5q35 0 86 14t93 35q32 16 36 16q19 0 19 -48q0 -26 -5.5 -44t-11 -25t-17.5 -18q-53 -49 -130 -80.5t-148 -31.5q-70 0 -127 21t-94 56t-62 81.5t-35.5 94.5t-10.5 99z M104 1116q0 26 36 84q67 104 174.5 169t235.5 65q87 0 156.5 -23.5t116 -61t80.5 -97t52.5 -118t29 -138t13.5 -143.5t3 -147q0 -337 -85 -499q-44 -85 -103 -138t-102 -53q-21 0 -21 23q0 7 6 16t17 25t20 35q67 145 67 522q0 65 -1.5 115.5t-5.5 107t-11.5 99.5t-20 87.5 t-29.5 76.5t-42 61t-56 47t-72 28.5t-90 10.5q-68 0 -133.5 -26t-146.5 -107q-43 -43 -66 -43q-22 0 -22 22zM158 113q0 25 22 47q63 63 113 63q32 0 74 -35q74 -61 143 -61q36 0 77 15.5t49 15.5q24 0 24 -29q0 -12 -7.5 -30t-27 -41t-47.5 -42.5t-74.5 -33t-102.5 -13.5 q-123 0 -213 82q-30 26 -30 62z" />
<glyph unicode=":" horiz-adv-x="467" d="M133 33v135q0 42 21 68q26 30 71 55.5t74 25.5q35 0 35 -43v-135q0 -49 -21 -73q-25 -30 -70.5 -53t-74.5 -23q-35 0 -35 43zM133 770v135q0 42 21 68q26 30 71 55.5t74 25.5q35 0 35 -43v-135q0 -49 -21 -73q-25 -30 -70.5 -53t-74.5 -23q-35 0 -35 43z" />
<glyph unicode=";" horiz-adv-x="612" d="M133 -249q0 7 20 79l95 338q14 47 31 68q24 30 72.5 55.5t77.5 25.5q34 0 34 -34q0 -14 -14 -50l-138 -360q-27 -63 -66 -107.5t-77 -44.5q-35 0 -35 30zM274 770v135q0 42 21 68q26 30 71 55.5t74 25.5q35 0 35 -43v-135q0 -49 -21 -73q-25 -30 -70.5 -53t-74.5 -23 q-35 0 -35 43z" />
<glyph unicode="&#x3c;" horiz-adv-x="1434" d="M164 563q0 37 48 77t93 58l920 373q9 3 17 3q28 0 28 -27q0 -22 -31 -72q-35 -56 -104 -82l-889 -342q-36 -14 -56 -14q-26 0 -26 26zM279 473q0 24 47.5 43t87.5 19q20 0 45 -9l774 -284q37 -15 37 -37q0 -28 -31 -52t-60 -24q-18 0 -44 8l-822 305q-34 12 -34 31z" />
<glyph unicode="=" horiz-adv-x="1434" d="M164 371q0 23 63 80q23 20 78 20h922q43 0 43 -31q0 -22 -64 -80q-22 -20 -78 -20h-921q-43 0 -43 31zM164 780q0 23 63 80q23 21 78 21h922q43 0 43 -31q0 -22 -64 -80q-22 -20 -78 -20h-921q-43 0 -43 30z" />
<glyph unicode="&#x3e;" horiz-adv-x="1434" d="M164 207q0 5 2.5 9.5t5.5 7t8.5 6t8.5 5t10 4.5t8 3l778 278q24 9 45 9q40 0 87.5 -19t47.5 -43q0 -19 -35 -31l-768 -276q-4 -1 -20.5 -7t-32.5 -10t-28 -4q-39 0 -78 23t-39 45zM164 1044q0 29 22 29q15 0 39 -10l924 -371q46 -17 68 -35q25 -21 39 -51.5t14 -48.5 q0 -11 -6 -19t-15 -8q-13 0 -41 11l-913 352q-50 19 -72 37q-59 48 -59 114z" />
<glyph unicode="?" horiz-adv-x="877" d="M50 1081q0 28 10 58q47 141 155.5 218t241.5 77q174 0 279.5 -86t105.5 -252q0 -70 -27.5 -129t-67 -102t-79 -86.5t-67 -102.5t-27.5 -129q0 -49 -21 -74q-25 -30 -70.5 -53t-74.5 -23q-35 0 -35 43q0 71 20 135.5t50 109t64.5 91.5t64.5 86t50 89.5t20 103.5 q0 110 -66.5 165.5t-173.5 55.5q-79 0 -153.5 -43t-127.5 -127q-32 -55 -51 -55q-20 0 -20 30zM371 33v135q0 42 21 68q27 30 71.5 55.5t73.5 25.5q35 0 35 -43v-135q0 -49 -21 -73q-25 -30 -70.5 -53t-74.5 -23q-35 0 -35 43z" />
<glyph unicode="@" horiz-adv-x="2130" d="M133 432q0 249 47 338q27 52 79.5 84.5t88.5 32.5q31 0 31 -37q0 -9 -9.5 -61.5t-19.5 -139.5t-10 -180q0 -65 5 -123.5t22.5 -137t46.5 -142.5t83 -130t126.5 -110.5t181 -73t242.5 -28.5q75 0 138 13t98.5 25.5t43.5 12.5q22 0 22 -25q0 -23 -33 -55.5t-86 -62.5 t-130 -51t-155 -21q-131 0 -242.5 26.5t-193.5 73t-147 113t-107.5 141.5t-70 163.5t-39.5 175t-12 179.5zM176 909q0 29 43 88q44 63 99 120t137.5 116.5t176.5 102.5t219.5 70.5t262.5 27.5q144 0 275 -33t242 -101t192.5 -165.5t127.5 -234.5t46 -300q0 -299 -123.5 -467 t-364.5 -168q-134 0 -208 73t-74 242v617q0 37 16 55q23 27 55.5 44.5t59.5 17.5q31 0 31 -39v-662q0 -99 38 -153t113 -54q69 0 118.5 37t75.5 101.5t38 137t12 157.5q0 151 -37.5 273t-103.5 205t-159 139t-200 81t-231 25q-429 0 -789 -328q-51 -45 -67 -45q-21 0 -21 20 zM618 481q0 57 12.5 113.5t31.5 84.5q22 35 64.5 62.5t72.5 27.5q20 0 20 -27q0 -6 -7.5 -39t-15.5 -88.5t-8 -116.5q0 -172 53.5 -254t176.5 -82q64 0 131 39q9 6 16 6q15 0 15 -34q0 -44 -25 -65q-92 -75 -205 -75q-56 0 -100 9t-89.5 37.5t-75 76.5t-48.5 130.5 t-19 194.5zM664 788q0 18 24 58q110 168 321 168q73 0 129 -26q41 -18 41 -76q0 -80 -28 -80q-12 0 -32 13q-62 40 -151 40q-117 0 -245 -88q-35 -25 -45 -25q-14 0 -14 16z" />
<glyph unicode="A" horiz-adv-x="1047" d="M2 23q0 6 4 18l96 275q7 21 15 32.5t22.5 16.5t26 6t39.5 1q23 0 34 -0.5t25.5 -3.5t20.5 -10.5t6 -20.5q0 -9 -6 -29l-56 -169q-21 -64 -73 -106.5t-117 -42.5q-16 0 -26.5 8.5t-10.5 24.5zM152 465q0 9 4 20l205 613q14 39 32 39q16 0 28 -19.5t26 -62.5 q26 -81 26 -121q0 -28 -10 -59l-78 -238q-2 -5 -2 -14q0 -27 31 -27h104q51 0 69 -5t29 -28q10 -20 16.5 -51.5t6.5 -46.5q0 -33 -43 -33h-406q-38 0 -38 33zM432 1303q0 44 55.5 87.5t85.5 43.5q17 0 24.5 -8.5t16.5 -34.5l426 -1239q7 -32 7 -36q0 -43 -50 -84.5 t-88 -41.5q-33 0 -51 51l-416 1214q-10 45 -10 48z" />
<glyph unicode="B" horiz-adv-x="1155" d="M133 43v1078q0 36 24.5 48t75.5 12q56 0 78.5 -11.5t22.5 -48.5v-236q0 -41 41 -41h176q43 0 43 -27q0 -12 -22 -39t-54 -45q-35 -20 -143 -39q-41 -8 -41 -53v-436q0 -41 41 -41h215q43 0 43 -25q0 -21 -48 -54t-121.5 -59t-134.5 -26h-155q-41 0 -41 43zM133 1264 q0 42 57 89t115 50q65 3 168 3q42 0 76.5 -2t83 -10t85.5 -22t76.5 -41t65.5 -63.5t43 -92t17 -124.5q0 -148 -121 -244q-17 -13 -17 -23q0 -13 15 -18q134 -44 200 -131t66 -236q0 -55 -15.5 -109.5t-50 -107t-84 -93t-123.5 -65t-163 -24.5q-35 0 -35 19q0 13 16 21 q124 55 183 141t59 214q0 255 -250 295q-16 3 -16 17q0 13 24 30q53 39 86 101.5t33 138.5q0 68 -19.5 117.5t-50 77t-79 44t-93.5 21t-106 4.5h-207q-13 0 -20.5 1t-13 6.5t-5.5 15.5z" />
<glyph unicode="C" horiz-adv-x="1106" d="M102 623q0 113 14 204t34 130q25 50 78.5 87.5t97.5 37.5q30 0 30 -31q0 -15 -11 -66t-22.5 -135t-11.5 -178q0 -73 6 -133.5t20.5 -124t42 -111.5t67.5 -86.5t100 -59t137 -20.5q71 0 133 16t94.5 35.5t60 35.5t38.5 16q24 0 24 -25q0 -15 -12.5 -42t-44.5 -63 t-77.5 -67t-122.5 -52.5t-169 -21.5q-146 0 -246 44t-156.5 132t-80 203t-23.5 275zM147 1100q0 32 54 100q92 114 212.5 174t293.5 60q133 0 243 -54q19 -9 27.5 -13.5t22.5 -19.5t14 -32q0 -41 -74 -94q-30 -25 -68 -25q-9 0 -17 1.5t-18 5t-16 5.5t-19.5 8t-19.5 9 q-106 45 -196 45q-180 0 -350 -150l-15 -12t-15.5 -12.5t-13 -10t-13 -8t-9.5 -2.5q-23 0 -23 25z" />
<glyph unicode="D" horiz-adv-x="1231" d="M133 43v1077q0 36 24.5 48t75.5 12q56 0 78.5 -11.5t22.5 -48.5v-915q0 -41 41 -41h166q43 0 43 -25q0 -15 -30.5 -39t-75.5 -46t-102 -38t-104 -16h-98q-41 0 -41 43zM133 1264q0 22 16 45.5t41.5 43.5t57 34t61.5 16l80 2q159 0 296 -39.5t238 -125.5t158.5 -221 t57.5 -327q0 -91 -18.5 -178t-53.5 -164t-84.5 -141t-110.5 -110.5t-133 -72.5t-151 -26q-35 0 -35 23q0 18 22 28q85 39 151 91t111.5 124.5t69 169.5t23.5 226q0 128 -30.5 233t-100.5 181t-184 118.5t-281 45.5h-162q-39 0 -39 24z" />
<glyph unicode="E" horiz-adv-x="980" d="M133 1269q0 37 58.5 85.5t114.5 48.5h539q43 0 43 -31q0 -14 -20 -50.5t-48 -61.5q-23 -21 -73 -21h-574q-15 0 -22 1.5t-12.5 8.5t-5.5 20zM134 43v493q0 36 24.5 47.5t76.5 11.5q56 0 78 -11.5t22 -47.5v-331q0 -41 41 -41h489q43 0 43 -31q0 -14 -20 -51.5t-47 -61.5 q-23 -20 -74 -20h-598q-35 0 -35 43zM134 696v423q0 36 24.5 48t76.5 12q56 0 78 -11.5t22 -48.5v-259q0 -41 41 -41h407q43 0 43 -31q0 -14 -20 -50.5t-47 -61.5q-23 -21 -74 -21h-510q-41 0 -41 41z" />
<glyph unicode="F" horiz-adv-x="970" d="M133 1269q0 37 58.5 85.5t114.5 48.5h559q43 0 43 -31q0 -14 -20 -51t-47 -61q-23 -21 -74 -21h-594q-15 0 -22 1.5t-12.5 8.5t-5.5 20zM134 33v482q0 36 24.5 48t76.5 12q55 0 77.5 -12t22.5 -48v-376q0 -49 -21 -73q-25 -30 -70.5 -53t-74.5 -23q-35 0 -35 43zM134 676 v443q0 36 24.5 48t76.5 12q56 0 78 -11.5t22 -48.5v-279q0 -41 41 -41h407q43 0 43 -31q0 -14 -20 -51.5t-47 -61.5q-23 -20 -74 -20h-510q-41 0 -41 41z" />
<glyph unicode="G" horiz-adv-x="1253" d="M102 612q0 261 50 351q26 46 78 81t85 35q35 0 35 -37q0 -10 -10 -65.5t-20 -149t-10 -194.5q0 -87 11.5 -159.5t38.5 -136.5t68 -108.5t103.5 -70t142.5 -25.5q54 0 97.5 12.5t69.5 25.5t36 13q24 0 24 -26q0 -11 -9 -31.5t-32.5 -48t-56 -51.5t-86 -41t-117.5 -17 q-498 0 -498 643zM147 1100q0 17 18 48.5t36 51.5q106 117 235.5 175.5t306.5 58.5q121 0 230.5 -34.5t109.5 -84.5q0 -39 -51.5 -79t-89.5 -40q-28 0 -74 18.5t-110 37t-135 18.5q-103 0 -206 -41t-181 -109q-51 -45 -66 -45q-23 0 -23 25zM524 588q0 14 20 50.5t48 61.5 q23 21 74 21h438q37 0 50.5 -11.5t19.5 -43.5q8 -40 8 -119q0 -171 -52 -316q-35 -95 -94 -150.5t-104 -55.5q-19 0 -19 16q0 8 3 14t12.5 18t17.5 25q64 107 64 316q0 31 -0.5 48.5t-4 38t-9.5 31.5t-17.5 18t-28.5 7h-383q-43 0 -43 31z" />
<glyph unicode="H" horiz-adv-x="1251" d="M133 33v512q0 36 24.5 47.5t75.5 11.5q56 0 78.5 -11.5t22.5 -47.5v-406q0 -49 -21 -73q-25 -30 -70.5 -53t-74.5 -23q-35 0 -35 43zM133 705v569q0 42 21 67q26 31 71 56.5t74 25.5q35 0 35 -43v-511q0 -41 41 -41h427q33 0 44 -17.5t11 -62.5q0 -47 -11 -65.5 t-44 -18.5h-628q-41 0 -41 41zM917 33v1241q0 42 20 67q25 31 71 56.5t75 25.5q35 0 35 -43v-1241q0 -50 -20 -73q-25 -30 -71.5 -53t-75.5 -23q-34 0 -34 43z" />
<glyph unicode="I" horiz-adv-x="467" d="M133 33v1241q0 42 21 67q26 31 71 56.5t74 25.5q35 0 35 -43v-1241q0 -49 -21 -73q-25 -30 -70.5 -53t-74.5 -23q-35 0 -35 43z" />
<glyph unicode="J" horiz-adv-x="658" d="M-80 -28q0 33 35 75t69 42q16 0 25 -7t32 -32q23 -26 51 -26q22 0 51 13t40 13q25 0 25 -29q0 -15 -10.5 -40t-30.5 -53t-55.5 -48t-77.5 -20q-81 0 -137 63q-17 20 -17 49zM269 -89q0 6 17 35q38 65 38 174v1154q0 42 20 67q26 31 71.5 56.5t74.5 25.5q35 0 35 -43 v-1124q0 -161 -72.5 -264t-162.5 -103q-8 0 -14.5 6t-6.5 16z" />
<glyph unicode="K" horiz-adv-x="1108" d="M133 33v1241q0 42 21 67q26 31 71 56.5t74 25.5q35 0 35 -43v-1241q0 -49 -21 -73q-25 -30 -70.5 -53t-74.5 -23q-35 0 -35 43zM391 741q0 35 35 80l377 500q47 63 85.5 82.5t113.5 19.5q55 0 55 -30q0 -22 -29 -58l-399 -504q-29 -37 -29 -59q0 -21 30 -61l398 -531 q21 -29 21 -53q0 -28 -17 -57q-50 -80 -106 -80q-25 0 -54 41l-460 657q-21 29 -21 53z" />
<glyph unicode="L" horiz-adv-x="935" d="M133 43v78q0 43 41 43h678q43 0 43 -31q0 -14 -20.5 -51t-47.5 -62q-22 -20 -73 -20h-580q-41 0 -41 43zM133 273v1001q0 42 21 67q26 31 71 56.5t74 25.5q35 0 35 -43v-1107q0 -36 -24.5 -47.5t-75.5 -11.5q-56 0 -78.5 11.5t-22.5 47.5z" />
<glyph unicode="M" horiz-adv-x="1532" d="M133 1317q0 24 19 45q23 28 61 44.5t59 16.5q22 0 34.5 -10t23.5 -37l338 -909q18 -49 18 -80q0 -25 -12 -60q-24 -61 -47 -96q-21 -33 -45 -33q-12 0 -22 10t-21 37l-398 1035q-8 19 -8 37zM135 33v947q0 12 6 19.5t15 7.5q15 0 30.5 -30t55.5 -128q42 -105 51 -149 q10 -42 10 -107v-460q0 -48 -20 -74q-24 -28 -61 -48.5t-52 -20.5q-35 0 -35 43zM623 18q0 12 10 35l409 1084q18 37 29 42q6 3 12 3q23 0 29 -39q6 -35 6 -162q0 -79 -8.5 -138.5t-36.5 -129.5l-209 -543q-33 -82 -104 -131q-69 -49 -107 -49q-30 0 -30 28zM1178 33v1241 q0 42 20 67q26 31 72 56.5t74 25.5q35 0 35 -43v-1241q0 -49 -20 -73q-25 -30 -71.5 -53t-75.5 -23q-34 0 -34 43z" />
<glyph unicode="N" horiz-adv-x="1262" d="M133 1313q0 22 23 47q60 63 112 63q25 0 45 -32l542 -857q27 -42 33 -77.5t6 -114.5q0 -176 -37 -176q-13 0 -31 28q-3 3 -4 5l-677 1079q-12 19 -12 35zM135 33v1055q0 24 19 24q13 0 28.5 -18t50.5 -70q40 -60 60 -104q16 -37 16 -91v-690q0 -50 -20 -73 q-25 -30 -63.5 -53t-58.5 -23q-32 0 -32 43zM954 43v1251q0 59 50.5 94t89.5 35q34 0 34 -43v-1241q0 -50 -20 -73q-26 -30 -63.5 -53t-59.5 -23q-9 0 -14.5 2t-11 14.5t-5.5 36.5z" />
<glyph unicode="O" horiz-adv-x="1309" d="M102 637q0 247 50 342q28 52 80 84.5t87 32.5q31 0 31 -37q0 -9 -10 -62.5t-20 -141.5t-10 -181q0 -72 4.5 -131t15.5 -124t34 -113.5t57 -89t87 -62t121 -21.5q60 0 106 12.5t71 24.5t34 12q22 0 22 -24q0 -25 -19 -56t-53 -61.5t-92 -51t-125 -20.5q-135 0 -228 44.5 t-145.5 134.5t-75 208t-22.5 281zM147 1114q0 31 43 86q90 115 212 174.5t257 59.5q136 0 238.5 -41t171 -125.5t103 -214.5t34.5 -308q0 -135 -14 -241t-40.5 -188.5t-65 -143t-88.5 -103.5q-60 -53 -103 -53q-21 0 -21 25q0 8 15 27.5t29 46.5q80 151 80 458v128 t-9.5 150.5t-32.5 152.5t-70 134t-122.5 95.5t-188.5 36.5q-88 0 -172 -33t-167 -98l-32 -25q-9 -8 -20 -14t-16 -6q-21 0 -21 20z" />
<glyph unicode="P" horiz-adv-x="1061" d="M133 33v363q0 36 25.5 49t76.5 13q55 0 77 -12.5t22 -49.5v-257q0 -49 -21 -73q-25 -30 -70.5 -53t-74.5 -23q-35 0 -35 43zM133 591v533q0 36 24.5 47.5t75.5 11.5q56 0 78.5 -11.5t22.5 -47.5v-417q0 -43 38 -43h167q43 0 43 -25q0 -24 -43.5 -55.5t-111.5 -52.5 q-42 -13 -208 -13q-51 0 -68.5 18t-17.5 55zM133 1263q0 42 57.5 90t114.5 50l106 1l128 -1q54 -1 109.5 -12.5t118.5 -43.5t111 -81t79.5 -132t31.5 -188q0 -41 -10.5 -90t-39 -109t-71 -109.5t-114.5 -88t-162 -49.5h-6q-27 0 -27 23q0 14 23 28q194 120 194 356 q0 333 -395 333h-209q-13 0 -20.5 1t-13 6.5t-5.5 15.5z" />
<glyph unicode="Q" horiz-adv-x="1399" d="M102 649q0 141 12.5 209.5t37.5 116.5q28 52 80 84.5t87 32.5q31 0 31 -37q0 -9 -10 -62.5t-20 -141.5t-10 -181q0 -60 3.5 -112t13 -108t24.5 -101t40.5 -86.5t59 -69t81.5 -44t107 -16.5q60 0 108.5 12.5t76 24.5t36.5 12q23 0 23 -24t-20.5 -55.5t-57 -62t-95.5 -51 t-126 -20.5q-131 0 -225 47t-149.5 138t-81.5 212.5t-26 282.5zM147 1110q0 30 43 86q88 115 216.5 174.5t263.5 59.5q557 0 557 -689q0 -157 -28.5 -289.5t-94.5 -283.5q-14 -28 -14 -43q0 -26 22 -45l145 -141q39 -39 39 -62q0 -29 -44.5 -80t-88.5 -51q-21 0 -49 29 l-199 209q-20 20 -20 43q0 10 6 22t21 38t28 54q69 151 69 428q0 83 -2.5 145t-13 139t-28 133t-50 112.5t-77.5 92t-111.5 57.5t-150.5 22q-23 0 -52 -4t-77.5 -16t-107 -41.5t-113.5 -73.5q-5 -4 -16 -12.5t-16 -12.5t-13 -9.5t-13.5 -8t-9.5 -2.5q-21 0 -21 20z" />
<glyph unicode="R" horiz-adv-x="1133" d="M133 33v416q0 36 25.5 49t76.5 13q55 0 77 -12.5t22 -49.5v-310q0 -49 -21 -73q-25 -30 -70.5 -53t-74.5 -23q-35 0 -35 43zM133 644v480q0 36 24.5 47.5t75.5 11.5q56 0 78.5 -11.5t22.5 -47.5v-364q0 -43 38 -43h175q43 0 43 -25q0 -24 -47 -55.5t-116 -52.5 q-42 -13 -208 -13q-51 0 -68.5 18t-17.5 55zM133 1264q0 43 57 90t115 49l190 3q41 0 78 -2.5t90 -13t97 -27.5t90.5 -49.5t78 -76.5t52 -111t20.5 -149q0 -214 -213 -361q-31 -22 -31 -46q0 -18 17 -44l234 -376q22 -36 22 -62q0 -40 -53 -71q-43 -27 -79 -27q-33 0 -58 43 l-277 485q-12 18 -12 35q0 28 38 50q98 55 148.5 139t50.5 183q0 75 -20.5 131.5t-54 91t-83.5 56t-102.5 29.5t-117.5 8h-238q-13 0 -20.5 1t-13 6.5t-5.5 15.5z" />
<glyph unicode="S" horiz-adv-x="1022" d="M72 1118q0 16 19 49t36 54q176 213 467 213q55 0 118 -13.5t111.5 -42t48.5 -63.5q0 -39 -51.5 -78t-89.5 -39q-24 0 -65 18t-92.5 36t-100.5 18q-84 0 -156.5 -31.5t-154.5 -99.5q-54 -45 -68 -45q-22 0 -22 24zM82 133q0 27 22 49q66 66 119 66q34 0 76 -35 q58 -50 96.5 -65t90.5 -15q44 0 81.5 17t44.5 17q25 0 25 -32q0 -16 -13 -41t-40.5 -54.5t-83 -50t-126.5 -20.5q-76 0 -133.5 19.5t-125.5 81.5q-33 30 -33 63zM88 924q0 30 9 57q14 43 64 82t87 39q18 0 27.5 -7.5t9.5 -31.5q0 -76 9.5 -120t40.5 -74t75 -45t127 -31 q79 -15 141.5 -37t105.5 -46.5t74 -56.5t48.5 -62t27.5 -69t13 -71.5t3 -75.5q0 -80 -30 -153t-74.5 -120.5t-92.5 -75.5t-87 -28q-21 0 -21 20q0 13 16 29q51 49 75 119t24 127q0 34 -1 53t-6.5 52t-16 53.5t-31.5 47t-51 44t-76.5 33t-106.5 24.5q-76 11 -136.5 29.5 t-100 39.5t-68 49t-43.5 52.5t-23 55.5t-10 51.5t-2 46.5z" />
<glyph unicode="T" horiz-adv-x="1065" d="M31 1270q0 14 20 51t47 61q23 21 74 21h819q43 0 43 -31q0 -14 -20 -51t-47 -61q-23 -21 -74 -21h-819q-43 0 -43 31zM413 1119q0 36 24.5 47.5t75.5 11.5q56 0 78.5 -11.5t22.5 -47.5v-980q0 -43 -20 -67q-26 -31 -71.5 -56.5t-73.5 -25.5q-35 0 -35 43z" />
<glyph unicode="U" horiz-adv-x="1282" d="M133 655v619q0 42 21 67q26 31 71 56.5t74 25.5q35 0 35 -43v-708q0 -65 1.5 -110.5t8 -106.5t17.5 -102.5t32.5 -86.5t51 -71.5t74.5 -44t102 -17.5q60 0 106 12.5t70.5 24.5t33.5 12q23 0 23 -24q0 -25 -19 -56t-53 -61.5t-92 -51t-125 -20.5q-104 0 -180.5 32.5 t-124.5 88.5t-76.5 145t-39.5 188.5t-11 231.5zM868 37q0 8 6 17.5t17.5 26.5t19.5 34q64 133 64 442v737q0 60 50.5 94.5t88.5 34.5q35 0 35 -43v-614q0 -384 -78 -561q-39 -88 -89 -138.5t-93 -50.5q-21 0 -21 21z" />
<glyph unicode="V" horiz-adv-x="1128" d="M50 1327q0 25 17.5 45t42.5 30t47 15.5t36 5.5q44 0 59 -49l267 -875q18 -59 18 -85q0 -50 -33 -132t-69 -82q-28 0 -43 45l-333 1037q-9 21 -9 45zM494 20q0 12 20 79l346 1165q17 56 76 107.5t111 51.5q30 0 30 -30q0 -18 -6 -39l-354 -1180q-13 -33 -19.5 -48 t-24.5 -41.5t-40 -41.5q-33 -23 -65 -38t-46 -15q-28 0 -28 30z" />
<glyph unicode="W" horiz-adv-x="1661" d="M43 1305q0 47 54 82.5t93 35.5q17 0 25 -9.5t14 -35.5l183 -788q11 -49 11 -103q0 -110 -32.5 -204.5t-63.5 -94.5q-29 0 -39 47l-239 1033q-6 30 -6 37zM401 20q0 21 230 1033q9 40 35 40q28 0 51 -95t22 -167q0 -47 -20 -139l-119 -518q-21 -91 -80 -137 q-60 -47 -90 -47q-29 0 -29 30zM707 1300q0 28 20 54q23 29 61.5 49t63.5 20q16 0 25 -10.5t16 -36.5l201 -827q12 -54 12 -96q0 -37 -19.5 -118.5t-37.5 -115.5q-18 -33 -41 -33q-29 0 -41 47l-254 1024q-6 23 -6 43zM1073 18q0 28 17 88l300 1163q17 64 73.5 109t105.5 45 q30 0 30 -30q0 -14 -6 -35l-313 -1184q-20 -91 -82 -137q-63 -47 -99 -47q-26 0 -26 28z" />
<glyph unicode="X" horiz-adv-x="1053" d="M41 18q0 21 20 58l265 473q23 40 50 40q26 0 51 -40t25 -79q0 -34 -20 -68q-163 -297 -194 -328q-27 -30 -79.5 -57t-82.5 -27q-33 0 -35 28zM59 1311q0 43 56 77.5t94 34.5q33 0 57 -41l197 -346q18 -32 18 -56q0 -34 -36 -93q-40 -65 -74 -65q-20 0 -33 14t-31 44 l-233 390q-15 22 -15 41zM420 697q0 22 16 51q315 558 346 593q27 30 81.5 56t85.5 26q32 0 32 -31q0 -19 -20 -55l-293 -516q-27 -48 -27 -71q0 -22 22 -60l318 -540q18 -31 18 -54q0 -42 -48.5 -74t-86.5 -32q-40 0 -69 49l-355 598q-20 33 -20 60z" />
<glyph unicode="Y" horiz-adv-x="1077" d="M21 1312q0 22 16.5 42t40 35.5t48.5 24.5t43 9q39 0 58 -41l260 -555q24 -51 24 -84q0 -23 -10 -53t-25 -57t-32.5 -46t-33.5 -19q-22 0 -41 37l-334 665q-14 22 -14 42zM451 30l6 308q2 88 39 178l309 750q23 55 43 77q31 34 86.5 57t89.5 23q33 0 33 -28q0 -15 -15 -49 l-346 -793q-14 -33 -20.5 -51.5t-12.5 -50.5t-6 -69l-6 -243q-2 -51 -20 -73q-25 -30 -71 -53t-75 -23q-34 0 -34 40z" />
<glyph unicode="Z" horiz-adv-x="1063" d="M71 31q0 14 20 51t47 61q23 21 74 21h736q43 0 43 -31q0 -14 -20 -51t-47 -61q-23 -21 -74 -21h-736q-43 0 -43 31zM114 1269q0 37 58.5 85.5t114.5 48.5h671q43 0 43 -31q0 -14 -20 -50.5t-48 -61.5q-23 -21 -73 -21h-706q-15 0 -22 1.5t-12.5 8.5t-5.5 20zM195 256 q0 16 28 68l420 753q33 60 62.5 81t92.5 21q64 0 64 -32q0 -18 -27 -68l-422 -753q-34 -61 -64.5 -81.5t-88.5 -20.5q-65 0 -65 32z" />
<glyph unicode="[" horiz-adv-x="694" d="M102 -539v1811q0 36 24.5 48t76.5 12q56 0 78 -11.5t22 -48.5v-1667q0 -65 61 -65h288q42 0 42 -30q0 -14 -16.5 -41t-45.5 -52q-26 -21 -55 -21h-419q-56 0 -56 65zM102 1419q0 17 20 46.5t46 52.5q20 18 65 18h419q42 0 42 -30q0 -13 -17 -40t-45 -53q-23 -21 -78 -21 h-413q-39 0 -39 27z" />
<glyph unicode="\" horiz-adv-x="796" d="M-100 1511q0 25 27 25q30 0 78 -10q80 -18 118 -90l750 -1370q23 -42 23 -56q0 -20 -25 -20q-53 0 -108 20.5t-72 52.5l-776 1407q-15 26 -15 41z" />
<glyph unicode="]" horiz-adv-x="694" d="M0 -574q0 13 17 40t45 53q23 21 78 21h142q31 0 40 -15t9 -55q0 -46 -8.5 -60t-40.5 -14h-240q-42 0 -42 30zM0 1422q0 13 17 40t45 53q26 21 55 21h413q62 0 62 -66v-1931q0 -40 -38 -84q-49 -59 -112 -59q-51 0 -51 59v1872q0 65 -61 65h-288q-42 0 -42 30z" />
<glyph unicode="^" horiz-adv-x="1424" d="M90 1543q0 14 18 43l432 596q18 25 34 25q22 0 52.5 -42.5t30.5 -69.5q0 -20 -18 -47l-411 -561q-24 -27 -47 -27q-26 0 -58.5 26t-32.5 57zM635 2280q0 27 33.5 63.5t58.5 36.5q19 0 33 -18l556 -776q18 -29 18 -43q0 -31 -33 -58.5t-59 -27.5q-23 0 -47 27l-542 749 q-18 25 -18 47z" />
<glyph unicode="_" horiz-adv-x="1638" d="M164 -244q0 23 63 80q23 21 78 21h1127q43 0 43 -31q0 -22 -64 -80q-22 -20 -78 -20h-1126q-43 0 -43 30z" />
<glyph unicode="`" horiz-adv-x="485" d="M80 1540q0 51 19.5 92t43.5 41q17 0 36 -26l186 -251q40 -54 40 -102q0 -81 -36 -81q-16 0 -37 21l-219 229q-33 34 -33 77z" />
<glyph unicode="a" horiz-adv-x="1001" d="M119 384q0 28 20 61q53 89 139.5 135.5t192.5 46.5q81 0 143 -31q19 -10 26 -26.5t7 -61.5q0 -40 -6.5 -57.5t-23.5 -17.5q-11 0 -31 9q-94 41 -170 41q-123 0 -234 -89q-35 -28 -47 -28q-16 0 -16 18zM125 213q0 74 51 113q46 36 80 36q11 0 19 -8t8 -24 q0 -114 39 -165.5t139 -51.5q30 0 73 10.5t73 28.5q18 11 27 11q14 0 14 -37q0 -46 -26 -70q-42 -38 -104 -62.5t-119 -24.5q-133 0 -203.5 70.5t-70.5 173.5zM145 823q0 28 31 66q136 166 344 166q84 0 151 -22t113 -70.5t70.5 -125t24.5 -184.5v-542q0 -25 -15.5 -47 t-38 -38.5t-48 -26t-44.5 -9.5q-35 0 -35 43v583q0 295 -234 295q-136 0 -247 -75q-44 -29 -57 -29q-15 0 -15 16z" />
<glyph unicode="b" horiz-adv-x="1049" d="M124 232v339q0 54 28 86q27 31 64 56t57 25q31 0 31 -43v-402q1 -98 39.5 -139t131.5 -41q66 0 116.5 15t52.5 15q21 0 21 -22q0 -53 -73.5 -102.5t-184.5 -49.5q-134 0 -208.5 60t-74.5 203zM124 765v642q0 54 49.5 91.5t95.5 37.5q35 0 35 -43l-3 -506q0 -36 16 -36 q13 0 39 20q115 84 232 84q368 0 368 -504q0 -97 -20.5 -196.5t-56.5 -170.5q-38 -76 -92.5 -128t-88.5 -52q-20 0 -20 19q0 6 6.5 15.5t18.5 30.5t22 48q41 112 41 319q0 115 -11.5 198t-39 147.5t-77.5 97t-124 32.5q-80 0 -141 -31.5t-179 -121.5q-32 -25 -50 -25 q-20 0 -20 32z" />
<glyph unicode="c" horiz-adv-x="930" d="M92 459q0 167 45 235q23 35 70 65.5t80 30.5q24 0 24 -28q0 -1 -15 -87t-15 -167q0 -393 280 -393q58 0 109 13.5t78.5 30.5t51.5 30.5t34 13.5q24 0 24 -23q0 -22 -26 -56.5t-70 -69.5t-113.5 -60t-144.5 -25q-210 0 -311 126.5t-101 363.5zM133 801q0 12 11 33t20 32 q76 97 168 143t233 46q63 0 129 -15t103 -43q30 -23 30 -47q0 -25 -40 -60.5t-74 -35.5q-29 0 -68 18q-84 39 -153 39q-152 0 -293 -98q-43 -29 -52 -29q-14 0 -14 17z" />
<glyph unicode="d" horiz-adv-x="1067" d="M92 467q0 63 13.5 127t33.5 95q26 39 72.5 69.5t79.5 30.5q24 0 24 -30q0 -7 -8.5 -44t-17.5 -99.5t-9 -130.5q0 -190 59 -281t196 -91q64 0 144 43q14 7 18 7q17 0 17 -36q0 -49 -27 -74q-97 -84 -228 -84q-43 0 -79.5 5t-75 19t-68.5 37t-58 61.5t-46 89.5t-29 123.5 t-11 162.5zM141 807q0 25 29 61q132 187 358 187q78 0 144 -29q25 -11 33.5 -26t8.5 -63q0 -83 -30 -83q-10 0 -28 10q-78 46 -173 46q-74 0 -138 -23t-138 -72q-41 -27 -49 -27q-17 0 -17 19zM764 33v1374q0 39 18 61q26 30 61.5 49t65.5 19q35 0 35 -43v-1374 q0 -38 -18 -62q-26 -30 -61.5 -48.5t-65.5 -18.5q-35 0 -35 43z" />
<glyph unicode="e" horiz-adv-x="932" d="M92 507q0 111 32 166.5t83 85.5q50 29 76 29q24 0 24 -30q0 -12 -10 -58.5t-10 -62.5q0 -28 17.5 -35.5t51.5 -7.5q87 0 149 15t95 42t47.5 57t14.5 66q0 62 -43 99.5t-138 37.5q-149 0 -280 -94q-39 -29 -49 -29q-17 0 -17 19q0 25 29 61q54 69 123 113t126 59t113 15 q72 0 130 -15t103 -46.5t70 -86t25 -127.5q0 -156 -148.5 -240.5t-405.5 -84.5q-72 0 -163 8q-45 3 -45 44zM100 358q0 52 48 52h86q26 0 36.5 -10t16.5 -44q39 -243 266 -243q57 0 107 14t77.5 31t51 31t34.5 14q23 0 23 -25q0 -21 -23 -54t-65.5 -68.5t-117 -61 t-161.5 -25.5q-180 0 -279.5 108.5t-99.5 280.5z" />
<glyph unicode="f" horiz-adv-x="703" d="M45 902q0 27 43.5 74.5t69.5 47.5q22 0 22 -33v-58q0 -25 -11 -39t-42 -14h-47q-35 0 -35 22zM232 33v743q0 19 7 30t19.5 16.5t29 6.5t34.5 1q19 0 35.5 -1.5t28.5 -7t19 -16.5t7 -29v-660q0 -26 -14.5 -49t-36 -40t-47.5 -27t-48 -10q-34 0 -34 43zM232 933v36 q0 205 45 259q24 29 59.5 50t56.5 21q33 0 33 -34q0 -6 -4.5 -62t-4.5 -119q0 -29 10.5 -44.5t41.5 -15.5h203q35 0 35 -23q0 -24 -34 -60.5t-67 -48.5q-31 -12 -114 -12h-207q-25 0 -39 11t-14 42zM252 1315q0 25 43 78q63 77 142 110t157 33q136 0 211 -57q31 -24 31 -47 q0 -26 -41.5 -62.5t-75.5 -36.5q-19 0 -63 21q-32 15 -47 21t-41.5 12t-57.5 6q-90 0 -188 -66q-44 -29 -53 -29q-17 0 -17 17z" />
<glyph unicode="g" horiz-adv-x="1077" d="M82 -348q0 101 55 176t94 75q19 0 19 -20q0 -3 -9.5 -49t-9.5 -96q0 -93 83.5 -145.5t222.5 -52.5q51 0 103 11t82.5 22t31.5 11q18 0 18 -18q0 -20 -22.5 -47.5t-64 -55.5t-113 -47.5t-156.5 -19.5q-54 0 -109.5 14.5t-107.5 43.5t-84.5 80.5t-32.5 117.5zM104 614 q0 95 48 138q20 17 55 36.5t56 19.5q26 0 26 -29q0 -8 -3.5 -42t-3.5 -64q0 -65 17.5 -112.5t41 -71.5t59.5 -37.5t61.5 -16.5t58.5 -3q48 0 81 13.5t40 13.5q17 0 17 -21q0 -40 -61.5 -87.5t-170.5 -47.5q-48 0 -92 9t-87 31.5t-74 56.5t-50 89t-19 125zM109 817 q0 16 26 53q38 56 86 95.5t97.5 57.5t90 25t80.5 7q114 0 220 -45q59 -25 105 -25h190q32 0 32 -22q0 -23 -32 -55.5t-64 -44.5q-42 -16 -155 -16q-121 0 -179 23q-104 41 -184 41q-43 0 -111 -18.5t-139 -65.5q-40 -28 -47 -28q-16 0 -16 18zM115 113q0 73 47 123.5 t81 50.5q18 0 18 -18q0 -7 -11.5 -36t-11.5 -53q0 -21 10.5 -35.5t27.5 -23t49.5 -12.5t66 -5.5t87.5 -1.5q68 0 120.5 -2.5t111.5 -11.5t102.5 -24.5t85 -42.5t67.5 -63.5t42 -90.5t16 -121q0 -66 -25.5 -125.5t-64 -99t-82.5 -64t-82 -26.5q-20 0 -20 16q0 10 16 23 q52 35 79 90t27 113q0 141 -89 198t-269 59q-72 1 -107.5 2t-91.5 6.5t-84 17t-59.5 31t-44 51t-12.5 75.5zM684 366q0 7 11 24.5t24 39t24 64.5t11 94q0 34 -11 88t-32 85q-6 9 -6 14q0 6 3.5 10t24 8t59.5 4q70 0 90 -24q25 -32 25 -101q0 -112 -63 -209 q-25 -37 -72.5 -76t-69.5 -39q-18 0 -18 18z" />
<glyph unicode="h" horiz-adv-x="1031" d="M125 33v536q0 56 27 86q26 30 64 55t58 25q31 0 31 -43v-578q0 -54 -51 -89t-94 -35q-35 0 -35 43zM125 763v648q0 53 50.5 89t94.5 36q35 0 35 -43l-4 -500q0 -43 20 -43q12 0 35 17q130 88 250 88q163 0 238 -100.5t75 -325.5v-510q0 -54 -49.5 -91.5t-95.5 -37.5 q-35 0 -35 43v321q-1 188 -1 216q-2 48 -8 115t-20 99t-38.5 66.5t-63.5 47.5t-94 13q-122 0 -319 -153q-32 -25 -50 -25q-20 0 -20 30z" />
<glyph unicode="i" horiz-adv-x="426" d="M123 33v893q0 38 18 61q26 30 61.5 49t65.5 19q35 0 35 -43v-893q0 -38 -18 -62q-26 -30 -61.5 -48.5t-65.5 -18.5q-35 0 -35 43zM123 1302v145q0 39 18 61q26 30 61.5 49t65.5 19q35 0 35 -43v-145q0 -38 -18 -62q-26 -30 -61.5 -48.5t-65.5 -18.5q-35 0 -35 43z" />
<glyph unicode="j" horiz-adv-x="461" d="M-219 -494q0 35 37 70q36 33 65 33q27 0 54 -31q34 -39 76 -39q14 0 37.5 11.5t30.5 11.5q20 0 20 -23q0 -16 -10.5 -39t-29 -47t-50.5 -40.5t-69 -16.5q-71 0 -116 37t-45 73zM127 -547q0 6 12 34.5t16 60.5q5 35 5 121l-2 1257q0 38 18 61q26 30 61.5 49t65.5 19 q35 0 35 -43v-1215q0 -91 -20 -164t-50.5 -114t-62 -62t-59.5 -21q-19 0 -19 17zM158 1302v154q0 47 50 83.5t95 36.5q35 0 35 -43v-149q0 -53 -50.5 -89t-94.5 -36q-35 0 -35 43z" />
<glyph unicode="k" horiz-adv-x="938" d="M125 33v1377q0 54 49.5 90t95.5 36q35 0 35 -43v-1377q0 -55 -49 -90.5t-96 -35.5q-35 0 -35 43zM355 572q0 25 27 55l295 329q42 47 76 57t114 11q31 0 31 -25q0 -18 -29 -47l-297 -307q-24 -26 -24 -44q0 -15 17 -37l292 -400q18 -27 18 -49q0 -25 -16 -52 q-43 -73 -94 -73q-24 0 -49 37l-344 503q-17 26 -17 42z" />
<glyph unicode="l" horiz-adv-x="426" d="M123 33v1378q0 54 49 89.5t96 35.5q35 0 35 -43v-1378q0 -55 -49 -90t-96 -35q-35 0 -35 43z" />
<glyph unicode="m" horiz-adv-x="1583" d="M125 33v538q0 57 27 86q28 32 64 56t58 24q31 0 31 -43v-575q0 -54 -49.5 -91.5t-95.5 -37.5q-35 0 -35 43zM125 765v164q0 53 50 89.5t96 36.5q35 0 35 -43v-25q0 -35 15 -35q10 0 40 19q127 84 221 84q56 0 94.5 -14t111.5 -86q12 -11 20 -17t14.5 -8t15.5 -2 q24 0 92 43q132 84 232 84q156 0 232.5 -98.5t76.5 -325.5v-506q0 -54 -49.5 -94.5t-94.5 -40.5q-35 0 -35 43v395q0 66 -1 108t-4 94t-9 84t-16.5 68t-26.5 56.5t-38.5 39t-53 26t-69.5 7.5q-70 0 -137 -37.5t-185 -130.5q-31 -23 -45 -23q-12 0 -21 20q-4 9 -8 24 q-22 76 -60 111.5t-114 35.5q-59 0 -130.5 -35t-178.5 -118q-33 -25 -49 -25q-21 0 -21 32zM703 33v538q0 56 27 86q27 31 64 55.5t58 24.5q31 0 31 -43v-569q0 -45 -18 -68q-25 -30 -61 -48.5t-66 -18.5q-35 0 -35 43z" />
<glyph unicode="n" horiz-adv-x="1038" d="M125 33v538q0 56 27 86q27 31 64 55.5t58 24.5q31 0 31 -43v-575q0 -55 -49.5 -92t-95.5 -37q-35 0 -35 43zM125 767v159q0 54 49.5 91.5t95.5 37.5q35 0 35 -43v-25q0 -36 16 -36q14 0 39 19q57 42 119 63.5t111 21.5q174 0 255 -97.5t81 -326.5v-512q0 -54 -49 -91.5 t-96 -37.5q-35 0 -35 43v395q0 94 -1.5 142t-8 115t-21.5 99.5t-40.5 66.5t-66.5 47t-98 13q-115 0 -315 -153q-32 -25 -50 -25q-20 0 -20 34z" />
<glyph unicode="o" horiz-adv-x="1059" d="M92 498q0 51 10 107.5t27 86.5q21 36 67.5 66t79.5 30q25 0 25 -30q0 -5 -10.5 -77t-10.5 -129q0 -70 3 -120t11.5 -104t26 -90t44 -66t67.5 -44.5t96 -14.5q47 0 82.5 13t40.5 13q21 0 21 -22q0 -45 -64.5 -96.5t-158.5 -51.5q-87 0 -151.5 29t-103.5 76t-62.5 118 t-31.5 143t-8 163zM131 805q0 11 11.5 32t19.5 31q146 187 362 187q228 0 335.5 -134.5t107.5 -396.5q0 -81 -20.5 -173.5t-55.5 -164.5q-38 -76 -93 -129t-89 -53q-21 0 -21 19q0 6 7 16t19 30.5t21 47.5q41 112 41 317q0 113 -15.5 196.5t-51 148.5t-98.5 98.5t-154 33.5 q-126 0 -260 -92q-5 -4 -15 -10.5t-15.5 -10.5t-11.5 -7t-10 -3q-14 0 -14 17z" />
<glyph unicode="p" horiz-adv-x="1063" d="M125 -60q0 45 35 45q40 0 112 -56q33 -25 33 -86v-318q0 -55 -49.5 -92t-95.5 -37q-35 0 -35 43v501zM125 197v372q0 57 27 87q27 31 64 55.5t58 24.5q31 0 31 -43v-400q0 -109 62 -150q45 -30 122 -30q66 0 117.5 15t52.5 15q21 0 21 -22q0 -52 -77 -102t-185 -50 q-112 0 -197 51q-52 31 -74 72t-22 105zM125 765v168q0 51 52 86.5t93 35.5q35 0 35 -43v-25q0 -36 16 -36q13 0 39 20q115 84 234 84q178 0 276 -122.5t98 -381.5q0 -98 -20 -197t-55 -170q-37 -76 -91.5 -128t-88.5 -52q-21 0 -21 19q0 6 6.5 15.5t18.5 30.5t22 48 q38 107 38 317q0 91 -7.5 162t-25.5 131.5t-47 100t-73.5 61.5t-103.5 22q-81 0 -145.5 -33t-179.5 -120q-32 -25 -50 -25q-20 0 -20 32z" />
<glyph unicode="q" horiz-adv-x="1073" d="M92 467q0 63 13.5 127t33.5 95q26 39 72.5 69.5t79.5 30.5q24 0 24 -30q0 -7 -8.5 -44t-17.5 -99.5t-9 -130.5q0 -189 61.5 -280.5t199.5 -91.5q64 0 144 43q14 7 19 7q16 0 16 -37q0 -50 -27 -73q-102 -84 -228 -84q-62 0 -111 10.5t-100 42t-85 84.5t-55.5 145 t-21.5 216zM141 807q0 25 29 61q132 187 365 187q70 0 137 -26q27 -10 37.5 -28t10.5 -72q0 -78 -25 -78q-11 0 -32 13q-79 46 -174 46q-138 0 -282 -95q-41 -27 -49 -27q-17 0 -17 19zM770 -561v1487q0 38 18 61q26 30 62 49t65 19q35 0 35 -43v-1487q0 -38 -18 -62 q-26 -30 -61.5 -48.5t-65.5 -18.5q-35 0 -35 43z" />
<glyph unicode="r" horiz-adv-x="737" d="M125 33v504q0 56 27 86q27 31 64 56.5t58 25.5q31 0 31 -43v-546q0 -55 -49 -90.5t-96 -35.5q-35 0 -35 43zM125 735v194q0 54 49.5 90t95.5 36q35 0 35 -43v-56q0 -32 14 -32q11 0 35 24q107 107 201 107q57 0 119.5 -25t62.5 -65q0 -32 -42 -66.5t-74 -34.5 q-27 0 -76 25q-46 22 -84 22q-24 0 -46 -7.5t-51 -29t-47.5 -37t-63 -57t-69.5 -63.5q-22 -19 -37 -19q-22 0 -22 37z" />
<glyph unicode="s" horiz-adv-x="887" d="M82 687q0 47 48 83.5t81 36.5q23 0 31 -31q8 -34 16.5 -57t24 -40.5t31 -28t48 -19t62 -13.5t84.5 -12q87 -11 148 -39.5t92 -70.5t44 -87t13 -102q0 -64 -21.5 -122.5t-52.5 -95t-63 -58t-56 -21.5q-16 0 -16 15q0 6 16 30q47 76 47 172q0 107 -58.5 153t-168.5 56 q-97 9 -167 33t-109 58.5t-56.5 74t-17.5 85.5zM92 88q0 31 41.5 63.5t79.5 32.5q25 0 59 -20q33 -20 45.5 -27t43 -15.5t65.5 -8.5q44 0 87 13t45 13q23 0 23 -24q0 -16 -16 -39.5t-45 -48t-79.5 -41.5t-110.5 -17q-84 0 -161 39t-77 80zM92 834q0 22 31 61 q132 160 371 160q63 0 129 -15t102 -43q31 -24 31 -47q0 -25 -41.5 -61.5t-75.5 -36.5q-10 0 -18 2.5t-23.5 9t-22.5 8.5q-94 39 -169 39q-141 0 -248 -65q-7 -4 -19.5 -12t-20 -12.5t-12.5 -4.5q-14 0 -14 17z" />
<glyph unicode="t" horiz-adv-x="804" d="M30 903q0 27 43.5 74t69.5 47q22 0 22 -33v-57q0 -25 -11 -39t-42 -14h-47q-35 0 -35 22zM217 387v387q0 22 9.5 33.5t24 16.5t30 5h27.5q18 0 34.5 -1.5t28.5 -7t19 -16.5t7 -30v-350q0 -86 10 -145.5t29.5 -96.5t49 -53t69.5 -16q47 0 78.5 11.5t52.5 25t35 25t28 11.5 q13 0 19 -7.5t6 -19.5q0 -17 -13.5 -48.5t-45.5 -63t-84.5 -55t-131.5 -23.5q-77 0 -130.5 22t-87.5 71.5t-49 129t-15 195.5zM217 934v189q0 55 49 90.5t96 35.5q35 0 35 -43v-129q0 -31 14 -42t39 -11h268q35 0 35 -23q0 -24 -33.5 -60t-66.5 -48q-32 -12 -115 -12h-268 q-25 0 -39 11t-14 42z" />
<glyph unicode="u" d="M113 385v543q0 27 14.5 50.5t36 40.5t47 26.5t47.5 9.5q35 0 35 -43v-609l4 -77q4 -57 16 -97.5t36 -66t60.5 -37.5t88.5 -12q83 0 151 39q19 11 25 11q9 0 12.5 -7t3.5 -30q0 -42 -29 -71.5t-70 -48.5t-85.5 -28t-75.5 -9q-84 0 -144.5 21.5t-98.5 71t-56 128.5t-18 195 zM741 33v896q0 52 50 89t95 37q35 0 35 -43v-896q0 -54 -49.5 -90t-95.5 -36q-35 0 -35 43z" />
<glyph unicode="v" horiz-adv-x="911" d="M32 947q0 36 48 72t78 36q26 0 39 -43l202 -660q14 -50 14 -74q0 -56 -26.5 -117.5t-48.5 -61.5q-24 0 -39 45l-260 771q-7 21 -7 32zM402 22q0 12 6 29l270 875q12 43 29 63q24 29 67.5 47.5t75.5 18.5q14 0 22.5 -9t8.5 -24q0 -9 -5 -24l-278 -879q-18 -57 -66.5 -93 t-95.5 -36q-34 0 -34 32z" />
<glyph unicode="w" horiz-adv-x="1489" d="M32 943q0 37 49.5 74.5t80.5 37.5q29 0 41 -43l153 -570q10 -39 10 -73q0 -41 -18 -103q-13 -48 -34.5 -80t-37.5 -32q-15 0 -24 12.5t-19 44.5l-196 700q-5 16 -5 32zM324 1q0 11 4 22l233 751q10 33 31 33q28 0 65 -137q7 -27 7 -54q0 -32 -15 -86l-119 -399 q-15 -50 -59 -100q-23 -27 -58 -44.5t-57 -17.5q-32 0 -32 32zM619 946q0 38 48 73.5t78 35.5q28 0 41 -43l199 -633q11 -34 11 -67q0 -34 -13 -83q-33 -120 -67 -120q-14 0 -23 13t-19 44l-249 749q-6 18 -6 31zM972 2q0 10 3 21l272 903q12 42 29 67q20 28 62.5 45 t76.5 17q14 0 22.5 -8t8.5 -21q0 -4 -2 -14l-264 -885q-18 -51 -54 -92q-25 -30 -59 -48t-63 -18q-32 0 -32 33z" />
<glyph unicode="x" horiz-adv-x="897" d="M21 -5q0 15 14 38l231 375q15 22 28 22q26 0 50.5 -44.5t24.5 -68.5q0 -18 -11 -36l-112 -183q-22 -36 -49 -65q-25 -27 -70.5 -45.5t-77.5 -18.5q-28 0 -28 26zM35 952q0 34 42 68.5t75 34.5q18 0 30.5 -8t28.5 -33l164 -245q15 -26 15 -43q0 -31 -38.5 -81.5 t-66.5 -50.5q-18 0 -37 29l-193 278q-20 28 -20 51zM338 508q0 18 16 45l236 373q30 48 51 71q24 27 68 42.5t77 15.5q29 0 29 -26q0 -16 -14 -38l-250 -403q-14 -22 -14 -45q0 -24 16 -47l252 -375q20 -31 20 -54q0 -30 -37 -64t-78 -34q-18 0 -30 8t-29 33l-293 447 q-20 30 -20 51z" />
<glyph unicode="y" horiz-adv-x="1042" d="M113 385v543q0 27 14.5 50.5t36 40.5t47 26.5t47.5 9.5q35 0 35 -43v-564l3 -88q1 -29 3 -46.5t5 -31.5t6.5 -27t9.5 -33q17 -60 65 -84.5t121 -24.5q75 0 143 39q19 11 26 11q15 0 15 -37q0 -41 -29 -70.5t-70 -48.5t-85.5 -28.5t-75.5 -9.5q-84 0 -144.5 21.5t-98.5 71 t-56 128.5t-18 195zM156 -494q0 36 41 68q47 39 77 39t58 -23q36 -27 67 -38.5t76 -11.5q40 0 91.5 11t54.5 11q26 0 26 -25q0 -46 -78 -93.5t-168 -47.5q-88 0 -166.5 37t-78.5 73zM666 -549q0 9 16 31q34 47 46.5 118.5t12.5 192.5l-2 1133q0 39 19 61q26 30 61.5 49 t65.5 19q35 0 35 -43v-1215q0 -75 -19 -138.5t-47.5 -103t-62.5 -67.5t-61.5 -39.5t-47.5 -11.5q-16 0 -16 14z" />
<glyph unicode="z" horiz-adv-x="850" d="M35 28q0 37 41 78q35 37 83 37h599q43 0 43 -31q0 -14 -15 -40t-43 -51q-23 -21 -73 -21h-595q-40 0 -40 28zM42 911q0 35 53.5 74t110.5 39h560q43 0 43 -31q0 -14 -15 -40t-43 -51q-23 -21 -73 -21h-595q-14 0 -21.5 1.5t-13.5 8.5t-6 20zM142 210q0 13 17 41l342 540 q20 31 46 41.5t78 10.5q69 0 69 -26q0 -13 -17 -41l-349 -552q-23 -39 -93 -39h-43q-50 0 -50 25z" />
<glyph unicode="{" horiz-adv-x="856" d="M0 433q0 6 9 22.5t26.5 33t44 29.5t61.5 13q55 0 89 9t52.5 31t24.5 58t6 90v44.5t-0.5 78t-0.5 95t-0.5 96t-0.5 80.5v49q0 99 18 169.5t56.5 116t98 67t143.5 21.5h166q43 0 43 -31q0 -4 -7 -20t-23.5 -34t-44 -32t-67.5 -14q-67 0 -99 -11.5t-48 -36t-19 -62t-3 -88.5 q0 -86 2 -342q0 -43 -8.5 -88.5t-25.5 -88.5t-41 -81.5t-55 -68.5t-69 -48t-81 -21v-3q67 -4 119 -43.5t88 -98t54.5 -126.5t18.5 -128q0 -71 -2 -330q0 -55 6 -95t25 -65.5t55 -37.5t95 -12h107q43 0 43 -31q0 -4 -7 -20t-23.5 -34t-44 -32t-67.5 -14h-67q-168 0 -247 90 t-79 285q-3 175 -4 225.5t-2 94.5t-1.5 77.5t-0.5 44.5q0 53 -6.5 89t-24 57.5t-47 31t-75.5 9.5h-117q-43 0 -43 30z" />
<glyph unicode="|" horiz-adv-x="380" d="M100 -561v1972q0 54 49 89.5t96 35.5q35 0 35 -43v-1972q0 -55 -49 -90t-96 -35q-35 0 -35 43z" />
<glyph unicode="}" horiz-adv-x="856" d="M0 1436q0 3 7 19t23.5 34t44 32.5t67.5 14.5h67q168 0 247 -90t79 -285q1 -85 4.5 -258t3.5 -184q0 -53 6.5 -89t24 -58t47 -31t75.5 -9h117q43 0 43 -30q0 -6 -9 -22.5t-26.5 -33t-44 -29.5t-61.5 -13q-65 0 -94.5 -9t-47 -31t-24 -58t-6.5 -90v-44.5t0.5 -78t0.5 -95 t0.5 -96t0.5 -80.5v-49q0 -99 -18 -169.5t-56.5 -116t-98 -67t-143.5 -21.5h-166q-43 0 -43 31q0 3 7 19t23.5 34t44 32.5t67.5 14.5q36 0 61.5 3.5t43 10t28 16t15.5 21.5q14 26 17.5 61t3.5 86q-1 205 -2 342q0 64 19.5 133t55.5 126t88 95t117 42v3q-45 2 -83 21.5 t-69 50t-55 70t-40 82.5t-24.5 87.5t-8.5 84.5l2 318q0 67 -6 107t-25 65.5t-55 37.5t-95 12h-107q-43 0 -43 31z" />
<glyph unicode="~" horiz-adv-x="1237" d="M164 576q0 83 50 122q91 74 207 74q54 0 96.5 -11t77.5 -27.5t64.5 -35.5t58 -35.5t58.5 -27.5t65 -11q93 0 167 41q40 22 49 22q16 0 16 -27q0 -54 -23.5 -91t-59.5 -59.5t-79.5 -32t-83.5 -9.5q-52 0 -92 11t-73 27t-62.5 35.5t-60.5 35.5t-66.5 27t-80.5 11 q-86 0 -165 -46q-35 -20 -47 -20q-16 0 -16 27z" />
<glyph unicode="&#xa1;" horiz-adv-x="471" d="M143 -337v749q0 49 21 74q27 31 64.5 53.5t64.5 22.5q35 0 35 -43v-750q0 -42 -21 -67q-28 -33 -64.5 -57.5t-64.5 -24.5q-35 0 -35 43zM143 745v160q0 49 21 74q27 31 64.5 53t64.5 22q35 0 35 -43v-159q0 -43 -21 -68q-27 -31 -66.5 -56.5t-63.5 -25.5q-34 0 -34 43z " />
<glyph unicode="&#xa2;" horiz-adv-x="958" d="M92 459q0 67 6 114t19.5 81.5t35.5 59t54 45.5q46 31 80 31q24 0 24 -28q0 -2 -15 -87q-15 -86 -15 -167q0 -209 78 -303q16 -20 25 -33.5t12.5 -26.5t4 -29t0.5 -40q0 -84 -46 -84q-14 0 -35 9.5t-44.5 24t-45 32t-34.5 33.5q-104 122 -104 368zM133 801q0 6 3 15t8 18 t10 17.5t10 14.5q92 115 194 156q15 7 27 7q25 0 25 -53q-1 -35 -7.5 -51.5t-19.5 -21.5l-23 -9q-33 -12 -69 -30.5t-67 -36t-52 -30.5t-25 -13q-14 0 -14 17zM460 954v242q0 28 15 51.5t34.5 41t39 27t28.5 9.5q35 0 35 -43v-166q0 -23 4.5 -36.5t12 -20.5t15.5 -9.5 t21 -4.5q74 -14 118 -39t44 -56q0 -12 -11.5 -28.5t-28.5 -31.5t-37 -25.5t-37 -10.5q-29 0 -68 18q-74 33 -144 39q-41 3 -41 43zM461 71q0 28 9 37.5t31 9.5q4 0 12.5 -0.5t17.5 -1t51 -1t87.5 13t77.5 30t52.5 30.5t34.5 14q24 0 24 -23q0 -17 -16 -42.5t-44.5 -52.5 t-67 -51.5t-83.5 -39.5q-34 -12 -34 -48v-117q0 -30 -14.5 -54t-33.5 -40.5t-39 -25.5t-30 -9q-35 0 -35 43v328z" />
<glyph unicode="&#xa3;" horiz-adv-x="922" d="M36 555q0 13 19 40.5t48 52.5q18 16 33 16q17 0 29 -22l32 -63q7 -14 7 -26q0 -29 -41 -29h-84q-43 0 -43 31zM100 1118q0 16 19 49t36 54q92 111 192.5 162t246.5 51q89 0 178.5 -34t89.5 -85q0 -38 -51 -74t-90 -36q-32 0 -109 32.5t-139 32.5q-56 0 -103 -16 t-83.5 -40.5t-96.5 -74.5q-54 -45 -68 -45q-22 0 -22 24zM124 927q0 36 7 57q14 42 60 80t77 38q24 0 30.5 -15t6.5 -44q0 -113 32 -204.5t84 -140.5q32 -30 103 -30h256q43 0 43 -31q0 -11 -19.5 -38.5t-48.5 -53.5q-23 -21 -74 -21h-296q-50 0 -76 15t-48 47 q-59 86 -98 181.5t-39 159.5zM133 35q0 13 15 31t45 54.5t55 80.5q21 36 36 98t15 108q0 15 2 22.5t10 17t28 13.5t53 4q85 0 85 -41q0 -21 -24.5 -108t-24.5 -116q0 -35 39 -35h455q43 0 43 -31q0 -14 -20.5 -51t-47.5 -62q-22 -20 -73 -20h-650q-41 0 -41 35z" />
<glyph unicode="&#xa4;" horiz-adv-x="1045" d="M80 160q0 36 26 65l93 86q17 15 17 31q0 4 -4 19q-18 61 -18 148q0 39 6 68.5t18 50.5t30.5 35.5t42.5 24.5q42 17 64 17q18 0 18 -18q0 -2 -4 -15.5t-8.5 -34.5t-8.5 -46.5t-4 -51.5q0 -55 6.5 -101t24.5 -79t50 -51.5t84 -18.5q15 0 31 1.5t29.5 4t22.5 4t10 1.5 q16 0 16 -15q0 -14 -11 -32.5t-30.5 -35t-47.5 -27.5t-62 -11q-107 0 -171 47q-17 12 -24 12q-12 0 -25 -15l-116 -122q-11 -12 -23 -12q-13 0 -22.5 21t-9.5 50zM80 881q0 10 2 22.5t6 23.5t10 18.5t14 7.5q11 0 23 -13l119 -127q11 -11 22 -11q14 0 36 16q95 68 209 68 q63 0 116.5 -16.5t95.5 -49.5q9 -7 16.5 -11.5t16.5 -3.5q15 -1 32 17l112 118q7 12 19 12q14 0 25 -18.5t11 -52.5q0 -36 -26 -65l-91 -84q-18 -17 -18 -33q0 -8 6 -24q21 -62 21 -136q0 -93 -27 -171q-5 -20 -5 -23q0 -16 14 -28l100 -92q26 -29 26 -68q0 -32 -11.5 -50.5 t-24.5 -18.5q-12 0 -19 13l-125 131q-13 13 -25 13q-9 0 -21 -9q-50 -38 -93 -38q-13 0 -13 12q0 4 7.5 16t17 32.5t19.5 49t16 66.5q9 61 9 109q0 293 -225 293q-120 0 -208 -57q-20 -13 -31 -13q-14 0 -31 16l-101 94q-26 23 -26 65z" />
<glyph unicode="&#xa5;" horiz-adv-x="1077" d="M21 1312q0 43 52.5 77t89.5 34q35 0 57 -41l261 -472q24 -44 24 -84q0 -49 -32 -108t-63 -59q-20 0 -41 37l-334 574q-14 22 -14 42zM141 288q0 19 63 76q23 20 78 20h68q27 0 36.5 -13t9.5 -42q0 -33 -11 -49.5t-42 -16.5h-159q-24 0 -33.5 4.5t-9.5 20.5zM141 500 q0 19 63 76q23 20 78 20h96q38 0 38 -24q0 -12 -6 -30q-12 -36 -28 -51.5t-48 -15.5h-150q-24 0 -33.5 4.5t-9.5 20.5zM451 30l5 297q1 33 15.5 45t43.5 12h429q24 0 33.5 -4.5t9.5 -20.5q0 -12 -14.5 -28t-49.5 -48q-22 -20 -78 -20h-140q-27 0 -40 -12.5t-13 -43.5l-1 -68 q-2 -51 -20 -73q-25 -30 -71 -53t-75 -23q-34 0 -34 40zM465 510q0 30 31 97l309 659q28 60 43 77q31 34 86.5 57t89.5 23q33 0 33 -28q0 -18 -15 -49l-346 -702q-7 -16 -7 -24q0 -24 35 -24h220q24 0 33.5 -4.5t9.5 -20.5q0 -12 -14.5 -28t-49.5 -48q-22 -20 -78 -20h-336 q-44 0 -44 35z" />
<glyph unicode="&#xa6;" horiz-adv-x="380" d="M100 38q0 54 49 89.5t96 35.5q35 0 35 -43v-599q0 -55 -49 -90t-96 -35q-35 0 -35 43v599zM100 812v599q0 54 49 89.5t96 35.5q35 0 35 -43v-599q0 -55 -49 -90t-96 -35q-35 0 -35 43z" />
<glyph unicode="&#xa7;" horiz-adv-x="1022" d="M74 436q0 72 24.5 130t61.5 98t81 61.5t83 21.5q10 0 15.5 -6.5t5.5 -14.5q0 -6 -8 -18.5t-18.5 -27t-21 -28.5t-14.5 -23q-9 -17 -14 -39t-5 -72q0 -176 271 -312q129 -65 213 -119t132.5 -105.5t68 -106t19.5 -120.5q0 -83 -28.5 -145t-71 -103t-91 -62t-87.5 -21 q-27 0 -27 21q0 16 16 25q26 15 45 39.5t31 52.5t17.5 57t5.5 54q0 44 -6.5 85t-34 80.5t-83.5 80.5t-155 85q-116 51 -196.5 105.5t-131.5 109t-74 109.5t-23 108zM101 1206q0 7 6 21t14 29t17.5 29.5t17.5 23.5q44 54 92 93t103 63.5t118 36.5t138 12q26 0 60 -3.5 t69.5 -11t69.5 -17.5t61 -23.5t43.5 -29.5t16.5 -34q0 -19 -15.5 -38.5t-37.5 -36t-46 -27t-42 -10.5q-4 0 -23 5t-46.5 12.5t-60.5 16t-65 16t-56.5 12.5t-58.5 5q-33 0 -69 -6.5t-70 -20.5t-69 -38t-77 -58q-54 -45 -68 -45q-22 0 -22 24zM116 -445q0 20 11.5 38t44.5 46 q13 11 32.5 25t39.5 14q17 0 38.5 -9.5t50.5 -33.5q44 -38 83.5 -56.5t78.5 -18.5q17 0 37.5 5.5t47.5 17t45 11.5q21 0 21 -32q0 -13 -12.5 -40.5t-40.5 -55.5t-73.5 -49t-111.5 -21q-37 0 -69.5 3t-63 13.5t-61.5 29t-65 50.5q-33 30 -33 63zM124 1023q0 28 14 60.5 t52 66.5q48 42 84 42q17 0 26 -8.5t9 -32.5q0 -36 8.5 -57t22.5 -38t32 -31.5t37 -26.5l49 -28l62 -32q21 -11 37.5 -19.5t29.5 -15.5q120 -65 201 -119.5t131 -106.5t71.5 -104.5t21.5 -112.5q0 -74 -27.5 -131t-69 -96t-88.5 -59.5t-86 -20.5q-28 0 -28 20q0 14 16 29 q46 41 69.5 83.5t23.5 92.5q0 53 -15 99t-58.5 92t-124 96t-210.5 111q-36 16 -59.5 27t-42.5 20.5t-37 19.5t-41 24q-53 31 -81.5 65.5t-28.5 90.5z" />
<glyph unicode="&#xa8;" horiz-adv-x="665" d="M80 1302v145q0 39 18 61q26 30 58 49t54 19q35 0 35 -43v-145q0 -40 -18 -62q-24 -30 -56.5 -48.5t-55.5 -18.5q-35 0 -35 43zM420 1302v145q0 39 18 61q26 30 58 49t54 19q35 0 35 -43v-145q0 -40 -18 -62q-24 -30 -56.5 -48.5t-55.5 -18.5q-35 0 -35 43z" />
<glyph unicode="&#xa9;" horiz-adv-x="1826" d="M102 713q0 168 61.5 319t167.5 262t258 176.5t324 65.5q234 0 421 -111.5t288.5 -299t101.5 -412.5q0 -166 -64 -317t-172.5 -260t-259 -173.5t-317.5 -64.5q-179 0 -330.5 61t-256.5 168.5t-163.5 258.5t-58.5 327zM233 713q0 -143 48 -269t136.5 -221t215 -150 t282.5 -55q154 0 279.5 55.5t214.5 150.5t137.5 221t48.5 268q0 95 -22.5 184.5t-65 168t-103.5 143.5t-137 111.5t-166 72.5t-190 26t-188.5 -26t-164 -72.5t-135.5 -111.5t-102.5 -143.5t-65 -167.5t-22.5 -185zM568 688q0 143 38 201q20 31 60.5 57t68.5 26q20 0 20 -24 q0 -1 -13 -75t-13 -143q0 -336 240 -336q64 0 115.5 19t80.5 37.5t38 18.5q20 0 20 -20q0 -19 -22.5 -48.5t-60 -59.5t-97 -51.5t-123.5 -21.5q-179 0 -265.5 108.5t-86.5 311.5zM603 981q0 23 26 56q65 83 144 122.5t199 39.5q54 0 110.5 -13t88.5 -37q26 -21 26 -40 q0 -22 -34.5 -52t-63.5 -30q-25 0 -58 15q-70 33 -131 33q-130 0 -251 -84q-36 -24 -44 -24q-12 0 -12 14z" />
<glyph unicode="&#xaa;" horiz-adv-x="755" d="M35 928q0 25 25 61q39 60 107.5 96.5t140.5 36.5q89 0 141 -31q25 -15 25 -44v-66q0 -23 -14 -23q-4 0 -10 2.5t-12.5 6.5t-8.5 5q-71 33 -144 33q-117 0 -203 -68q-26 -21 -35 -21q-12 0 -12 12zM50 825q0 37 26 62q18 17 49 33t50 16q24 0 24 -34q0 -84 28 -116.5 t91 -32.5q24 0 64.5 8.5t61.5 20.5q14 9 19 9q11 0 11 -16v-36q0 -24 -19 -41q-30 -28 -84.5 -46.5t-98.5 -18.5q-108 0 -165 55t-57 137zM72 1244q0 25 26 62q48 67 119.5 97.5t143.5 30.5q62 0 113 -15.5t92.5 -49t65 -92.5t23.5 -139v-400q0 -36 -42.5 -62.5t-75.5 -26.5 q-26 0 -26 31v426q0 208 -191 208q-106 0 -195 -60q-31 -22 -42 -22t-11 12z" />
<glyph unicode="&#xab;" horiz-adv-x="1384" d="M90 544q0 47 50.5 116t96.5 101l525 371q26 19 46 19q28 0 28 -30q0 -49 -30 -109q-18 -35 -47 -67.5t-54 -48.5l-533 -361q-38 -22 -57 -22q-25 0 -25 31zM185 442q0 26 45.5 57t81.5 31q31 0 59 -21l433 -336q37 -29 37 -58t-33 -76t-65 -47q-21 0 -43 18l-489 394 q-26 22 -26 38zM624 569q0 46 42 103t95 87l401 230q27 15 37 15t16 -6.5t6 -16.5q0 -4 -3 -20.5t-10.5 -42.5t-16.5 -45q-26 -55 -77 -81l-426 -229q-25 -14 -45 -14q-19 0 -19 20zM692 477q0 22 49 53.5t84 31.5q23 0 51 -18l329 -220q29 -18 29 -41t-33 -66t-60 -43 q-12 0 -34 13l-395 262q-20 13 -20 28z" />
<glyph unicode="&#xac;" horiz-adv-x="1434" d="M164 611q0 11 19 38.5t48 53.5q23 20 74 20h924q41 0 41 -42v-382q0 -51 -20 -74q-60 -67 -98 -67q-25 0 -25 43v322q0 57 -45 57h-875q-43 0 -43 31z" />
<glyph unicode="&#xad;" d="M164 563q0 13 19.5 45.5t47.5 57.5q23 20 74 20h533q43 0 43 -31q0 -12 -20 -44.5t-48 -57.5q-23 -21 -74 -21h-532q-43 0 -43 31z" />
<glyph unicode="&#xae;" horiz-adv-x="1826" d="M102 713q0 168 61.5 319t167.5 262t258 176.5t324 65.5q234 0 421 -111.5t288.5 -299t101.5 -412.5q0 -166 -64 -317t-172.5 -260t-259 -173.5t-317.5 -64.5q-179 0 -330.5 61t-256.5 168.5t-163.5 258.5t-58.5 327zM233 713q0 -143 48 -269t136.5 -221t215 -150 t282.5 -55q154 0 279.5 55.5t214.5 150.5t137.5 221t48.5 268q0 95 -22.5 184.5t-65 168t-103.5 143.5t-137 111.5t-166 72.5t-190 26t-188.5 -26t-164 -72.5t-135.5 -111.5t-102.5 -143.5t-65 -167.5t-22.5 -185zM619 278v277q0 58 73 58q72 0 72 -62v-199q0 -34 -15 -51 q-17 -21 -50.5 -37t-54.5 -16q-25 0 -25 30zM619 695v347q0 24 17.5 32.5t54.5 8.5q41 0 57 -8t16 -33v-260q0 -25 30 -25h124q31 0 31 -18q0 -16 -36.5 -39.5t-98.5 -38.5q-40 -9 -135 -9q-18 0 -29.5 2t-21 12t-9.5 29zM619 1140q0 30 41 63t83 36h138q29 0 56 -2t65 -9 t70 -19t65.5 -35t56.5 -53.5t37.5 -77t14.5 -104.5q0 -150 -154 -253q-20 -13 -20 -32q0 -16 10 -31l169 -263q16 -30 16 -43q0 -27 -38 -49q-35 -20 -57 -20q-25 0 -42 30l-200 340q-8 13 -8 27q0 18 26 32q71 39 107.5 97.5t36.5 127.5q0 65 -21.5 110t-61 68.5 t-85.5 33.5t-105 10h-172q-28 0 -28 16z" />
<glyph unicode="&#xaf;" horiz-adv-x="806" d="M80 1396q0 13 17.5 40.5t45.5 53.5q23 21 78 21h462q23 0 33 -5t10 -21q0 -12 -18 -40.5t-46 -53.5q-22 -20 -78 -20h-461q-24 0 -33.5 4.5t-9.5 20.5z" />
<glyph unicode="&#xb0;" horiz-adv-x="837" d="M100 1148q0 133 95 226t226 93q142 0 229 -91t87 -228q0 -132 -95.5 -226t-226.5 -94q-141 0 -228 91.5t-87 228.5zM245 1148q0 -39 12.5 -75t35.5 -63t55 -43t71 -16q37 0 69 16t55 43t36 63t13 75t-13.5 75t-36.5 63.5t-55.5 44t-69.5 16.5t-68.5 -16.5t-54.5 -44 t-36 -63.5t-13 -75z" />
<glyph unicode="&#xb1;" horiz-adv-x="1434" d="M164 31q0 11 19 38.5t48 53.5q23 20 74 20h922q43 0 43 -30q0 -12 -19.5 -39.5t-48.5 -53.5q-22 -20 -74 -20h-921q-43 0 -43 31zM164 684q0 11 19 38.5t48 53.5q23 20 74 20h231q28 0 38.5 -15.5t10.5 -53.5q0 -41 -10.5 -57.5t-38.5 -16.5h-329q-43 0 -43 31zM645 274 v269q0 29 15.5 39.5t54.5 10.5q41 0 57 -10.5t16 -39.5v-171q0 -51 -20 -74q-60 -67 -98 -67q-25 0 -25 43zM645 690v346q0 52 21 74q26 29 53 48.5t39 19.5q30 0 30 -43v-302q0 -22 9 -29.5t25 -7.5h405q43 0 43 -30q0 -12 -19.5 -39.5t-48.5 -53.5q-22 -20 -74 -20h-449 q-10 0 -16.5 2t-12 11t-5.5 24z" />
<glyph unicode="&#xb2;" horiz-adv-x="645" d="M54 599q0 22 14.5 54.5t28.5 42.5q16 12 44 12h412q26 0 26 -18q0 -11 -13.5 -49t-29.5 -52q-13 -12 -44 -12h-412q-26 0 -26 22zM65 1246q0 13 10.5 33.5t16.5 28.5q100 126 249 126q103 0 168.5 -57t65.5 -158q0 -51 -28 -100.5t-72 -91.5t-89.5 -80.5t-88.5 -81 t-61 -79.5q-13 -24 -30.5 -33.5t-50.5 -9.5q-50 0 -50 24q0 11 9 28q28 52 70.5 102.5t81.5 86.5t74.5 72t56.5 72.5t21 72.5q0 57 -33 85.5t-90 28.5q-81 0 -181 -69q-21 -15 -36 -15q-4 0 -8.5 4t-4.5 11z" />
<glyph unicode="&#xb3;" horiz-adv-x="654" d="M65 1289q0 19 22.5 51t43.5 51q13 12 42 12h375q25 0 25 -21q0 -12 -20 -39l-37 -44q-23 -27 -63 -27h-363q-25 0 -25 17zM66 660q0 14 17 33t23.5 26t17.5 13.5t21 6.5q19 0 42 -20q43 -35 83 -35q21 0 43 6t26 6q15 0 15 -17q0 -34 -36 -68t-112 -34q-69 0 -122 47 q-18 16 -18 36zM162 1033q0 12 11 23l136 150q17 18 34 24.5t51 6.5q53 0 53 -17q0 -12 -12 -26l-67 -79q-9 -9 -9 -17q0 -11 25 -17q101 -25 153 -84t52 -167q0 -67 -36 -121t-82.5 -79.5t-87.5 -25.5q-12 0 -12 11q0 4 24 44q38 61 38 155q0 58 -21.5 100t-59 63.5 t-79.5 31t-92 9.5q-19 0 -19 15z" />
<glyph unicode="&#xb4;" horiz-adv-x="483" d="M80 1292q0 51 40 104l186 251q19 26 36 26q23 0 42 -39.5t19 -90.5q0 -43 -33 -77l-217 -229q-21 -21 -37 -21q-18 0 -27 23t-9 53z" />
<glyph unicode="&#xb5;" horiz-adv-x="1034" d="M113 385v543q0 54 49.5 90.5t95.5 36.5q35 0 35 -43v-518q0 -72 2 -119t9 -94.5t20 -75t34.5 -50.5t53.5 -32.5t76 -9.5q84 0 151 39q18 11 23 11q18 0 18 -39q0 -45 -26 -67q-49 -44 -113 -66t-121 -22q-155 0 -231 95t-76 321zM125 -60q0 45 35 45q40 0 112 -56 q33 -25 33 -86v-318q0 -55 -49.5 -92t-95.5 -37q-35 0 -35 43v501zM731 33v896q0 52 50 89t95 37q35 0 35 -43v-896q0 -54 -49.5 -90t-95.5 -36q-35 0 -35 43z" />
<glyph unicode="&#xb6;" horiz-adv-x="1015" d="M68 1136q0 139 86.5 218.5t204.5 79.5h517q39 0 39 -43v-1778q0 -55 -49 -90t-96 -35q-35 0 -35 43v1715q0 43 -39 43h-125q-39 0 -39 -43v-1633q0 -55 -49 -90t-96 -35q-35 0 -35 43v1306q-48 4 -98 21q-82 29 -134 98.5t-52 179.5z" />
<glyph unicode="&#xb7;" horiz-adv-x="380" d="M100 662v145q0 39 18 61q26 30 61.5 49t65.5 19q35 0 35 -43v-145q0 -38 -18 -62q-26 -30 -61.5 -48.5t-65.5 -18.5q-35 0 -35 43z" />
<glyph unicode="&#xb8;" horiz-adv-x="584" d="M82 -501q0 35 38 46q89 26 146.5 71t57.5 95q0 71 -80 71q-26 0 -62.5 -8t-52.5 -8q-40 0 -40 38q0 20 52 212h115q-34 -105 -34 -115q0 -26 32 -26q14 0 46 4t50 4q69 0 109.5 -37t40.5 -107q0 -126 -155 -214q-45 -26 -113 -53t-106 -27q-17 0 -30.5 12.5t-13.5 41.5z " />
<glyph unicode="&#xb9;" horiz-adv-x="541" d="M0 1102q0 6 21 30l163 165q15 15 23 15q23 0 23 -59q0 -69 -27 -97l-46 -48q-18 -19 -37 -25t-52 -6q-68 0 -68 25zM265 597v738q0 26 12 40q15 17 54.5 32.5t58.5 15.5q21 0 21 -25v-738q0 -29 -12 -43q-14 -16 -54 -30.5t-59 -14.5q-21 0 -21 25z" />
<glyph unicode="&#xba;" horiz-adv-x="768" d="M50 1007q0 115 32 155q19 23 60.5 42.5t66.5 19.5q18 0 18 -21q0 -4 -5.5 -27t-11.5 -60.5t-6 -76.5q0 -52 3 -90t13.5 -77t28.5 -63.5t48.5 -40t72.5 -15.5q33 0 63 6t34 6q16 0 16 -16q0 -34 -42.5 -75t-113.5 -41q-66 0 -116 21t-80 55t-48.5 83.5t-25.5 101t-7 113.5 zM71 1236q0 21 34 66q58 70 133.5 101t140.5 31q161 0 250 -103t89 -292q0 -154 -54 -254q-34 -64 -78.5 -98t-77.5 -34q-15 0 -15 15q0 4 4.5 11.5t13.5 23t30 63.5t21 212q0 160 -52 248t-173 88q-63 0 -111.5 -16.5t-104.5 -55.5q-27 -18 -37 -18q-13 0 -13 12z" />
<glyph unicode="&#xbb;" horiz-adv-x="1444" d="M150 860q0 23 30 66.5t57 43.5q16 0 54 -25l525 -349q20 -14 20 -30q0 -24 -45.5 -50.5t-78.5 -26.5q-23 0 -51 18l-482 312q-29 18 -29 41zM159 163q0 44 30 107q25 52 77 81l230 125q32 17 59 17q33 0 66.5 -21t33.5 -46q0 -21 -33 -40l-404 -232q-23 -13 -38 -13 q-21 0 -21 22zM539 1042q0 28 33.5 68.5t65.5 40.5q20 0 43 -18l647 -525q26 -22 26 -42q0 -26 -41.5 -51.5t-77.5 -25.5q-29 0 -59 23l-600 472q-37 29 -37 58zM542 19q0 54 31 116q36 70 101 116l318 226q42 30 72 30q26 0 60 -31t34 -56q0 -24 -26 -43l-515 -366 q-26 -19 -46 -19q-29 0 -29 27z" />
<glyph unicode="&#xbc;" horiz-adv-x="1675" d="M0 1102q0 6 21 30l163 165q15 15 23 15q23 0 23 -59q0 -69 -27 -97l-46 -48q-18 -19 -37 -25t-52 -6q-68 0 -68 25zM215 -8q0 9 8.5 22.5t20.5 28.5l996 1317q26 35 73.5 54.5t98.5 19.5q11 0 18 -6t7 -15q0 -5 -3 -12.5t-12 -20.5l-1010 -1337q-28 -35 -73 -54.5 t-99 -19.5q-8 0 -16.5 5t-8.5 18zM265 597v738q0 26 12 40q15 17 54.5 32.5t58.5 15.5q21 0 21 -25v-738q0 -29 -12 -43q-14 -16 -54 -30.5t-59 -14.5q-21 0 -21 25zM1003 205q0 17 35 68q23 34 71 34h219q33 0 33 -64q0 -68 -33 -68h-285q-40 0 -40 30zM1103 362 q0 10 12 28l211 308q11 17 20 17q6 0 9 -4.5t4.5 -19.5t1.5 -47q0 -79 -20 -110l-106 -161q-13 -20 -33.5 -25.5t-57.5 -5.5q-41 0 -41 20zM1396 16v92q0 32 63 32q32 0 47.5 -6.5t15.5 -25.5v-29q0 -29 -12 -43q-15 -17 -45.5 -31t-47.5 -14q-21 0 -21 25zM1396 205v550 q0 26 12 40q15 18 45.5 33t48.5 15q20 0 20 -25v-476q0 -35 34 -35h81q28 0 28 -17q0 -18 -16 -45q-24 -41 -40 -55.5t-39 -14.5h-146q-28 0 -28 30z" />
<glyph unicode="&#xbd;" horiz-adv-x="1715" d="M0 1102q0 6 21 30l163 165q15 15 23 15q23 0 23 -59q0 -69 -27 -97l-46 -48q-18 -19 -37 -25t-52 -6q-68 0 -68 25zM215 -8q0 9 8.5 22.5t20.5 28.5l996 1317q26 35 73.5 54.5t98.5 19.5q11 0 18 -6t7 -15q0 -5 -3 -12.5t-12 -20.5l-1010 -1337q-28 -35 -73 -54.5 t-99 -19.5q-8 0 -16.5 5t-8.5 18zM265 597v738q0 26 12 40q15 17 54.5 32.5t58.5 15.5q21 0 21 -25v-738q0 -29 -12 -43q-14 -16 -54 -30.5t-59 -14.5q-21 0 -21 25zM1124 23q0 22 14.5 54.5t28.5 42.5q16 12 44 12h412q26 0 26 -18q0 -11 -13.5 -49t-29.5 -52 q-13 -12 -44 -12h-412q-26 0 -26 22zM1135 670q0 13 10.5 33.5t16.5 28.5q100 126 249 126q103 0 168.5 -57t65.5 -158q0 -51 -28 -100.5t-72 -91.5t-89.5 -80.5t-88.5 -81t-61 -79.5q-13 -24 -30.5 -33.5t-50.5 -9.5q-50 0 -50 24q0 11 9 28q28 52 70.5 102.5t81.5 86.5 t74.5 72t56.5 72.5t21 72.5q0 57 -33 85.5t-90 28.5q-81 0 -181 -69q-21 -15 -36 -15q-4 0 -8.5 4t-4.5 11z" />
<glyph unicode="&#xbe;" horiz-adv-x="1692" d="M35 1289q0 19 22.5 51t43.5 51q13 12 42 12h375q25 0 25 -21q0 -12 -20 -39l-37 -44q-23 -27 -63 -27h-363q-25 0 -25 17zM36 660q0 14 17 33t23.5 26t17.5 13.5t21 6.5q19 0 42 -20q43 -35 83 -35q21 0 43 6t26 6q15 0 15 -17q0 -34 -36 -68t-112 -34q-69 0 -122 47 q-18 16 -18 36zM132 1033q0 12 11 23l136 150q17 18 34 24.5t51 6.5q53 0 53 -17q0 -12 -12 -26l-67 -79q-9 -9 -9 -17q0 -11 25 -17q101 -25 153 -84t52 -167q0 -67 -36 -121t-82.5 -79.5t-87.5 -25.5q-12 0 -12 11q0 4 24 44q38 61 38 155q0 58 -21.5 100t-59 63.5 t-79.5 31t-92 9.5q-19 0 -19 15zM238 -8q0 9 8.5 22.5t20.5 28.5l996 1317q26 35 73.5 54.5t98.5 19.5q11 0 18 -6t7 -15q0 -5 -3 -12.5t-12 -20.5l-1010 -1337q-28 -35 -73 -54.5t-99 -19.5q-8 0 -16.5 5t-8.5 18zM1020 205q0 17 35 68q23 34 71 34h219q33 0 33 -64 q0 -68 -33 -68h-285q-40 0 -40 30zM1120 362q0 10 12 28l211 308q11 17 20 17q6 0 9 -4.5t4.5 -19.5t1.5 -47q0 -79 -20 -110l-106 -161q-13 -20 -33.5 -25.5t-57.5 -5.5q-41 0 -41 20zM1413 16v92q0 32 63 32q32 0 47.5 -6.5t15.5 -25.5v-29q0 -29 -12 -43 q-15 -17 -45.5 -31t-47.5 -14q-21 0 -21 25zM1413 205v550q0 26 12 40q15 18 45.5 33t48.5 15q20 0 20 -25v-476q0 -35 34 -35h81q28 0 28 -17q0 -18 -16 -45q-24 -41 -40 -55.5t-39 -14.5h-146q-28 0 -28 30z" />
<glyph unicode="&#xbf;" horiz-adv-x="882" d="M35 -51q0 70 27.5 129t67 102.5t79 86.5t67 102t27.5 129q0 49 21 74q25 30 70.5 53t74.5 23q35 0 35 -43q0 -71 -20 -135.5t-50 -109t-64.5 -91.5t-64.5 -86t-50 -89.5t-20 -103.5q0 -110 66.5 -165.5t173.5 -55.5q79 0 153.5 43t127.5 127q32 55 51 55q20 0 20 -30 q0 -28 -10 -58q-47 -141 -155.5 -218t-241.5 -77q-174 0 -279.5 86t-105.5 252zM305 771v135q0 49 21 73q25 30 70.5 53t74.5 23q35 0 35 -43v-135q0 -42 -21 -68q-27 -30 -71.5 -55.5t-73.5 -25.5q-35 0 -35 43z" />
<glyph unicode="&#xc0;" horiz-adv-x="1047" d="M2 23q0 6 4 18l96 275q7 21 15 32.5t22.5 16.5t26 6t39.5 1q23 0 34 -0.5t25.5 -3.5t20.5 -10.5t6 -20.5q0 -9 -6 -29l-56 -169q-21 -64 -73 -106.5t-117 -42.5q-16 0 -26.5 8.5t-10.5 24.5zM152 465q0 9 4 20l205 613q14 39 32 39q16 0 28 -19.5t26 -62.5 q26 -81 26 -121q0 -28 -10 -59l-78 -238q-2 -5 -2 -14q0 -27 31 -27h104q51 0 69 -5t29 -28q10 -20 16.5 -51.5t6.5 -46.5q0 -33 -43 -33h-406q-38 0 -38 33zM320 1941q0 37 11.5 57.5t25.5 20.5q6 0 13.5 -2.5t19.5 -12.5l252 -210q45 -38 64.5 -85.5t19.5 -88.5 q0 -14 -5 -23.5t-18 -9.5q-5 0 -13 2.5t-20 10.5l-279 177q-23 15 -37 33t-21.5 38.5t-10 43.5t-2.5 49zM432 1303q0 44 55.5 87.5t85.5 43.5q17 0 24.5 -8.5t16.5 -34.5l426 -1239q7 -32 7 -36q0 -43 -50 -84.5t-88 -41.5q-33 0 -51 51l-416 1214q-10 45 -10 48z" />
<glyph unicode="&#xc1;" horiz-adv-x="1047" d="M2 23q0 6 4 18l96 275q7 21 15 32.5t22.5 16.5t26 6t39.5 1q23 0 34 -0.5t25.5 -3.5t20.5 -10.5t6 -20.5q0 -9 -6 -29l-56 -169q-21 -64 -73 -106.5t-117 -42.5q-16 0 -26.5 8.5t-10.5 24.5zM152 465q0 9 4 20l205 613q14 39 32 39q16 0 28 -19.5t26 -62.5 q26 -81 26 -121q0 -28 -10 -59l-78 -238q-2 -5 -2 -14q0 -27 31 -27h104q51 0 69 -5t29 -28q10 -20 16.5 -51.5t6.5 -46.5q0 -33 -43 -33h-406q-38 0 -38 33zM320 1620q0 41 19.5 88.5t64.5 85.5l252 210q12 10 19.5 12.5t13.5 2.5q14 0 25.5 -20.5t11.5 -57.5 q0 -26 -2.5 -49t-10 -43.5t-21.5 -38.5t-37 -33l-279 -177q-12 -8 -20 -10.5t-13 -2.5q-13 0 -18 9.5t-5 23.5zM432 1303q0 44 55.5 87.5t85.5 43.5q17 0 24.5 -8.5t16.5 -34.5l426 -1239q7 -32 7 -36q0 -43 -50 -84.5t-88 -41.5q-33 0 -51 51l-416 1214q-10 45 -10 48z" />
<glyph unicode="&#xc2;" horiz-adv-x="1047" d="M2 23q0 6 4 18l96 275q7 21 15 32.5t22.5 16.5t26 6t39.5 1q23 0 34 -0.5t25.5 -3.5t20.5 -10.5t6 -20.5q0 -9 -6 -29l-56 -169q-21 -64 -73 -106.5t-117 -42.5q-16 0 -26.5 8.5t-10.5 24.5zM152 465q0 9 4 20l205 613q14 39 32 39q16 0 28 -19.5t26 -62.5 q26 -81 26 -121q0 -28 -10 -59l-78 -238q-2 -5 -2 -14q0 -27 31 -27h104q51 0 69 -5t29 -28q10 -20 16.5 -51.5t6.5 -46.5q0 -33 -43 -33h-406q-38 0 -38 33zM161 1647q0 23 6.5 49t25.5 43l293 254q17 15 28 19t22 4q10 0 20 -5t24 -18l269 -240q21 -20 29 -53t8 -59 q0 -35 -27 -35q-11 0 -30.5 9t-53.5 32l-215 152q-10 7 -18.5 11t-18.5 4q-16 0 -38 -14l-227 -147q-31 -19 -47 -27.5t-26 -8.5q-24 0 -24 30zM432 1303q0 44 55.5 87.5t85.5 43.5q17 0 24.5 -8.5t16.5 -34.5l426 -1239q7 -32 7 -36q0 -43 -50 -84.5t-88 -41.5 q-33 0 -51 51l-416 1214q-10 45 -10 48z" />
<glyph unicode="&#xc3;" horiz-adv-x="1047" d="M2 23q0 6 4 18l96 275q7 21 15 32.5t22.5 16.5t26 6t39.5 1q23 0 34 -0.5t25.5 -3.5t20.5 -10.5t6 -20.5q0 -9 -6 -29l-56 -169q-21 -64 -73 -106.5t-117 -42.5q-16 0 -26.5 8.5t-10.5 24.5zM152 465q0 9 4 20l205 613q14 39 32 39q16 0 28 -19.5t26 -62.5 q26 -81 26 -121q0 -28 -10 -59l-78 -238q-2 -5 -2 -14q0 -27 31 -27h104q51 0 69 -5t29 -28q10 -20 16.5 -51.5t6.5 -46.5q0 -33 -43 -33h-406q-38 0 -38 33zM163 1749q0 32 19.5 69.5t51.5 70t74.5 54.5t87.5 22q48 0 85 -12.5t68.5 -28t59.5 -28t60 -12.5q33 0 60 7 t48.5 17.5t38.5 22.5t30 23q11 9 20 9q18 0 18 -25q0 -36 -17.5 -75t-47.5 -71.5t-71 -53.5t-87 -21q-36 0 -70.5 13t-69 28.5t-68.5 28.5t-69 13q-29 0 -56.5 -7.5t-51 -18.5t-56.5 -32t-38 -21q-19 0 -19 28zM432 1303q0 44 55.5 87.5t85.5 43.5q17 0 24.5 -8.5 t16.5 -34.5l426 -1239q7 -32 7 -36q0 -43 -50 -84.5t-88 -41.5q-33 0 -51 51l-416 1214q-10 45 -10 48z" />
<glyph unicode="&#xc4;" horiz-adv-x="1047" d="M2 23q0 6 4 18l96 275q7 21 15 32.5t22.5 16.5t26 6t39.5 1q23 0 34 -0.5t25.5 -3.5t20.5 -10.5t6 -20.5q0 -9 -6 -29l-56 -169q-21 -64 -73 -106.5t-117 -42.5q-16 0 -26.5 8.5t-10.5 24.5zM152 465q0 9 4 20l205 613q14 39 32 39q16 0 28 -19.5t26 -62.5 q26 -81 26 -121q0 -28 -10 -59l-78 -238q-2 -5 -2 -14q0 -27 31 -27h104q51 0 69 -5t29 -28q10 -20 16.5 -51.5t6.5 -46.5q0 -33 -43 -33h-406q-38 0 -38 33zM250 1729v144q0 15 4 33.5t17 33.5t29.5 29t34.5 24.5t34.5 17t29.5 6.5q35 0 35 -43v-144q0 -20 -3.5 -38 t-17.5 -35q-13 -15 -29.5 -28t-33.5 -22.5t-34 -15t-31 -5.5q-35 0 -35 43zM432 1303q0 44 55.5 87.5t85.5 43.5q17 0 24.5 -8.5t16.5 -34.5l426 -1239q7 -32 7 -36q0 -43 -50 -84.5t-88 -41.5q-33 0 -51 51l-416 1214q-10 45 -10 48zM612 1729v144q0 15 4 33.5t17 33.5 t29.5 29t34.5 24.5t34.5 17t29.5 6.5q35 0 35 -43v-144q0 -20 -3.5 -38t-17.5 -35q-13 -15 -29.5 -28t-33.5 -22.5t-34 -15t-31 -5.5q-35 0 -35 43z" />
<glyph unicode="&#xc5;" horiz-adv-x="1047" d="M2 23q0 6 4 18l96 275q7 21 15 32.5t22.5 16.5t26 6t39.5 1q23 0 34 -0.5t25.5 -3.5t20.5 -10.5t6 -20.5q0 -9 -6 -29l-56 -169q-21 -64 -73 -106.5t-117 -42.5q-16 0 -26.5 8.5t-10.5 24.5zM152 465q0 9 4 20l205 613q14 39 32 39q16 0 28 -19.5t26 -62.5 q26 -81 26 -121q0 -28 -10 -59l-78 -238q-2 -5 -2 -14q0 -27 31 -27h104q51 0 69 -5t29 -28q10 -20 16.5 -51.5t6.5 -46.5q0 -33 -43 -33h-406q-38 0 -38 33zM297 1837q0 95 69 159t156 64q92 0 153 -51q34 -27 54.5 -70t20.5 -90q0 -106 -66.5 -169t-156.5 -63 q-95 0 -162.5 56.5t-67.5 163.5zM424 1837q0 -54 29.5 -87t72.5 -33q40 0 68.5 31t28.5 99q0 52 -27 82t-72 30q-38 0 -69 -29t-31 -93zM432 1303q0 44 55.5 87.5t85.5 43.5q17 0 24.5 -8.5t16.5 -34.5l426 -1239q7 -32 7 -36q0 -43 -50 -84.5t-88 -41.5q-33 0 -51 51 l-416 1214q-10 45 -10 48z" />
<glyph unicode="&#xc6;" horiz-adv-x="1670" d="M2 18q0 16 13 41l185 363q9 17 17.5 28t20.5 17t27.5 8.5t37.5 2.5q44 0 67 -5.5t23 -29.5q0 -18 -10 -37l-133 -267q-15 -30 -39 -57.5t-53 -47.5t-61 -32t-64 -12q-31 0 -31 28zM251 568q0 22 15 50l253 519q15 34 40 34q35 0 51 -81q11 -57 11 -105q0 -32 -17 -66 l-89 -176q-4 -10 -4 -15q0 -26 33 -26h73q27 0 40.5 -6t19.5 -27q4 -13 9 -49.5t5 -48.5q0 -33 -43 -33h-360q-37 0 -37 30zM664 1130q0 29 26.5 39t75.5 10q53 0 72 -11.5t26 -48.5l63 -376q7 -41 41 -41h417q43 0 43 -31q0 -14 -20 -50.5t-47 -61.5q-23 -21 -74 -21h-471 q-35 0 -47.5 14t-18.5 50l-80 483q-1 5 -2.5 14t-2.5 16.5t-1 14.5zM664 1269q0 37 58.5 85.5t114.5 48.5h539q43 0 43 -31q0 -14 -20 -50.5t-48 -61.5q-23 -21 -73 -21h-574q-15 0 -22 1.5t-12.5 8.5t-5.5 20zM773 430q0 29 24 38.5t72 9.5q55 0 79 -11.5t30 -47.5l38 -214 q7 -41 46 -41h493q43 0 43 -31q0 -14 -20 -51.5t-47 -61.5q-23 -20 -74 -20h-571q-47 0 -56 59l-53 336q-4 24 -4 35z" />
<glyph unicode="&#xc7;" horiz-adv-x="1106" d="M102 623q0 60 4 112.5t10.5 95.5t15.5 75.5t18 50.5q13 25 34 48t45 40t49.5 27t47.5 10q4 0 9 -1t9.5 -4t8 -9t3.5 -17q0 -18 -7 -49t-15.5 -77.5t-15.5 -109t-7 -143.5q0 -67 6 -133t21 -125.5t41.5 -110t68 -87.5t99.5 -58t137 -21q78 0 133.5 16t93.5 35.5t61 35.5 t38 16q24 0 24 -25q0 -11 -9 -33.5t-29 -49.5t-52.5 -56t-80 -53t-111 -39t-144.5 -15q-20 0 -36.5 1.5t-34.5 1.5q-11 0 -20.5 -4.5t-17.5 -22.5q-6 -13 -10.5 -26t-4.5 -18q0 -12 7 -19t25 -7q23 0 46.5 4t49.5 4q67 0 108.5 -36t41.5 -108q0 -36 -12 -67t-33 -57.5 t-49.5 -49t-60.5 -40.5q-18 -10 -46 -24t-59.5 -26.5t-62 -21t-51.5 -8.5q-14 0 -29 11t-15 43q0 12 4 20.5t10 13.5t12.5 7.5t11.5 4.5q43 12 80 30t64.5 39.5t43.5 46t16 50.5q0 22 -7.5 36t-19 22t-26 10.5t-27.5 2.5q-36 0 -62.5 -8t-52.5 -8q-40 0 -40 38q0 8 3.5 25 t5.5 25l26 95q2 9 3.5 16t1.5 13q0 22 -26 34q-75 33 -125 89.5t-81 134t-44 175t-13 212.5zM147 1100q0 9 6 22.5t14 27.5t17.5 27.5t16.5 22.5q43 53 93 96t111.5 74t135.5 47.5t166 16.5q33 0 67 -4.5t65.5 -12t60 -17t50.5 -20.5l19 -9.5t21 -13t17 -18t7 -24.5 q0 -12 -7 -25.5t-18 -26t-24 -23.5t-25 -19q-14 -11 -31 -18t-37 -7q-23 0 -43.5 9t-46.5 20q-35 15 -81.5 30t-114.5 15q-105 0 -190 -42t-160 -108q-19 -15 -37 -30t-29 -15q-9 0 -16 4.5t-7 20.5z" />
<glyph unicode="&#xc8;" horiz-adv-x="980" d="M133 1269q0 37 58.5 85.5t114.5 48.5h539q43 0 43 -31q0 -14 -20 -50.5t-48 -61.5q-23 -21 -73 -21h-574q-15 0 -22 1.5t-12.5 8.5t-5.5 20zM134 43v493q0 36 24.5 47.5t76.5 11.5q56 0 78 -11.5t22 -47.5v-331q0 -41 41 -41h489q43 0 43 -31q0 -14 -20 -51.5t-47 -61.5 q-23 -20 -74 -20h-598q-35 0 -35 43zM134 696v423q0 36 24.5 48t76.5 12q56 0 78 -11.5t22 -48.5v-259q0 -41 41 -41h407q43 0 43 -31q0 -14 -20 -50.5t-47 -61.5q-23 -21 -74 -21h-510q-41 0 -41 41zM286 1941q0 37 11.5 57.5t25.5 20.5q6 0 13.5 -2.5t19.5 -12.5l252 -210 q45 -38 64.5 -85.5t19.5 -88.5q0 -14 -5 -23.5t-18 -9.5q-5 0 -13 2.5t-20 10.5l-279 177q-23 15 -37 33t-21.5 38.5t-10 43.5t-2.5 49z" />
<glyph unicode="&#xc9;" horiz-adv-x="980" d="M133 1269q0 37 58.5 85.5t114.5 48.5h539q43 0 43 -31q0 -14 -20 -50.5t-48 -61.5q-23 -21 -73 -21h-574q-15 0 -22 1.5t-12.5 8.5t-5.5 20zM134 43v493q0 36 24.5 47.5t76.5 11.5q56 0 78 -11.5t22 -47.5v-331q0 -41 41 -41h489q43 0 43 -31q0 -14 -20 -51.5t-47 -61.5 q-23 -20 -74 -20h-598q-35 0 -35 43zM134 696v423q0 36 24.5 48t76.5 12q56 0 78 -11.5t22 -48.5v-259q0 -41 41 -41h407q43 0 43 -31q0 -14 -20 -50.5t-47 -61.5q-23 -21 -74 -21h-510q-41 0 -41 41zM286 1620q0 41 19.5 88.5t64.5 85.5l252 210q12 10 19.5 12.5t13.5 2.5 q14 0 25.5 -20.5t11.5 -57.5q0 -26 -2.5 -49t-10 -43.5t-21.5 -38.5t-37 -33l-279 -177q-12 -8 -20 -10.5t-13 -2.5q-13 0 -18 9.5t-5 23.5z" />
<glyph unicode="&#xca;" horiz-adv-x="986" d="M133 1647q0 23 6.5 49t25.5 43l293 254q17 15 28 19t22 4q10 0 20 -5t24 -18l269 -240q21 -20 29 -53t8 -59q0 -35 -27 -35q-11 0 -30.5 9t-53.5 32l-215 152q-10 7 -18.5 11t-18.5 4q-16 0 -38 -14l-227 -147q-31 -19 -47 -27.5t-26 -8.5q-24 0 -24 30zM139 1269 q0 37 58.5 85.5t114.5 48.5h539q43 0 43 -31q0 -14 -20 -50.5t-48 -61.5q-23 -21 -73 -21h-574q-15 0 -22 1.5t-12.5 8.5t-5.5 20zM140 43v493q0 36 24.5 47.5t76.5 11.5q56 0 78 -11.5t22 -47.5v-331q0 -41 41 -41h489q43 0 43 -31q0 -14 -20 -51.5t-47 -61.5 q-23 -20 -74 -20h-598q-35 0 -35 43zM140 696v423q0 36 24.5 48t76.5 12q56 0 78 -11.5t22 -48.5v-259q0 -41 41 -41h407q43 0 43 -31q0 -14 -20 -50.5t-47 -61.5q-23 -21 -74 -21h-510q-41 0 -41 41z" />
<glyph unicode="&#xcb;" horiz-adv-x="980" d="M133 1269q0 37 58.5 85.5t114.5 48.5h539q43 0 43 -31q0 -14 -20 -50.5t-48 -61.5q-23 -21 -73 -21h-574q-15 0 -22 1.5t-12.5 8.5t-5.5 20zM134 43v493q0 36 24.5 47.5t76.5 11.5q56 0 78 -11.5t22 -47.5v-331q0 -41 41 -41h489q43 0 43 -31q0 -14 -20 -51.5t-47 -61.5 q-23 -20 -74 -20h-598q-35 0 -35 43zM134 696v423q0 36 24.5 48t76.5 12q56 0 78 -11.5t22 -48.5v-259q0 -41 41 -41h407q43 0 43 -31q0 -14 -20 -50.5t-47 -61.5q-23 -21 -74 -21h-510q-41 0 -41 41zM216 1729v144q0 15 4 33.5t17 33.5t29.5 29t34.5 24.5t34.5 17t29.5 6.5 q35 0 35 -43v-144q0 -20 -3.5 -38t-17.5 -35q-13 -15 -29.5 -28t-33.5 -22.5t-34 -15t-31 -5.5q-35 0 -35 43zM578 1729v144q0 15 4 33.5t17 33.5t29.5 29t34.5 24.5t34.5 17t29.5 6.5q35 0 35 -43v-144q0 -20 -3.5 -38t-17.5 -35q-13 -15 -29.5 -28t-33.5 -22.5t-34 -15 t-31 -5.5q-35 0 -35 43z" />
<glyph unicode="&#xcc;" horiz-adv-x="672" d="M133 1941q0 37 11.5 57.5t25.5 20.5q6 0 13.5 -2.5t19.5 -12.5l252 -210q45 -38 64.5 -85.5t19.5 -88.5q0 -14 -5 -23.5t-18 -9.5q-5 0 -13 2.5t-20 10.5l-279 177q-23 15 -37 33t-21.5 38.5t-10 43.5t-2.5 49zM235 33v1241q0 42 21 67q26 31 71 56.5t74 25.5 q35 0 35 -43v-1241q0 -49 -21 -73q-25 -30 -70.5 -53t-74.5 -23q-35 0 -35 43z" />
<glyph unicode="&#xcd;" horiz-adv-x="672" d="M133 1620q0 41 19.5 88.5t64.5 85.5l252 210q12 10 19.5 12.5t13.5 2.5q14 0 25.5 -20.5t11.5 -57.5q0 -26 -2.5 -49t-10 -43.5t-21.5 -38.5t-37 -33l-279 -177q-12 -8 -20 -10.5t-13 -2.5q-13 0 -18 9.5t-5 23.5zM235 33v1241q0 42 21 67q26 31 71 56.5t74 25.5 q35 0 35 -43v-1241q0 -49 -21 -73q-25 -30 -70.5 -53t-74.5 -23q-35 0 -35 43z" />
<glyph unicode="&#xce;" horiz-adv-x="991" d="M133 1647q0 23 6.5 49t25.5 43l293 254q17 15 28 19t22 4q10 0 20 -5t24 -18l269 -240q21 -20 29 -53t8 -59q0 -35 -27 -35q-11 0 -30.5 9t-53.5 32l-215 152q-10 7 -18.5 11t-18.5 4q-16 0 -38 -14l-227 -147q-31 -19 -47 -27.5t-26 -8.5q-24 0 -24 30zM395 33v1241 q0 42 21 67q26 31 71 56.5t74 25.5q35 0 35 -43v-1241q0 -49 -21 -73q-25 -30 -70.5 -53t-74.5 -23q-35 0 -35 43z" />
<glyph unicode="&#xcf;" horiz-adv-x="812" d="M133 1729v144q0 15 4 33.5t17 33.5t29.5 29t34.5 24.5t34.5 17t29.5 6.5q35 0 35 -43v-144q0 -20 -3.5 -38t-17.5 -35q-13 -15 -29.5 -28t-33.5 -22.5t-34 -15t-31 -5.5q-35 0 -35 43zM305 33v1241q0 42 21 67q26 31 71 56.5t74 25.5q35 0 35 -43v-1241q0 -49 -21 -73 q-25 -30 -70.5 -53t-74.5 -23q-35 0 -35 43zM495 1729v144q0 15 4 33.5t17 33.5t29.5 29t34.5 24.5t34.5 17t29.5 6.5q35 0 35 -43v-144q0 -20 -3.5 -38t-17.5 -35q-13 -15 -29.5 -28t-33.5 -22.5t-34 -15t-31 -5.5q-35 0 -35 43z" />
<glyph unicode="&#xd0;" horiz-adv-x="1475" d="M133 650q0 12 19 39.5t48 53.5q23 20 74 20h62q41 0 41 41v316q0 36 24.5 48t75.5 12q56 0 78.5 -11.5t22.5 -48.5v-316q0 -41 41 -41h188q43 0 43 -31q0 -11 -19.5 -38.5t-48.5 -53.5q-23 -21 -74 -21h-532q-43 0 -43 31zM377 43v454q0 36 25 49t75 13q55 0 78 -12.5 t23 -49.5v-292q0 -41 41 -41h166q43 0 43 -25q0 -16 -25 -39t-65 -45.5t-100.5 -38.5t-121.5 -16h-104q-35 0 -35 43zM377 1264q0 21 16 45t41.5 44t57 34t53.5 15.5t42 2t46 0.5q159 0 296 -39.5t238 -125.5t158.5 -221t57.5 -327q0 -92 -18.5 -178.5t-52.5 -163.5 t-83 -141.5t-109.5 -110.5t-131.5 -72t-150 -26q-35 0 -35 23q0 18 22 28q85 39 150 91t109 124.5t67 169.5t23 226q0 128 -30.5 233t-100.5 181t-184 118.5t-281 45.5h-162q-39 0 -39 24z" />
<glyph unicode="&#xd1;" horiz-adv-x="1262" d="M133 1313q0 22 23 47q60 63 112 63q25 0 45 -32l542 -857q27 -42 33 -77.5t6 -114.5q0 -176 -37 -176q-13 0 -31 28q-3 3 -4 5l-677 1079q-12 19 -12 35zM135 33v1055q0 24 19 24q13 0 28.5 -18t50.5 -70q40 -60 60 -104q16 -37 16 -91v-690q0 -50 -20 -73 q-25 -30 -63.5 -53t-58.5 -23q-32 0 -32 43zM270 1749q0 32 19.5 69.5t51.5 70t74.5 54.5t87.5 22q48 0 85 -12.5t68.5 -28t59.5 -28t60 -12.5q33 0 60 7t48.5 17.5t38.5 22.5t30 23q11 9 20 9q18 0 18 -25q0 -36 -17.5 -75t-47.5 -71.5t-71 -53.5t-87 -21q-36 0 -70.5 13 t-69 28.5t-68.5 28.5t-69 13q-29 0 -56.5 -7.5t-51 -18.5t-56.5 -32t-38 -21q-19 0 -19 28zM954 43v1251q0 59 50.5 94t89.5 35q34 0 34 -43v-1241q0 -50 -20 -73q-26 -30 -63.5 -53t-59.5 -23q-9 0 -14.5 2t-11 14.5t-5.5 36.5z" />
<glyph unicode="&#xd2;" horiz-adv-x="1309" d="M102 637q0 247 50 342q28 52 80 84.5t87 32.5q31 0 31 -37q0 -9 -10 -62.5t-20 -141.5t-10 -181q0 -72 4.5 -131t15.5 -124t34 -113.5t57 -89t87 -62t121 -21.5q60 0 106 12.5t71 24.5t34 12q22 0 22 -24q0 -25 -19 -56t-53 -61.5t-92 -51t-125 -20.5q-135 0 -228 44.5 t-145.5 134.5t-75 208t-22.5 281zM147 1114q0 31 43 86q90 115 212 174.5t257 59.5q136 0 238.5 -41t171 -125.5t103 -214.5t34.5 -308q0 -135 -14 -241t-40.5 -188.5t-65 -143t-88.5 -103.5q-60 -53 -103 -53q-21 0 -21 25q0 8 15 27.5t29 46.5q80 151 80 458v128 t-9.5 150.5t-32.5 152.5t-70 134t-122.5 95.5t-188.5 36.5q-88 0 -172 -33t-167 -98l-32 -25q-9 -8 -20 -14t-16 -6q-21 0 -21 20zM451 1941q0 37 11.5 57.5t25.5 20.5q6 0 13.5 -2.5t19.5 -12.5l252 -210q45 -38 64.5 -85.5t19.5 -88.5q0 -14 -5 -23.5t-18 -9.5 q-5 0 -13 2.5t-20 10.5l-279 177q-23 15 -37 33t-21.5 38.5t-10 43.5t-2.5 49z" />
<glyph unicode="&#xd3;" horiz-adv-x="1309" d="M102 637q0 247 50 342q28 52 80 84.5t87 32.5q31 0 31 -37q0 -9 -10 -62.5t-20 -141.5t-10 -181q0 -72 4.5 -131t15.5 -124t34 -113.5t57 -89t87 -62t121 -21.5q60 0 106 12.5t71 24.5t34 12q22 0 22 -24q0 -25 -19 -56t-53 -61.5t-92 -51t-125 -20.5q-135 0 -228 44.5 t-145.5 134.5t-75 208t-22.5 281zM147 1114q0 31 43 86q90 115 212 174.5t257 59.5q136 0 238.5 -41t171 -125.5t103 -214.5t34.5 -308q0 -135 -14 -241t-40.5 -188.5t-65 -143t-88.5 -103.5q-60 -53 -103 -53q-21 0 -21 25q0 8 15 27.5t29 46.5q80 151 80 458v128 t-9.5 150.5t-32.5 152.5t-70 134t-122.5 95.5t-188.5 36.5q-88 0 -172 -33t-167 -98l-32 -25q-9 -8 -20 -14t-16 -6q-21 0 -21 20zM451 1620q0 41 19.5 88.5t64.5 85.5l252 210q12 10 19.5 12.5t13.5 2.5q14 0 25.5 -20.5t11.5 -57.5q0 -26 -2.5 -49t-10 -43.5t-21.5 -38.5 t-37 -33l-279 -177q-12 -8 -20 -10.5t-13 -2.5q-13 0 -18 9.5t-5 23.5z" />
<glyph unicode="&#xd4;" horiz-adv-x="1309" d="M102 637q0 247 50 342q28 52 80 84.5t87 32.5q31 0 31 -37q0 -9 -10 -62.5t-20 -141.5t-10 -181q0 -72 4.5 -131t15.5 -124t34 -113.5t57 -89t87 -62t121 -21.5q60 0 106 12.5t71 24.5t34 12q22 0 22 -24q0 -25 -19 -56t-53 -61.5t-92 -51t-125 -20.5q-135 0 -228 44.5 t-145.5 134.5t-75 208t-22.5 281zM147 1114q0 31 43 86q90 115 212 174.5t257 59.5q136 0 238.5 -41t171 -125.5t103 -214.5t34.5 -308q0 -135 -14 -241t-40.5 -188.5t-65 -143t-88.5 -103.5q-60 -53 -103 -53q-21 0 -21 25q0 8 15 27.5t29 46.5q80 151 80 458v128 t-9.5 150.5t-32.5 152.5t-70 134t-122.5 95.5t-188.5 36.5q-88 0 -172 -33t-167 -98l-32 -25q-9 -8 -20 -14t-16 -6q-21 0 -21 20zM292 1647q0 23 6.5 49t25.5 43l293 254q17 15 28 19t22 4q10 0 20 -5t24 -18l269 -240q21 -20 29 -53t8 -59q0 -35 -27 -35q-11 0 -30.5 9 t-53.5 32l-215 152q-10 7 -18.5 11t-18.5 4q-16 0 -38 -14l-227 -147q-31 -19 -47 -27.5t-26 -8.5q-24 0 -24 30z" />
<glyph unicode="&#xd5;" horiz-adv-x="1309" d="M102 637q0 247 50 342q28 52 80 84.5t87 32.5q31 0 31 -37q0 -9 -10 -62.5t-20 -141.5t-10 -181q0 -72 4.5 -131t15.5 -124t34 -113.5t57 -89t87 -62t121 -21.5q60 0 106 12.5t71 24.5t34 12q22 0 22 -24q0 -25 -19 -56t-53 -61.5t-92 -51t-125 -20.5q-135 0 -228 44.5 t-145.5 134.5t-75 208t-22.5 281zM147 1114q0 31 43 86q90 115 212 174.5t257 59.5q136 0 238.5 -41t171 -125.5t103 -214.5t34.5 -308q0 -135 -14 -241t-40.5 -188.5t-65 -143t-88.5 -103.5q-60 -53 -103 -53q-21 0 -21 25q0 8 15 27.5t29 46.5q80 151 80 458v128 t-9.5 150.5t-32.5 152.5t-70 134t-122.5 95.5t-188.5 36.5q-88 0 -172 -33t-167 -98l-32 -25q-9 -8 -20 -14t-16 -6q-21 0 -21 20zM294 1749q0 32 19.5 69.5t51.5 70t74.5 54.5t87.5 22q48 0 85 -12.5t68.5 -28t59.5 -28t60 -12.5q33 0 60 7t48.5 17.5t38.5 22.5t30 23 q11 9 20 9q18 0 18 -25q0 -36 -17.5 -75t-47.5 -71.5t-71 -53.5t-87 -21q-36 0 -70.5 13t-69 28.5t-68.5 28.5t-69 13q-29 0 -56.5 -7.5t-51 -18.5t-56.5 -32t-38 -21q-19 0 -19 28z" />
<glyph unicode="&#xd6;" horiz-adv-x="1309" d="M102 637q0 247 50 342q28 52 80 84.5t87 32.5q31 0 31 -37q0 -9 -10 -62.5t-20 -141.5t-10 -181q0 -72 4.5 -131t15.5 -124t34 -113.5t57 -89t87 -62t121 -21.5q60 0 106 12.5t71 24.5t34 12q22 0 22 -24q0 -25 -19 -56t-53 -61.5t-92 -51t-125 -20.5q-135 0 -228 44.5 t-145.5 134.5t-75 208t-22.5 281zM147 1114q0 31 43 86q90 115 212 174.5t257 59.5q136 0 238.5 -41t171 -125.5t103 -214.5t34.5 -308q0 -135 -14 -241t-40.5 -188.5t-65 -143t-88.5 -103.5q-60 -53 -103 -53q-21 0 -21 25q0 8 15 27.5t29 46.5q80 151 80 458v128 t-9.5 150.5t-32.5 152.5t-70 134t-122.5 95.5t-188.5 36.5q-88 0 -172 -33t-167 -98l-32 -25q-9 -8 -20 -14t-16 -6q-21 0 -21 20zM381 1729v144q0 15 4 33.5t17 33.5t29.5 29t34.5 24.5t34.5 17t29.5 6.5q35 0 35 -43v-144q0 -20 -3.5 -38t-17.5 -35q-13 -15 -29.5 -28 t-33.5 -22.5t-34 -15t-31 -5.5q-35 0 -35 43zM743 1729v144q0 15 4 33.5t17 33.5t29.5 29t34.5 24.5t34.5 17t29.5 6.5q35 0 35 -43v-144q0 -20 -3.5 -38t-17.5 -35q-13 -15 -29.5 -28t-33.5 -22.5t-34 -15t-31 -5.5q-35 0 -35 43z" />
<glyph unicode="&#xd7;" horiz-adv-x="1434" d="M165 130q0 9 20 31l361 392q19 20 34 20q19 0 48 -32t29 -50q0 -13 -17 -33l-292 -322q-23 -23 -43.5 -31t-60.5 -8q-79 0 -79 33zM167 1132q0 32 81 32q38 0 58.5 -8.5t42.5 -30.5l291 -322q20 -23 20 -35q0 -20 -31.5 -48t-50.5 -28q-17 0 -33 17l-359 391 q-19 21 -19 32zM638 630q0 14 12 27l436 467q22 23 43 31t62 8q45 0 61.5 -7.5t16.5 -22.5q0 -12 -19 -33l-412 -443q-14 -16 -14 -26t12 -24l415 -446q18 -22 18 -30q0 -17 -15.5 -25.5t-65.5 -8.5q-38 0 -58.5 8.5t-42.5 31.5l-439 470q-10 12 -10 23z" />
<glyph unicode="&#xd8;" horiz-adv-x="1309" d="M102 637q0 247 50 342q28 52 80 84.5t87 32.5q31 0 31 -37q0 -9 -12.5 -62.5t-25 -141.5t-12.5 -181q0 -140 15 -233q4 -36 4 -40q0 -71 -54 -143q-38 -50 -69 -50q-46 0 -70 128.5t-24 300.5zM142 -100q0 16 22 56l810 1433q20 38 46 60t67 31q43 9 63 9q27 0 27 -25 q0 -15 -15 -41l-73 -129q-9 -16 -9 -27t10 -27q116 -174 116 -495q0 -363 -100 -538q-47 -84 -108 -137.5t-103 -53.5q-21 0 -21 23q0 7 5.5 16t17.5 26t21 34q43 81 66.5 207.5t23.5 250.5q0 276 -45 419q-6 21 -21 21q-14 0 -25 -20l-441 -775q-10 -17 -10 -30 q0 -20 30 -34q58 -25 133 -25q60 0 106 13.5t71 26.5t34 13q22 0 22 -24q0 -25 -19 -56t-53 -61.5t-92 -51t-125 -20.5q-96 0 -171 23q-17 5 -26 5q-24 0 -50 -44q-18 -32 -69 -53t-91 -20q-24 0 -24 20zM147 1114q0 30 43 86q89 115 212 174.5t257 59.5q219 0 219 -67 q0 -23 -18 -58q-22 -41 -37 -56.5t-35 -15.5q-16 0 -63 15q-67 21 -150 21q-33 0 -72.5 -6t-117.5 -38.5t-149 -89.5q-5 -4 -16 -12.5t-16 -12.5t-13 -9.5t-13.5 -8t-9.5 -2.5q-21 0 -21 20z" />
<glyph unicode="&#xd9;" horiz-adv-x="1282" d="M133 655v619q0 42 21 67q26 31 71 56.5t74 25.5q35 0 35 -43v-708q0 -65 1.5 -110.5t8 -106.5t17.5 -102.5t32.5 -86.5t51 -71.5t74.5 -44t102 -17.5q60 0 106 12.5t70.5 24.5t33.5 12q23 0 23 -24q0 -25 -19 -56t-53 -61.5t-92 -51t-125 -20.5q-104 0 -180.5 32.5 t-124.5 88.5t-76.5 145t-39.5 188.5t-11 231.5zM438 1941q0 37 11.5 57.5t25.5 20.5q6 0 13.5 -2.5t19.5 -12.5l252 -210q45 -38 64.5 -85.5t19.5 -88.5q0 -14 -5 -23.5t-18 -9.5q-5 0 -13 2.5t-20 10.5l-279 177q-23 15 -37 33t-21.5 38.5t-10 43.5t-2.5 49zM868 37 q0 8 6 17.5t17.5 26.5t19.5 34q64 133 64 442v737q0 60 50.5 94.5t88.5 34.5q35 0 35 -43v-614q0 -384 -78 -561q-39 -88 -89 -138.5t-93 -50.5q-21 0 -21 21z" />
<glyph unicode="&#xda;" horiz-adv-x="1282" d="M133 655v619q0 42 21 67q26 31 71 56.5t74 25.5q35 0 35 -43v-708q0 -65 1.5 -110.5t8 -106.5t17.5 -102.5t32.5 -86.5t51 -71.5t74.5 -44t102 -17.5q60 0 106 12.5t70.5 24.5t33.5 12q23 0 23 -24q0 -25 -19 -56t-53 -61.5t-92 -51t-125 -20.5q-104 0 -180.5 32.5 t-124.5 88.5t-76.5 145t-39.5 188.5t-11 231.5zM438 1620q0 41 19.5 88.5t64.5 85.5l252 210q12 10 19.5 12.5t13.5 2.5q14 0 25.5 -20.5t11.5 -57.5q0 -26 -2.5 -49t-10 -43.5t-21.5 -38.5t-37 -33l-279 -177q-12 -8 -20 -10.5t-13 -2.5q-13 0 -18 9.5t-5 23.5zM868 37 q0 8 6 17.5t17.5 26.5t19.5 34q64 133 64 442v737q0 60 50.5 94.5t88.5 34.5q35 0 35 -43v-614q0 -384 -78 -561q-39 -88 -89 -138.5t-93 -50.5q-21 0 -21 21z" />
<glyph unicode="&#xdb;" horiz-adv-x="1282" d="M133 655v619q0 42 21 67q26 31 71 56.5t74 25.5q35 0 35 -43v-708q0 -65 1.5 -110.5t8 -106.5t17.5 -102.5t32.5 -86.5t51 -71.5t74.5 -44t102 -17.5q60 0 106 12.5t70.5 24.5t33.5 12q23 0 23 -24q0 -25 -19 -56t-53 -61.5t-92 -51t-125 -20.5q-104 0 -180.5 32.5 t-124.5 88.5t-76.5 145t-39.5 188.5t-11 231.5zM278 1647q0 23 6.5 49t25.5 43l293 254q17 15 28 19t22 4q10 0 20 -5t24 -18l269 -240q21 -20 29 -53t8 -59q0 -35 -27 -35q-11 0 -30.5 9t-53.5 32l-215 152q-10 7 -18.5 11t-18.5 4q-16 0 -38 -14l-227 -147 q-31 -19 -47 -27.5t-26 -8.5q-24 0 -24 30zM868 37q0 8 6 17.5t17.5 26.5t19.5 34q64 133 64 442v737q0 60 50.5 94.5t88.5 34.5q35 0 35 -43v-614q0 -384 -78 -561q-39 -88 -89 -138.5t-93 -50.5q-21 0 -21 21z" />
<glyph unicode="&#xdc;" horiz-adv-x="1282" d="M133 655v619q0 42 21 67q26 31 71 56.5t74 25.5q35 0 35 -43v-708q0 -65 1.5 -110.5t8 -106.5t17.5 -102.5t32.5 -86.5t51 -71.5t74.5 -44t102 -17.5q60 0 106 12.5t70.5 24.5t33.5 12q23 0 23 -24q0 -25 -19 -56t-53 -61.5t-92 -51t-125 -20.5q-104 0 -180.5 32.5 t-124.5 88.5t-76.5 145t-39.5 188.5t-11 231.5zM368 1729v144q0 15 4 33.5t17 33.5t29.5 29t34.5 24.5t34.5 17t29.5 6.5q35 0 35 -43v-144q0 -20 -3.5 -38t-17.5 -35q-13 -15 -29.5 -28t-33.5 -22.5t-34 -15t-31 -5.5q-35 0 -35 43zM730 1729v144q0 15 4 33.5t17 33.5 t29.5 29t34.5 24.5t34.5 17t29.5 6.5q35 0 35 -43v-144q0 -20 -3.5 -38t-17.5 -35q-13 -15 -29.5 -28t-33.5 -22.5t-34 -15t-31 -5.5q-35 0 -35 43zM868 37q0 8 6 17.5t17.5 26.5t19.5 34q64 133 64 442v737q0 60 50.5 94.5t88.5 34.5q35 0 35 -43v-614q0 -384 -78 -561 q-39 -88 -89 -138.5t-93 -50.5q-21 0 -21 21z" />
<glyph unicode="&#xdd;" horiz-adv-x="1077" d="M21 1312q0 22 16.5 42t40 35.5t48.5 24.5t43 9q39 0 58 -41l260 -555q24 -51 24 -84q0 -23 -10 -53t-25 -57t-32.5 -46t-33.5 -19q-22 0 -41 37l-334 665q-14 22 -14 42zM335 1620q0 41 19.5 88.5t64.5 85.5l252 210q12 10 19.5 12.5t13.5 2.5q14 0 25.5 -20.5 t11.5 -57.5q0 -26 -2.5 -49t-10 -43.5t-21.5 -38.5t-37 -33l-279 -177q-12 -8 -20 -10.5t-13 -2.5q-13 0 -18 9.5t-5 23.5zM451 30l6 308q2 88 39 178l309 750q23 55 43 77q31 34 86.5 57t89.5 23q33 0 33 -28q0 -15 -15 -49l-346 -793q-14 -33 -20.5 -51.5t-12.5 -50.5 t-6 -69l-6 -243q-2 -51 -20 -73q-25 -30 -71 -53t-75 -23q-34 0 -34 40z" />
<glyph unicode="&#xde;" horiz-adv-x="1061" d="M133 33v145q0 36 25.5 49t75.5 13q55 0 77.5 -12.5t22.5 -49.5v-39q0 -49 -21 -73q-25 -30 -70.5 -53t-74.5 -23q-35 0 -35 43zM133 373v493q0 36 24.5 47.5t75.5 11.5q56 0 78.5 -11.5t22.5 -47.5v-379q0 -41 38 -41h167q43 0 43 -25q0 -22 -44 -54.5t-111 -53.5 q-42 -13 -208 -13q-51 0 -68.5 18t-17.5 55zM133 1023v251q0 42 21 67q26 31 71 56.5t74 25.5q35 0 35 -43v-193q0 -41 39 -41q108 0 166 -1q56 -1 110 -10.5t118 -38.5t111 -75t79 -127t32 -186q0 -33 -8 -72t-24.5 -85t-48 -89t-73.5 -80.5t-105 -64t-138 -35.5h-6 q-27 0 -27 23q0 14 23 28q109 68 151.5 149t42.5 187q0 173 -100.5 243t-294.5 70h-209q-39 0 -39 41z" />
<glyph unicode="&#xdf;" horiz-adv-x="1227" d="M-31 872q0 27 43.5 74.5t69.5 47.5q22 0 22 -33v-58q0 -25 -11 -39t-42 -14h-47q-35 0 -35 22zM156 33v713q0 19 7 30t19.5 16.5t29 6.5t34.5 1q19 0 35.5 -1.5t28.5 -7t19 -16.5t7 -29v-630q0 -26 -14.5 -49t-36 -40t-47.5 -27t-48 -10q-34 0 -34 43zM156 903v36 q0 205 45 259q24 29 59.5 50t56.5 21q33 0 33 -34q0 -6 -4.5 -62t-4.5 -119v-151q0 -33 -19.5 -43t-74.5 -10q-52 0 -71.5 10t-19.5 43zM176 1285q0 21 20 51.5t51 61.5t66.5 57t67.5 40q96 41 182 41q117 0 193 -36.5t120.5 -95t62 -131t17.5 -144.5q0 -60 -6 -97 t-24.5 -58t-54 -28t-93.5 -7q-53 0 -94 -9.5t-69.5 -22.5t-46 -25t-23.5 -16q-28 -19 -41 -21q-14 0 -14 18q0 15 16.5 39.5t42 50.5t57.5 49.5t64 36.5q37 15 59 26t33.5 22.5t14.5 26t3 36.5q0 34 -10 76.5t-39 79.5t-81.5 62t-137.5 25q-145 0 -266 -96q-38 -29 -53 -29 q-17 0 -17 17zM480 715q0 47 48 83.5t81 36.5q23 0 31 -31q14 -58 23.5 -84t33.5 -52.5t62 -39t107 -24.5q279 -48 279 -307q0 -61 -21.5 -117t-52.5 -91.5t-63.5 -57t-55.5 -21.5q-16 0 -16 15q0 6 16 30q47 76 47 172q0 101 -52.5 148t-154.5 62q-77 11 -134.5 32.5 t-90.5 47.5t-53.5 61t-27 66.5t-6.5 70.5zM492 86q0 34 42.5 67t83.5 33q27 0 51 -22q23 -20 33.5 -28t32.5 -15.5t51 -7.5q44 0 77 13t35 13q23 0 23 -24q0 -17 -11.5 -39.5t-34.5 -47.5t-69 -42t-106 -17q-82 0 -145 37t-63 80z" />
<glyph unicode="&#xe0;" horiz-adv-x="1001" d="M119 384q0 28 20 61q53 89 139.5 135.5t192.5 46.5q81 0 143 -31q19 -10 26 -26.5t7 -61.5q0 -40 -6.5 -57.5t-23.5 -17.5q-11 0 -31 9q-94 41 -170 41q-123 0 -234 -89q-35 -28 -47 -28q-16 0 -16 18zM125 213q0 74 51 113q46 36 80 36q11 0 19 -8t8 -24 q0 -114 39 -165.5t139 -51.5q30 0 73 10.5t73 28.5q18 11 27 11q14 0 14 -37q0 -46 -26 -70q-42 -38 -104 -62.5t-119 -24.5q-133 0 -203.5 70.5t-70.5 173.5zM145 823q0 28 31 66q136 166 344 166q84 0 151 -22t113 -70.5t70.5 -125t24.5 -184.5v-542q0 -25 -15.5 -47 t-38 -38.5t-48 -26t-44.5 -9.5q-35 0 -35 43v583q0 295 -234 295q-136 0 -247 -75q-44 -29 -57 -29q-15 0 -15 16zM338 1540q0 51 19.5 92t43.5 41q17 0 36 -26l186 -251q40 -54 40 -102q0 -81 -36 -81q-16 0 -37 21l-219 229q-33 34 -33 77z" />
<glyph unicode="&#xe1;" horiz-adv-x="1001" d="M119 384q0 28 20 61q53 89 139.5 135.5t192.5 46.5q81 0 143 -31q19 -10 26 -26.5t7 -61.5q0 -40 -6.5 -57.5t-23.5 -17.5q-11 0 -31 9q-94 41 -170 41q-123 0 -234 -89q-35 -28 -47 -28q-16 0 -16 18zM125 213q0 74 51 113q46 36 80 36q11 0 19 -8t8 -24 q0 -114 39 -165.5t139 -51.5q30 0 73 10.5t73 28.5q18 11 27 11q14 0 14 -37q0 -46 -26 -70q-42 -38 -104 -62.5t-119 -24.5q-133 0 -203.5 70.5t-70.5 173.5zM145 823q0 28 31 66q136 166 344 166q84 0 151 -22t113 -70.5t70.5 -125t24.5 -184.5v-542q0 -25 -15.5 -47 t-38 -38.5t-48 -26t-44.5 -9.5q-35 0 -35 43v583q0 295 -234 295q-136 0 -247 -75q-44 -29 -57 -29q-15 0 -15 16zM339 1292q0 51 40 104l186 251q19 26 36 26q23 0 42 -39.5t19 -90.5q0 -43 -33 -77l-217 -229q-21 -21 -37 -21q-18 0 -27 23t-9 53z" />
<glyph unicode="&#xe2;" horiz-adv-x="1001" d="M119 384q0 28 20 61q53 89 139.5 135.5t192.5 46.5q81 0 143 -31q19 -10 26 -26.5t7 -61.5q0 -40 -6.5 -57.5t-23.5 -17.5q-11 0 -31 9q-94 41 -170 41q-123 0 -234 -89q-35 -28 -47 -28q-16 0 -16 18zM125 213q0 74 51 113q46 36 80 36q11 0 19 -8t8 -24 q0 -114 39 -165.5t139 -51.5q30 0 73 10.5t73 28.5q18 11 27 11q14 0 14 -37q0 -46 -26 -70q-42 -38 -104 -62.5t-119 -24.5q-133 0 -203.5 70.5t-70.5 173.5zM145 823q0 28 31 66q136 166 344 166q84 0 151 -22t113 -70.5t70.5 -125t24.5 -184.5v-542q0 -25 -15.5 -47 t-38 -38.5t-48 -26t-44.5 -9.5q-35 0 -35 43v583q0 295 -234 295q-136 0 -247 -75q-44 -29 -57 -29q-15 0 -15 16zM200 1298q0 47 22 69l240 251q27 26 49 26q19 0 45 -26l218 -241q27 -28 27 -74q0 -22 -8 -43t-26 -21q-23 0 -72 45l-158 150q-25 23 -36 23q-14 0 -40 -23 l-163 -147q-50 -43 -70 -43q-28 0 -28 54z" />
<glyph unicode="&#xe3;" horiz-adv-x="1001" d="M119 384q0 28 20 61q53 89 139.5 135.5t192.5 46.5q81 0 143 -31q19 -10 26 -26.5t7 -61.5q0 -40 -6.5 -57.5t-23.5 -17.5q-11 0 -31 9q-94 41 -170 41q-123 0 -234 -89q-35 -28 -47 -28q-16 0 -16 18zM125 213q0 74 51 113q46 36 80 36q11 0 19 -8t8 -24 q0 -114 39 -165.5t139 -51.5q30 0 73 10.5t73 28.5q18 11 27 11q14 0 14 -37q0 -46 -26 -70q-42 -38 -104 -62.5t-119 -24.5q-133 0 -203.5 70.5t-70.5 173.5zM145 823q0 28 31 66q136 166 344 166q84 0 151 -22t113 -70.5t70.5 -125t24.5 -184.5v-542q0 -25 -15.5 -47 t-38 -38.5t-48 -26t-44.5 -9.5q-35 0 -35 43v583q0 295 -234 295q-136 0 -247 -75q-44 -29 -57 -29q-15 0 -15 16zM162 1331q0 75 65.5 146.5t151.5 71.5q55 0 104.5 -25.5t90 -50.5t74.5 -25q31 0 57 10t39 21t31 30t25 25q11 9 20 9q18 0 18 -25q0 -80 -55.5 -152.5 t-142.5 -72.5q-48 0 -139.5 51.5t-137.5 51.5q-35 0 -64.5 -14t-62.5 -42t-41 -33.5t-14 -5.5q-19 0 -19 30z" />
<glyph unicode="&#xe4;" horiz-adv-x="1001" d="M119 384q0 28 20 61q53 89 139.5 135.5t192.5 46.5q81 0 143 -31q19 -10 26 -26.5t7 -61.5q0 -40 -6.5 -57.5t-23.5 -17.5q-11 0 -31 9q-94 41 -170 41q-123 0 -234 -89q-35 -28 -47 -28q-16 0 -16 18zM125 213q0 74 51 113q46 36 80 36q11 0 19 -8t8 -24 q0 -114 39 -165.5t139 -51.5q30 0 73 10.5t73 28.5q18 11 27 11q14 0 14 -37q0 -46 -26 -70q-42 -38 -104 -62.5t-119 -24.5q-133 0 -203.5 70.5t-70.5 173.5zM145 823q0 28 31 66q136 166 344 166q84 0 151 -22t113 -70.5t70.5 -125t24.5 -184.5v-542q0 -25 -15.5 -47 t-38 -38.5t-48 -26t-44.5 -9.5q-35 0 -35 43v583q0 295 -234 295q-136 0 -247 -75q-44 -29 -57 -29q-15 0 -15 16zM248 1302v145q0 39 18 61q26 30 58 49t54 19q35 0 35 -43v-145q0 -40 -18 -62q-24 -30 -56.5 -48.5t-55.5 -18.5q-35 0 -35 43zM588 1302v145q0 39 18 61 q26 30 58 49t54 19q35 0 35 -43v-145q0 -40 -18 -62q-24 -30 -56.5 -48.5t-55.5 -18.5q-35 0 -35 43z" />
<glyph unicode="&#xe5;" horiz-adv-x="1001" d="M119 384q0 28 20 61q53 89 139.5 135.5t192.5 46.5q81 0 143 -31q19 -10 26 -26.5t7 -61.5q0 -40 -6.5 -57.5t-23.5 -17.5q-11 0 -31 9q-94 41 -170 41q-123 0 -234 -89q-35 -28 -47 -28q-16 0 -16 18zM125 213q0 74 51 113q46 36 80 36q11 0 19 -8t8 -24 q0 -114 39 -165.5t139 -51.5q30 0 73 10.5t73 28.5q18 11 27 11q14 0 14 -37q0 -46 -26 -70q-42 -38 -104 -62.5t-119 -24.5q-133 0 -203.5 70.5t-70.5 173.5zM145 823q0 28 31 66q136 166 344 166q84 0 151 -22t113 -70.5t70.5 -125t24.5 -184.5v-542q0 -25 -15.5 -47 t-38 -38.5t-48 -26t-44.5 -9.5q-35 0 -35 43v583q0 295 -234 295q-136 0 -247 -75q-44 -29 -57 -29q-15 0 -15 16zM274 1427q0 95 69 159t156 64q92 0 153 -51q34 -27 54.5 -70t20.5 -90q0 -106 -66.5 -169t-156.5 -63q-95 0 -162.5 56.5t-67.5 163.5zM401 1427 q0 -54 29.5 -87t72.5 -33q40 0 68.5 31t28.5 99q0 52 -27 82t-72 30q-38 0 -69 -29t-31 -93z" />
<glyph unicode="&#xe6;" horiz-adv-x="1511" d="M119 384q0 28 20 61q57 96 147 147t200 51q89 0 133 -22q13 -7 18.5 -12.5t10 -21t4.5 -42.5q0 -82 -31 -82q-13 0 -66 18t-104 18q-76 0 -137.5 -24.5t-131.5 -80.5q-35 -28 -47 -28q-16 0 -16 18zM125 213q0 74 51 113q46 36 80 36q11 0 19 -8t8 -24q0 -113 37 -165 t126 -52q36 0 69 10.5t50.5 21t42.5 29.5q4 3 11 8.5t10.5 8t8.5 5t10 2.5q18 0 28 -42q4 -12 4 -26q0 -15 -20 -41q-45 -56 -116 -88t-145 -32q-133 0 -203.5 70.5t-70.5 173.5zM145 823q0 27 31 66q137 166 344 166q84 0 146 -20.5t116 -71.5q21 -21 41 -21q16 0 43 19 q123 94 247 94q145 0 232.5 -69.5t87.5 -205.5q0 -155 -141.5 -250t-390.5 -95q-66 0 -157 8q-45 3 -45 44q0 202 115 271q52 30 76 30t24 -30q0 -12 -13 -68.5t-13 -72.5q0 -28 17.5 -35.5t51.5 -7.5q69 0 122 13.5t83.5 34.5t49.5 49t25.5 52.5t6.5 50.5q0 59 -41.5 98 t-134.5 39q-124 0 -260 -94q-57 -41 -88 -41q-34 0 -63 39q-70 96 -193 96q-136 0 -247 -75q-43 -29 -57 -29q-15 0 -15 16zM706 305q0 24 2 36t10 25.5t28 18.5t54 5q56 0 71.5 -9t16.5 -45q2 -69 22 -115t56 -68.5t75.5 -31t92.5 -8.5q57 0 106.5 14t77 31t51 31t33.5 14 q23 0 23 -25q0 -21 -22 -54t-62.5 -68.5t-114 -61t-160.5 -25.5q-360 0 -360 336z" />
<glyph unicode="&#xe7;" horiz-adv-x="930" d="M92 459q0 79 12.5 141.5t32.5 93.5q11 18 30 35t40 30.5t42 22t38 8.5q11 0 17.5 -5.5t6.5 -22.5q0 -11 -4.5 -33t-10.5 -54.5t-10.5 -74t-4.5 -92.5q0 -89 15 -161.5t48.5 -124t87 -79.5t129.5 -28q64 0 109.5 13.5t77.5 30t52.5 30.5t33.5 14q11 0 17.5 -5t6.5 -18 q0 -21 -25.5 -56.5t-72 -70t-111.5 -59.5t-145 -25q-16 0 -31 1.5t-29 1.5t-23 -5t-16 -27q-5 -17 -7 -27t-2 -15q0 -12 7 -17.5t25 -5.5q23 0 46.5 4t49.5 4q67 0 108.5 -36t41.5 -108q0 -36 -12 -67t-33 -57.5t-49.5 -49t-60.5 -40.5q-18 -10 -46 -24t-59.5 -26.5t-62 -21 t-51.5 -8.5q-14 0 -29 11t-15 43q0 12 4 20.5t10 13.5t12.5 7.5t11.5 4.5q43 12 80 30t64.5 39.5t43.5 46t16 50.5q0 22 -7.5 36t-19 22t-26 10.5t-27.5 2.5q-36 0 -62.5 -8t-52.5 -8q-40 0 -40 38q0 8 3.5 25t5.5 25l29 109q2 6 3 12t1 11q0 16 -7 22.5t-12 9.5 q-101 56 -147.5 168t-46.5 273zM133 801q0 7 3.5 16.5t9 19t10.5 17.5t8 12q36 46 75.5 81.5t87.5 59.5t106 36t132 12q29 0 61.5 -3.5t64 -11t59 -18t47.5 -25.5q14 -11 22 -21t8 -26q0 -12 -11 -28.5t-28 -31.5t-37 -25.5t-38 -10.5q-19 0 -33.5 4.5t-34.5 13.5 q-51 23 -87.5 31t-65.5 8q-76 0 -146.5 -22.5t-146.5 -75.5q-16 -11 -30 -20t-22 -9q-14 0 -14 17z" />
<glyph unicode="&#xe8;" horiz-adv-x="932" d="M92 507q0 111 32 166.5t83 85.5q50 29 76 29q24 0 24 -30q0 -12 -10 -58.5t-10 -62.5q0 -28 17.5 -35.5t51.5 -7.5q87 0 149 15t95 42t47.5 57t14.5 66q0 62 -43 99.5t-138 37.5q-149 0 -280 -94q-39 -29 -49 -29q-17 0 -17 19q0 25 29 61q54 69 123 113t126 59t113 15 q72 0 130 -15t103 -46.5t70 -86t25 -127.5q0 -156 -148.5 -240.5t-405.5 -84.5q-72 0 -163 8q-45 3 -45 44zM100 358q0 52 48 52h86q26 0 36.5 -10t16.5 -44q39 -243 266 -243q57 0 107 14t77.5 31t51 31t34.5 14q23 0 23 -25q0 -21 -23 -54t-65.5 -68.5t-117 -61 t-161.5 -25.5q-180 0 -279.5 108.5t-99.5 280.5zM302 1540q0 51 19.5 92t43.5 41q17 0 36 -26l186 -251q40 -54 40 -102q0 -81 -36 -81q-16 0 -37 21l-219 229q-33 34 -33 77z" />
<glyph unicode="&#xe9;" horiz-adv-x="932" d="M92 507q0 111 32 166.5t83 85.5q50 29 76 29q24 0 24 -30q0 -12 -10 -58.5t-10 -62.5q0 -28 17.5 -35.5t51.5 -7.5q87 0 149 15t95 42t47.5 57t14.5 66q0 62 -43 99.5t-138 37.5q-149 0 -280 -94q-39 -29 -49 -29q-17 0 -17 19q0 25 29 61q54 69 123 113t126 59t113 15 q72 0 130 -15t103 -46.5t70 -86t25 -127.5q0 -156 -148.5 -240.5t-405.5 -84.5q-72 0 -163 8q-45 3 -45 44zM100 358q0 52 48 52h86q26 0 36.5 -10t16.5 -44q39 -243 266 -243q57 0 107 14t77.5 31t51 31t34.5 14q23 0 23 -25q0 -21 -23 -54t-65.5 -68.5t-117 -61 t-161.5 -25.5q-180 0 -279.5 108.5t-99.5 280.5zM303 1292q0 51 40 104l186 251q19 26 36 26q23 0 42 -39.5t19 -90.5q0 -43 -33 -77l-217 -229q-21 -21 -37 -21q-18 0 -27 23t-9 53z" />
<glyph unicode="&#xea;" horiz-adv-x="932" d="M92 507q0 111 32 166.5t83 85.5q50 29 76 29q24 0 24 -30q0 -12 -10 -58.5t-10 -62.5q0 -28 17.5 -35.5t51.5 -7.5q87 0 149 15t95 42t47.5 57t14.5 66q0 62 -43 99.5t-138 37.5q-149 0 -280 -94q-39 -29 -49 -29q-17 0 -17 19q0 25 29 61q54 69 123 113t126 59t113 15 q72 0 130 -15t103 -46.5t70 -86t25 -127.5q0 -156 -148.5 -240.5t-405.5 -84.5q-72 0 -163 8q-45 3 -45 44zM100 358q0 52 48 52h86q26 0 36.5 -10t16.5 -44q39 -243 266 -243q57 0 107 14t77.5 31t51 31t34.5 14q23 0 23 -25q0 -21 -23 -54t-65.5 -68.5t-117 -61 t-161.5 -25.5q-180 0 -279.5 108.5t-99.5 280.5zM174 1298q0 47 22 69l240 251q27 26 49 26q19 0 45 -26l218 -241q27 -28 27 -74q0 -22 -8 -43t-26 -21q-23 0 -72 45l-158 150q-25 23 -36 23q-14 0 -40 -23l-163 -147q-50 -43 -70 -43q-28 0 -28 54z" />
<glyph unicode="&#xeb;" horiz-adv-x="932" d="M92 507q0 111 32 166.5t83 85.5q50 29 76 29q24 0 24 -30q0 -12 -10 -58.5t-10 -62.5q0 -28 17.5 -35.5t51.5 -7.5q87 0 149 15t95 42t47.5 57t14.5 66q0 62 -43 99.5t-138 37.5q-149 0 -280 -94q-39 -29 -49 -29q-17 0 -17 19q0 25 29 61q54 69 123 113t126 59t113 15 q72 0 130 -15t103 -46.5t70 -86t25 -127.5q0 -156 -148.5 -240.5t-405.5 -84.5q-72 0 -163 8q-45 3 -45 44zM100 358q0 52 48 52h86q26 0 36.5 -10t16.5 -44q39 -243 266 -243q57 0 107 14t77.5 31t51 31t34.5 14q23 0 23 -25q0 -21 -23 -54t-65.5 -68.5t-117 -61 t-161.5 -25.5q-180 0 -279.5 108.5t-99.5 280.5zM212 1302v145q0 39 18 61q26 30 58 49t54 19q35 0 35 -43v-145q0 -40 -18 -62q-24 -30 -56.5 -48.5t-55.5 -18.5q-35 0 -35 43zM552 1302v145q0 39 18 61q26 30 58 49t54 19q35 0 35 -43v-145q0 -40 -18 -62 q-24 -30 -56.5 -48.5t-55.5 -18.5q-35 0 -35 43z" />
<glyph unicode="&#xec;" horiz-adv-x="571" d="M123 1540q0 51 19.5 92t43.5 41q17 0 36 -26l186 -251q40 -54 40 -102q0 -81 -36 -81q-16 0 -37 21l-219 229q-33 34 -33 77zM195 33v893q0 38 18 61q26 30 61.5 49t65.5 19q35 0 35 -43v-893q0 -38 -18 -62q-26 -30 -61.5 -48.5t-65.5 -18.5q-35 0 -35 43z" />
<glyph unicode="&#xed;" horiz-adv-x="569" d="M123 1292q0 51 40 104l186 251q19 26 36 26q23 0 42 -39.5t19 -90.5q0 -43 -33 -77l-217 -229q-21 -21 -37 -21q-18 0 -27 23t-9 53zM194 33v893q0 38 18 61q26 30 61.5 49t65.5 19q35 0 35 -43v-893q0 -38 -18 -62q-26 -30 -61.5 -48.5t-65.5 -18.5q-35 0 -35 43z" />
<glyph unicode="&#xee;" horiz-adv-x="847" d="M123 1298q0 47 22 69l240 251q27 26 49 26q19 0 45 -26l218 -241q27 -28 27 -74q0 -22 -8 -43t-26 -21q-23 0 -72 45l-158 150q-25 23 -36 23q-14 0 -40 -23l-163 -147q-50 -43 -70 -43q-28 0 -28 54zM333 33v893q0 38 18 61q26 30 61.5 49t65.5 19q35 0 35 -43v-893 q0 -38 -18 -62q-26 -30 -61.5 -48.5t-65.5 -18.5q-35 0 -35 43z" />
<glyph unicode="&#xef;" horiz-adv-x="751" d="M123 1302v145q0 39 18 61q26 30 58 49t54 19q35 0 35 -43v-145q0 -40 -18 -62q-24 -30 -56.5 -48.5t-55.5 -18.5q-35 0 -35 43zM285 33v893q0 38 18 61q26 30 61.5 49t65.5 19q35 0 35 -43v-893q0 -38 -18 -62q-26 -30 -61.5 -48.5t-65.5 -18.5q-35 0 -35 43zM463 1302 v145q0 39 18 61q26 30 58 49t54 19q35 0 35 -43v-145q0 -40 -18 -62q-24 -30 -56.5 -48.5t-55.5 -18.5q-35 0 -35 43z" />
<glyph unicode="&#xf0;" horiz-adv-x="1108" d="M122 466q0 41 10 93.5t27 82.5q21 36 67.5 66t79.5 30q25 0 25 -30q0 -5 -10.5 -67.5t-10.5 -118.5q0 -75 4 -128t17 -110t36 -91.5t63.5 -57t97.5 -22.5q47 0 85 13t43 13q21 0 21 -22q0 -44 -66.5 -96t-161.5 -52q-327 0 -327 497zM161 755q0 11 11.5 32t19.5 31 q137 187 336 187q164 0 164 -142q0 -21 -11.5 -32t-27.5 -11q-13 0 -56 17q-60 24 -131 24q-58 0 -109.5 -19t-129.5 -73q-5 -4 -15 -10.5t-15.5 -10.5t-11.5 -7t-10 -3q-14 0 -14 17zM174 1504q0 32 80 32q49 0 81 -8.5t55 -8.5q11 0 21 6t18 20l32 56q30 53 109 53 q33 0 33 -20q0 -9 -8 -23l-57 -98q-8 -14 -8 -26q0 -20 29 -35q100 -56 176.5 -145t128 -207t77.5 -263t26 -313q0 -69 -11.5 -139t-32.5 -133t-51.5 -116t-68.5 -87q-53 -49 -89 -49q-21 0 -21 19q0 8 15 28.5t32 65.5q36 100 36 291q0 145 -10 279t-40.5 253.5t-86.5 221 t-147 181.5q-16 14 -30 14q-17 0 -29 -22l-23 -40q-15 -27 -43 -40t-67 -13q-32 0 -32 21q0 9 8 23l53 92q12 21 12 33q0 14 -10 20t-23.5 12t-27.5 10t-41 12t-46 18t-19 25z" />
<glyph unicode="&#xf1;" horiz-adv-x="1038" d="M125 33v538q0 56 27 86q27 31 64 55.5t58 24.5q31 0 31 -43v-575q0 -55 -49.5 -92t-95.5 -37q-35 0 -35 43zM125 767v159q0 54 49.5 91.5t95.5 37.5q35 0 35 -43v-25q0 -36 16 -36q14 0 39 19q57 42 119 63.5t111 21.5q174 0 255 -97.5t81 -326.5v-512q0 -54 -49 -91.5 t-96 -37.5q-35 0 -35 43v395q0 94 -1.5 142t-8 115t-21.5 99.5t-40.5 66.5t-66.5 47t-98 13q-115 0 -315 -153q-32 -25 -50 -25q-20 0 -20 34zM181 1331q0 75 65.5 146.5t151.5 71.5q55 0 104.5 -25.5t90 -50.5t74.5 -25q31 0 57 10t39 21t31 30t25 25q11 9 20 9 q18 0 18 -25q0 -80 -55.5 -152.5t-142.5 -72.5q-48 0 -139.5 51.5t-137.5 51.5q-35 0 -64.5 -14t-62.5 -42t-41 -33.5t-14 -5.5q-19 0 -19 30z" />
<glyph unicode="&#xf2;" horiz-adv-x="1059" d="M92 498q0 51 10 107.5t27 86.5q21 36 67.5 66t79.5 30q25 0 25 -30q0 -5 -10.5 -77t-10.5 -129q0 -70 3 -120t11.5 -104t26 -90t44 -66t67.5 -44.5t96 -14.5q47 0 82.5 13t40.5 13q21 0 21 -22q0 -45 -64.5 -96.5t-158.5 -51.5q-87 0 -151.5 29t-103.5 76t-62.5 118 t-31.5 143t-8 163zM131 805q0 11 11.5 32t19.5 31q146 187 362 187q228 0 335.5 -134.5t107.5 -396.5q0 -81 -20.5 -173.5t-55.5 -164.5q-38 -76 -93 -129t-89 -53q-21 0 -21 19q0 6 7 16t19 30.5t21 47.5q41 112 41 317q0 113 -15.5 196.5t-51 148.5t-98.5 98.5t-154 33.5 q-126 0 -260 -92q-5 -4 -15 -10.5t-15.5 -10.5t-11.5 -7t-10 -3q-14 0 -14 17zM367 1540q0 51 19.5 92t43.5 41q17 0 36 -26l186 -251q40 -54 40 -102q0 -81 -36 -81q-16 0 -37 21l-219 229q-33 34 -33 77z" />
<glyph unicode="&#xf3;" horiz-adv-x="1059" d="M92 498q0 51 10 107.5t27 86.5q21 36 67.5 66t79.5 30q25 0 25 -30q0 -5 -10.5 -77t-10.5 -129q0 -70 3 -120t11.5 -104t26 -90t44 -66t67.5 -44.5t96 -14.5q47 0 82.5 13t40.5 13q21 0 21 -22q0 -45 -64.5 -96.5t-158.5 -51.5q-87 0 -151.5 29t-103.5 76t-62.5 118 t-31.5 143t-8 163zM131 805q0 11 11.5 32t19.5 31q146 187 362 187q228 0 335.5 -134.5t107.5 -396.5q0 -81 -20.5 -173.5t-55.5 -164.5q-38 -76 -93 -129t-89 -53q-21 0 -21 19q0 6 7 16t19 30.5t21 47.5q41 112 41 317q0 113 -15.5 196.5t-51 148.5t-98.5 98.5t-154 33.5 q-126 0 -260 -92q-5 -4 -15 -10.5t-15.5 -10.5t-11.5 -7t-10 -3q-14 0 -14 17zM368 1292q0 51 40 104l186 251q19 26 36 26q23 0 42 -39.5t19 -90.5q0 -43 -33 -77l-217 -229q-21 -21 -37 -21q-18 0 -27 23t-9 53z" />
<glyph unicode="&#xf4;" horiz-adv-x="1059" d="M92 498q0 51 10 107.5t27 86.5q21 36 67.5 66t79.5 30q25 0 25 -30q0 -5 -10.5 -77t-10.5 -129q0 -70 3 -120t11.5 -104t26 -90t44 -66t67.5 -44.5t96 -14.5q47 0 82.5 13t40.5 13q21 0 21 -22q0 -45 -64.5 -96.5t-158.5 -51.5q-87 0 -151.5 29t-103.5 76t-62.5 118 t-31.5 143t-8 163zM131 805q0 11 11.5 32t19.5 31q146 187 362 187q228 0 335.5 -134.5t107.5 -396.5q0 -81 -20.5 -173.5t-55.5 -164.5q-38 -76 -93 -129t-89 -53q-21 0 -21 19q0 6 7 16t19 30.5t21 47.5q41 112 41 317q0 113 -15.5 196.5t-51 148.5t-98.5 98.5t-154 33.5 q-126 0 -260 -92q-5 -4 -15 -10.5t-15.5 -10.5t-11.5 -7t-10 -3q-14 0 -14 17zM229 1298q0 47 22 69l240 251q27 26 49 26q19 0 45 -26l218 -241q27 -28 27 -74q0 -22 -8 -43t-26 -21q-23 0 -72 45l-158 150q-25 23 -36 23q-14 0 -40 -23l-163 -147q-50 -43 -70 -43 q-28 0 -28 54z" />
<glyph unicode="&#xf5;" horiz-adv-x="1059" d="M92 498q0 51 10 107.5t27 86.5q21 36 67.5 66t79.5 30q25 0 25 -30q0 -5 -10.5 -77t-10.5 -129q0 -70 3 -120t11.5 -104t26 -90t44 -66t67.5 -44.5t96 -14.5q47 0 82.5 13t40.5 13q21 0 21 -22q0 -45 -64.5 -96.5t-158.5 -51.5q-87 0 -151.5 29t-103.5 76t-62.5 118 t-31.5 143t-8 163zM131 805q0 11 11.5 32t19.5 31q146 187 362 187q228 0 335.5 -134.5t107.5 -396.5q0 -81 -20.5 -173.5t-55.5 -164.5q-38 -76 -93 -129t-89 -53q-21 0 -21 19q0 6 7 16t19 30.5t21 47.5q41 112 41 317q0 113 -15.5 196.5t-51 148.5t-98.5 98.5t-154 33.5 q-126 0 -260 -92q-5 -4 -15 -10.5t-15.5 -10.5t-11.5 -7t-10 -3q-14 0 -14 17zM191 1331q0 75 65.5 146.5t151.5 71.5q55 0 104.5 -25.5t90 -50.5t74.5 -25q31 0 57 10t39 21t31 30t25 25q11 9 20 9q18 0 18 -25q0 -80 -55.5 -152.5t-142.5 -72.5q-48 0 -139.5 51.5 t-137.5 51.5q-35 0 -64.5 -14t-62.5 -42t-41 -33.5t-14 -5.5q-19 0 -19 30z" />
<glyph unicode="&#xf6;" horiz-adv-x="1059" d="M92 498q0 51 10 107.5t27 86.5q21 36 67.5 66t79.5 30q25 0 25 -30q0 -5 -10.5 -77t-10.5 -129q0 -70 3 -120t11.5 -104t26 -90t44 -66t67.5 -44.5t96 -14.5q47 0 82.5 13t40.5 13q21 0 21 -22q0 -45 -64.5 -96.5t-158.5 -51.5q-87 0 -151.5 29t-103.5 76t-62.5 118 t-31.5 143t-8 163zM131 805q0 11 11.5 32t19.5 31q146 187 362 187q228 0 335.5 -134.5t107.5 -396.5q0 -81 -20.5 -173.5t-55.5 -164.5q-38 -76 -93 -129t-89 -53q-21 0 -21 19q0 6 7 16t19 30.5t21 47.5q41 112 41 317q0 113 -15.5 196.5t-51 148.5t-98.5 98.5t-154 33.5 q-126 0 -260 -92q-5 -4 -15 -10.5t-15.5 -10.5t-11.5 -7t-10 -3q-14 0 -14 17zM277 1302v145q0 39 18 61q26 30 58 49t54 19q35 0 35 -43v-145q0 -40 -18 -62q-24 -30 -56.5 -48.5t-55.5 -18.5q-35 0 -35 43zM617 1302v145q0 39 18 61q26 30 58 49t54 19q35 0 35 -43v-145 q0 -40 -18 -62q-24 -30 -56.5 -48.5t-55.5 -18.5q-35 0 -35 43z" />
<glyph unicode="&#xf7;" horiz-adv-x="1434" d="M164 611q0 11 19 38.5t48 53.5q23 20 74 20h922q43 0 43 -30q0 -12 -19.5 -39.5t-48.5 -53.5q-22 -20 -74 -20h-921q-43 0 -43 31zM611 91v135q0 42 21 68q26 30 71 55.5t74 25.5q35 0 35 -43v-135q0 -49 -21 -73q-25 -30 -70.5 -53t-74.5 -23q-35 0 -35 43zM611 961v135 q0 42 21 68q26 30 71 55.5t74 25.5q35 0 35 -43v-135q0 -49 -21 -73q-25 -30 -70.5 -53t-74.5 -23q-35 0 -35 43z" />
<glyph unicode="&#xf8;" horiz-adv-x="1059" d="M92 498q0 51 10 107.5t27 86.5q21 36 67.5 66t79.5 30q25 0 25 -30l-21 -84q-20 -83 -20 -164q0 -107 15 -181q7 -35 7 -48q0 -52 -37 -109q-41 -62 -66 -62q-14 0 -25 22q-62 124 -62 366zM131 805q0 11 11.5 32t19.5 31q147 187 369 187q28 0 46 -1t42.5 -4.5t37 -13.5 t12.5 -25q0 -17 -19 -55q-31 -61 -66 -61q-12 0 -38 8q-39 10 -89 10q-123 0 -260 -94q-5 -4 -15 -10.5t-15.5 -10.5t-11.5 -7t-10 -3q-14 0 -14 17zM137 -156q0 12 15 42l636 1226q16 32 33 48t49 23t52 7q21 0 21 -19q0 -14 -15 -43l-76 -145q-9 -18 -9 -30q0 -7 2.5 -13 t5 -9.5t7 -8t5.5 -6.5q104 -132 104 -392q0 -81 -20.5 -173.5t-55.5 -164.5q-38 -76 -93 -129t-89 -53q-21 0 -21 19q0 6 6.5 15.5t18.5 30.5t22 48q24 68 42 162.5t18 154.5q0 149 -40 264q-10 29 -23 29q-12 0 -23 -21l-281 -537q-7 -12 -7 -22q0 -13 16 -23 q30 -15 91 -15q47 0 82.5 15t40.5 15q21 0 21 -22q0 -45 -64.5 -96.5t-158.5 -51.5q-45 0 -88 8q-8 2 -14 2q-18 0 -31 -25l-36 -70q-14 -26 -48.5 -42t-74.5 -16q-20 0 -20 18z" />
<glyph unicode="&#xf9;" d="M113 385v543q0 27 14.5 50.5t36 40.5t47 26.5t47.5 9.5q35 0 35 -43v-609l4 -77q4 -57 16 -97.5t36 -66t60.5 -37.5t88.5 -12q83 0 151 39q19 11 25 11q9 0 12.5 -7t3.5 -30q0 -42 -29 -71.5t-70 -48.5t-85.5 -28t-75.5 -9q-84 0 -144.5 21.5t-98.5 71t-56 128.5t-18 195 zM359 1540q0 51 19.5 92t43.5 41q17 0 36 -26l186 -251q40 -54 40 -102q0 -81 -36 -81q-16 0 -37 21l-219 229q-33 34 -33 77zM741 33v896q0 52 50 89t95 37q35 0 35 -43v-896q0 -54 -49.5 -90t-95.5 -36q-35 0 -35 43z" />
<glyph unicode="&#xfa;" d="M113 385v543q0 27 14.5 50.5t36 40.5t47 26.5t47.5 9.5q35 0 35 -43v-609l4 -77q4 -57 16 -97.5t36 -66t60.5 -37.5t88.5 -12q83 0 151 39q19 11 25 11q9 0 12.5 -7t3.5 -30q0 -42 -29 -71.5t-70 -48.5t-85.5 -28t-75.5 -9q-84 0 -144.5 21.5t-98.5 71t-56 128.5t-18 195 zM360 1292q0 51 40 104l186 251q19 26 36 26q23 0 42 -39.5t19 -90.5q0 -43 -33 -77l-217 -229q-21 -21 -37 -21q-18 0 -27 23t-9 53zM741 33v896q0 52 50 89t95 37q35 0 35 -43v-896q0 -54 -49.5 -90t-95.5 -36q-35 0 -35 43z" />
<glyph unicode="&#xfb;" d="M113 385v543q0 27 14.5 50.5t36 40.5t47 26.5t47.5 9.5q35 0 35 -43v-609l4 -77q4 -57 16 -97.5t36 -66t60.5 -37.5t88.5 -12q83 0 151 39q19 11 25 11q9 0 12.5 -7t3.5 -30q0 -42 -29 -71.5t-70 -48.5t-85.5 -28t-75.5 -9q-84 0 -144.5 21.5t-98.5 71t-56 128.5t-18 195 zM221 1298q0 47 22 69l240 251q27 26 49 26q19 0 45 -26l218 -241q27 -28 27 -74q0 -22 -8 -43t-26 -21q-23 0 -72 45l-158 150q-25 23 -36 23q-14 0 -40 -23l-163 -147q-50 -43 -70 -43q-28 0 -28 54zM741 33v896q0 52 50 89t95 37q35 0 35 -43v-896q0 -54 -49.5 -90 t-95.5 -36q-35 0 -35 43z" />
<glyph unicode="&#xfc;" d="M113 385v543q0 27 14.5 50.5t36 40.5t47 26.5t47.5 9.5q35 0 35 -43v-609l4 -77q4 -57 16 -97.5t36 -66t60.5 -37.5t88.5 -12q83 0 151 39q19 11 25 11q9 0 12.5 -7t3.5 -30q0 -42 -29 -71.5t-70 -48.5t-85.5 -28t-75.5 -9q-84 0 -144.5 21.5t-98.5 71t-56 128.5t-18 195 zM269 1302v145q0 39 18 61q26 30 58 49t54 19q35 0 35 -43v-145q0 -40 -18 -62q-24 -30 -56.5 -48.5t-55.5 -18.5q-35 0 -35 43zM609 1302v145q0 39 18 61q26 30 58 49t54 19q35 0 35 -43v-145q0 -40 -18 -62q-24 -30 -56.5 -48.5t-55.5 -18.5q-35 0 -35 43zM741 33v896 q0 52 50 89t95 37q35 0 35 -43v-896q0 -54 -49.5 -90t-95.5 -36q-35 0 -35 43z" />
<glyph unicode="&#xfd;" horiz-adv-x="1042" d="M113 385v543q0 27 14.5 50.5t36 40.5t47 26.5t47.5 9.5q35 0 35 -43v-564l3 -88q1 -29 3 -46.5t5 -31.5t6.5 -27t9.5 -33q17 -60 65 -84.5t121 -24.5q75 0 143 39q19 11 26 11q15 0 15 -37q0 -41 -29 -70.5t-70 -48.5t-85.5 -28.5t-75.5 -9.5q-84 0 -144.5 21.5t-98.5 71 t-56 128.5t-18 195zM156 -494q0 36 41 68q47 39 77 39t58 -23q36 -27 67 -38.5t76 -11.5q40 0 91.5 11t54.5 11q26 0 26 -25q0 -46 -78 -93.5t-168 -47.5q-88 0 -166.5 37t-78.5 73zM359 1292q0 51 40 104l186 251q19 26 36 26q23 0 42 -39.5t19 -90.5q0 -43 -33 -77 l-217 -229q-21 -21 -37 -21q-18 0 -27 23t-9 53zM666 -549q0 9 16 31q34 47 46.5 118.5t12.5 192.5l-2 1133q0 39 19 61q26 30 61.5 49t65.5 19q35 0 35 -43v-1215q0 -75 -19 -138.5t-47.5 -103t-62.5 -67.5t-61.5 -39.5t-47.5 -11.5q-16 0 -16 14z" />
<glyph unicode="&#xfe;" horiz-adv-x="1050" d="M124 -76q0 45 35 45q40 0 112 -56q33 -25 33 -86v-305q0 -55 -49 -90.5t-96 -35.5q-35 0 -35 43v485zM124 572q0 53 27 84q27 30 65 56t57 26q31 0 31 -43l4 -402q0 -92 41.5 -136t129.5 -44q66 0 113.5 15t49.5 15q21 0 21 -22q0 -53 -72.5 -102.5t-179.5 -49.5 q-144 0 -213 60t-70 207zM124 769v641q0 54 49.5 90t95.5 36q35 0 35 -43l-4 -506q0 -36 16 -36q13 0 39 20q115 84 232 84q368 0 368 -504q0 -97 -20.5 -196.5t-56.5 -170.5q-38 -76 -92.5 -128t-88.5 -52q-20 0 -20 19q0 6 7 16t19 30.5t22 47.5q41 112 41 325 q0 112 -11.5 193.5t-39.5 146t-78 97t-124 32.5q-80 0 -140.5 -31.5t-178.5 -121.5q-34 -25 -50 -25q-20 0 -20 36z" />
<glyph unicode="&#xff;" horiz-adv-x="1042" d="M113 385v543q0 27 14.5 50.5t36 40.5t47 26.5t47.5 9.5q35 0 35 -43v-564l3 -88q1 -29 3 -46.5t5 -31.5t6.5 -27t9.5 -33q17 -60 65 -84.5t121 -24.5q75 0 143 39q19 11 26 11q15 0 15 -37q0 -41 -29 -70.5t-70 -48.5t-85.5 -28.5t-75.5 -9.5q-84 0 -144.5 21.5t-98.5 71 t-56 128.5t-18 195zM156 -494q0 36 41 68q47 39 77 39t58 -23q36 -27 67 -38.5t76 -11.5q40 0 91.5 11t54.5 11q26 0 26 -25q0 -46 -78 -93.5t-168 -47.5q-88 0 -166.5 37t-78.5 73zM268 1302v145q0 39 18 61q26 30 58 49t54 19q35 0 35 -43v-145q0 -40 -18 -62 q-24 -30 -56.5 -48.5t-55.5 -18.5q-35 0 -35 43zM608 1302v145q0 39 18 61q26 30 58 49t54 19q35 0 35 -43v-145q0 -40 -18 -62q-24 -30 -56.5 -48.5t-55.5 -18.5q-35 0 -35 43zM666 -549q0 9 16 31q34 47 46.5 118.5t12.5 192.5l-2 1133q0 39 19 61q26 30 61.5 49t65.5 19 q35 0 35 -43v-1215q0 -75 -19 -138.5t-47.5 -103t-62.5 -67.5t-61.5 -39.5t-47.5 -11.5q-16 0 -16 14z" />
<glyph unicode="&#x152;" horiz-adv-x="1691" d="M102 623q0 113 14 204t34 130q25 50 78.5 87.5t97.5 37.5q30 0 30 -31q0 -15 -11 -66t-22.5 -135t-11.5 -178q0 -85 11.5 -159t41 -145t75 -120.5t119 -80t167.5 -30.5q53 0 84 4q25 3 40.5 18.5t15.5 40.5v336q0 36 24.5 47.5t76.5 11.5q56 0 78 -11.5t22 -47.5v-331 q0 -41 41 -41h469q43 0 43 -31q0 -14 -20 -51.5t-47 -61.5q-23 -20 -74 -20h-578q-38 0 -123 -15.5t-128 -15.5q-151 0 -258 44t-170 131.5t-91 204t-28 274.5zM147 1100q0 32 54 100q189 234 546 234q46 0 133.5 -15.5t128.5 -15.5h547q43 0 43 -31q0 -14 -20 -50.5 t-48 -61.5q-23 -21 -73 -21h-532q-52 0 -139 15.5t-161 15.5q-212 0 -390 -150q-54 -45 -66 -45q-23 0 -23 25zM865 696v423q0 36 24.5 48t76.5 12q56 0 78 -11.5t22 -48.5v-259q0 -41 41 -41h387q43 0 43 -31q0 -14 -20 -50.5t-47 -61.5q-23 -21 -74 -21h-490q-41 0 -41 41 z" />
<glyph unicode="&#x153;" horiz-adv-x="1568" d="M92 498q0 97 22.5 159.5t81.5 100.5q46 30 80 30q25 0 25 -30q0 1 -3.5 -21.5t-7 -55.5t-7 -68.5t-3.5 -60.5q0 -86 5 -165.5t26.5 -140.5t67 -97t126.5 -36q26 0 48.5 4t39 9t26.5 9t12 4q21 0 21 -22q0 -24 -16.5 -50t-45.5 -48t-70.5 -36t-90.5 -14q-76 0 -130.5 22 t-92 60.5t-60 90t-34.5 110.5t-16 122t-4 124zM131 805q0 11 11.5 32t19.5 31q146 187 352 187q195 0 294 -99q24 -24 42 -24q17 0 36 17q124 106 282 106q149 0 235.5 -66t86.5 -209q0 -154 -148 -239.5t-400 -85.5q-72 0 -163 8q-45 3 -45 44q0 111 32 166t83 85 q52 30 76 30t24 -30q0 -12 -10 -58.5t-10 -62.5q0 -28 17.5 -35.5t51.5 -7.5q161 0 230.5 51.5t69.5 128.5q0 62 -42 99.5t-133 37.5q-130 0 -303 -111q-53 -34 -82 -34q-31 0 -64 41q-83 104 -227 104q-59 0 -116 -19.5t-134 -72.5q-5 -4 -15 -10.5t-15.5 -10.5t-11.5 -7 t-10 -3q-14 0 -14 17zM668 23q0 6 6 15.5t17 30.5t32.5 86t25.5 190q0 15 2 24.5t10.5 21t29 17t52.5 5.5q47 0 62.5 -10t18.5 -32q8 -68 29 -117.5t46 -76t61.5 -41.5t66 -19t68.5 -4q57 0 106.5 14t75.5 31t48.5 31t33.5 14q23 0 23 -25q0 -21 -22.5 -54t-63.5 -68.5 t-114.5 -61t-160.5 -25.5q-95 0 -159 31.5t-113 96.5q-16 21 -31 21t-30 -21q-65 -93 -99 -93q-21 0 -21 19z" />
<glyph unicode="&#x2c6;" horiz-adv-x="761" d="M80 1298q0 47 22 69l240 251q27 26 49 26q19 0 45 -26l218 -241q27 -28 27 -74q0 -22 -8 -43t-26 -21q-23 0 -72 45l-158 150q-25 23 -36 23q-14 0 -40 -23l-163 -147q-50 -43 -70 -43q-28 0 -28 54z" />
<glyph unicode="&#x2dc;" horiz-adv-x="836" d="M80 1331q0 75 65.5 146.5t151.5 71.5q55 0 104.5 -25.5t90 -50.5t74.5 -25q31 0 57 10t39 21t31 30t25 25q11 9 20 9q18 0 18 -25q0 -80 -55.5 -152.5t-142.5 -72.5q-48 0 -139.5 51.5t-137.5 51.5q-35 0 -64.5 -14t-62.5 -42t-41 -33.5t-14 -5.5q-19 0 -19 30z" />
<glyph unicode="&#x2000;" horiz-adv-x="1190" />
<glyph unicode="&#x2001;" horiz-adv-x="2380" />
<glyph unicode="&#x2002;" horiz-adv-x="1190" />
<glyph unicode="&#x2003;" horiz-adv-x="2380" />
<glyph unicode="&#x2004;" horiz-adv-x="793" />
<glyph unicode="&#x2005;" horiz-adv-x="595" />
<glyph unicode="&#x2006;" horiz-adv-x="396" />
<glyph unicode="&#x2007;" horiz-adv-x="396" />
<glyph unicode="&#x2008;" horiz-adv-x="297" />
<glyph unicode="&#x2009;" horiz-adv-x="476" />
<glyph unicode="&#x200a;" horiz-adv-x="132" />
<glyph unicode="&#x2010;" d="M164 563q0 13 19.5 45.5t47.5 57.5q23 20 74 20h533q43 0 43 -31q0 -12 -20 -44.5t-48 -57.5q-23 -21 -74 -21h-532q-43 0 -43 31z" />
<glyph unicode="&#x2011;" d="M164 563q0 13 19.5 45.5t47.5 57.5q23 20 74 20h533q43 0 43 -31q0 -12 -20 -44.5t-48 -57.5q-23 -21 -74 -21h-532q-43 0 -43 31z" />
<glyph unicode="&#x2012;" d="M164 563q0 13 19.5 45.5t47.5 57.5q23 20 74 20h533q43 0 43 -31q0 -12 -20 -44.5t-48 -57.5q-23 -21 -74 -21h-532q-43 0 -43 31z" />
<glyph unicode="&#x2013;" horiz-adv-x="1323" d="M164 622q0 12 17 37t46 51q23 21 78 21h812q43 0 43 -31q0 -11 -17.5 -36.5t-46.5 -51.5q-22 -20 -78 -20h-811q-43 0 -43 30z" />
<glyph unicode="&#x2014;" horiz-adv-x="1723" d="M164 622q0 12 17 37t46 51q23 21 78 21h1212q43 0 43 -31q0 -11 -17.5 -36.5t-46.5 -51.5q-22 -20 -78 -20h-1211q-43 0 -43 30z" />
<glyph unicode="&#x2018;" horiz-adv-x="600" d="M139 1229q0 14 14 50l138 360q27 63 66 107.5t77 44.5q35 0 35 -30q0 -7 -20 -79l-95 -338q-14 -47 -31 -68q-24 -30 -72.5 -55.5t-77.5 -25.5q-34 0 -34 34z" />
<glyph unicode="&#x2019;" horiz-adv-x="600" d="M135 1225q0 7 115 417q14 47 31 68q24 30 72.5 55.5t77.5 25.5q34 0 34 -34q0 -14 -14 -50l-138 -360q-27 -63 -66 -107.5t-77 -44.5q-35 0 -35 30z" />
<glyph unicode="&#x201a;" horiz-adv-x="596" d="M133 -249q0 7 115 417q14 47 31 68q24 30 72.5 55.5t77.5 25.5q34 0 34 -34q0 -14 -152 -410q-27 -63 -66 -107.5t-77 -44.5q-35 0 -35 30z" />
<glyph unicode="&#x201c;" horiz-adv-x="930" d="M139 1229q0 14 14 50l138 360q27 63 66 107.5t77 44.5q35 0 35 -30q0 -7 -115 -417q-14 -47 -31 -68q-24 -30 -72.5 -55.5t-77.5 -25.5q-34 0 -34 34zM469 1229q0 14 14 50l138 360q27 63 66 107.5t77 44.5q35 0 35 -30q0 -7 -20 -79q-101 -382 -126 -406 q-24 -30 -72.5 -55.5t-77.5 -25.5q-34 0 -34 34z" />
<glyph unicode="&#x201d;" horiz-adv-x="930" d="M135 1225q0 7 115 417q14 47 31 68q24 30 72.5 55.5t77.5 25.5q34 0 34 -34q0 -14 -14 -50l-138 -360q-27 -63 -66 -107.5t-77 -44.5q-35 0 -35 30zM465 1225q0 7 115 417q14 47 31 68q24 30 72.5 55.5t77.5 25.5q34 0 34 -34q0 -14 -14 -50l-138 -360 q-27 -63 -66 -107.5t-77 -44.5q-35 0 -35 30z" />
<glyph unicode="&#x201e;" horiz-adv-x="926" d="M133 -249q0 7 115 417q14 47 31 68q24 30 72.5 55.5t77.5 25.5q34 0 34 -34q0 -14 -14 -50l-138 -360q-27 -63 -66 -107.5t-77 -44.5q-35 0 -35 30zM463 -249q0 7 115 417q14 47 31 68q24 30 72.5 55.5t77.5 25.5q34 0 34 -34q0 -14 -14 -50l-138 -360 q-27 -63 -66 -107.5t-77 -44.5q-35 0 -35 30z" />
<glyph unicode="&#x2022;" horiz-adv-x="817" d="M100 766q0 64 24.5 119t66 96t97.5 64.5t119 23.5q64 0 120.5 -24t98.5 -65t66.5 -96t24.5 -118t-24.5 -118t-66.5 -96.5t-98.5 -65t-120.5 -23.5q-63 0 -119 23.5t-97.5 64.5t-66 96t-24.5 119z" />
<glyph unicode="&#x202f;" horiz-adv-x="476" />
<glyph unicode="&#x2039;" horiz-adv-x="991" d="M90 544q0 47 51 118t96 103l525 371q28 20 48 20q27 0 27 -28q0 -54 -31 -116q-18 -34 -46.5 -66.5t-54.5 -49.5l-533 -361q-38 -22 -57 -22q-25 0 -25 31zM185 442q0 26 44 56.5t80 30.5q31 0 59 -21l436 -329q37 -29 37 -58t-33.5 -79t-64.5 -50q-15 0 -43 18l-489 394 q-26 22 -26 38z" />
<glyph unicode="&#x203a;" horiz-adv-x="1056" d="M150 1026q0 13 9.5 35t23.5 43t31.5 36t33.5 15q14 0 43 -18l649 -529q13 -11 19.5 -22t6.5 -20q0 -13 -14 -27.5t-33.5 -26.5t-42 -20t-38.5 -8q-28 0 -59 23l-592 461q-37 28 -37 58zM154 19q0 54 31 116q18 35 47 67.5t54 48.5l313 222q40 29 68 29q26 0 60 -31 t34 -56q0 -24 -26 -43l-506 -361q-34 -19 -48 -19q-27 0 -27 27z" />
<glyph unicode="&#x205f;" horiz-adv-x="595" />
<glyph unicode="&#x20ac;" horiz-adv-x="1374" d="M45 461l8 15.5t22.5 34t35.5 34t47 15.5q29 0 39.5 -10t10.5 -44q0 -40 -13 -58t-44 -18h-63q-43 0 -43 31zM45 800q0 6 7.5 20t24 32.5t42.5 33.5t64 15q39 0 39 -43q0 -88 -76 -88h-58q-43 0 -43 30zM264 548v83q0 15 5.5 28.5t17.5 24t32.5 16.5t50.5 6q104 0 104 -72 q0 -19 2 -32.5t9 -22.5t21 -13.5t38 -4.5h254q43 0 43 -31q0 -2 -7.5 -18t-24 -34t-43.5 -33t-67 -15h-358q-33 0 -49 14t-22 40.5t-6 63.5zM278 816q0 23 4 45t9 41t11 33t10 22q12 24 33 47t46 40t50.5 27.5t46.5 10.5q30 0 30 -31q0 -6 -2.5 -20t-6 -30.5t-6 -32 t-2.5 -25.5q0 -22 11 -32t43 -10h443q43 0 43 -31q0 -2 -7.5 -18t-24 -34t-43.5 -33t-67 -15h-564q-57 0 -57 46zM299 309q0 63 116 63q48 -3 71 -10.5t37 -26.5q103 -198 323 -198q79 0 141.5 16t109.5 35.5t78.5 35.5t46.5 16q24 0 24 -25q0 -9 -12 -30.5t-36.5 -48.5 t-63 -56.5t-91.5 -54t-121 -40.5t-152 -16q-195 0 -308.5 78t-158.5 233q-4 15 -4 29zM309 1100q0 32 54 100q189 234 516 234q31 0 72 -5t81 -12.5t75 -17.5t55 -19q6 -3 17 -8t21.5 -12.5t18 -18.5t7.5 -26q0 -19 -13.5 -40t-34 -39t-42 -29t-44.5 -11q-34 0 -92.5 25 t-120.5 37t-121 12q-182 0 -360 -150q-54 -45 -66 -45q-23 0 -23 25z" />
<glyph unicode="&#x25fc;" horiz-adv-x="1055" d="M0 0v1055h1055v-1055h-1055z" />
</font>
</defs>
</svg>
